<svg width="236" height="261" viewBox="0 0 236 261" fill="none" xmlns="http://www.w3.org/2000/svg">
<path d="M12.0802 -61.0524C28.0624 -66.1105 47.1201 -53.9308 65.0108 -30.1507C81.7743 -7.86855 98.0363 24.9523 109.823 63.0245C121.61 101.104 126.757 137.444 125.548 165.415C124.258 195.264 115.47 216.258 99.4881 221.315C83.5067 226.374 64.4482 214.194 46.5576 190.413C29.794 168.131 13.532 135.31 1.74549 97.2382L1.74208 97.2272C-10.0429 59.154 -15.1882 22.8158 -13.9799 -5.15354C-12.6901 -35.0024 -3.90016 -55.9952 12.0804 -61.0523L12.0802 -61.0524ZM55.779 -23.1288C40.9174 -42.8826 26.3181 -53.3914 15.5103 -49.9711C4.70254 -46.5509 -1.36512 -29.5022 -2.43651 -4.70643C-3.58907 21.9701 1.39934 56.8913 12.8013 93.7272L12.8047 93.7382C24.2081 130.573 39.7993 162.139 55.7889 183.391C70.6505 203.145 85.2498 213.654 96.0576 210.234C106.865 206.813 112.933 189.763 114.004 164.967C115.157 138.289 110.167 103.367 98.765 66.5296C87.3599 29.6893 71.7685 -1.87661 55.7791 -23.1291L55.779 -23.1288Z" fill="#7D2CE9"/>
<path d="M196.69 35.5405C201.647 51.5526 189.411 70.7436 165.624 88.8218C143.335 105.762 110.546 122.252 72.5454 134.278C34.5455 146.303 -1.6919 151.655 -29.5559 150.587C-59.2927 149.447 -80.166 140.734 -85.1226 124.721C-90.0791 108.709 -77.844 89.5192 -54.0555 71.4406C-31.766 54.5009 1.02285 38.0103 39.0232 25.9843C77.0272 13.9585 113.262 8.60691 141.126 9.67508C170.862 10.8149 191.734 19.5286 196.691 35.5406L196.69 35.5405ZM158.675 79.5931C178.435 64.575 188.983 49.8694 185.631 39.0402C182.279 28.2111 165.322 22.2097 140.62 21.2625C114.045 20.2436 79.2223 25.4304 42.4588 37.0637C5.6879 48.7007 -25.8475 64.5121 -47.1069 80.6691C-66.8685 95.6874 -77.4154 110.392 -74.0634 121.222C-70.7113 132.051 -53.7539 138.053 -29.0508 138.999C-2.47453 140.019 32.3501 134.831 69.115 123.197C105.88 111.562 137.415 95.7498 158.675 79.5931Z" fill="#7D2CE9"/>
<path fill-rule="evenodd" clip-rule="evenodd" d="M-42.3221 1.94462L92.2736 -40.6484C109.863 -46.2146 128.716 -36.3499 134.171 -18.7262L175.918 116.135C181.373 133.758 171.445 152.731 153.857 158.297L19.2611 200.889C1.67246 206.456 -17.1811 196.591 -22.6365 178.967L-64.3825 44.1065C-69.8377 26.4837 -59.9102 7.51044 -42.3221 1.94462Z" fill="#6112CA"/>
<path d="M25.963 144.592C5.03089 133.64 -9.62967 118.746 -18.0211 99.9103C-18.1315 99.6636 -18.2388 99.4138 -18.3487 99.1663C-18.7671 98.2193 -19.479 94.6418 -15.9261 93.1004C-15.6982 93.001 -15.4675 92.9084 -15.2384 92.8134C-8.42183 89.9726 -1.6022 87.1309 5.21396 84.291C5.57268 84.1409 5.93352 83.9906 6.29384 83.8414C9.31644 82.5762 11.2186 84.4271 11.9742 85.8911C12.1047 86.1455 12.2277 86.4035 12.3553 86.6583C19.2872 100.421 29.1016 110.625 41.7982 117.268C51.0003 122.083 57.1163 121.597 60.1448 115.809C61.4774 113.262 61.2024 110.427 59.3192 107.305C57.4365 104.181 52.9543 99.5869 45.8707 93.5217C39.4175 87.9333 34.2427 83.0502 30.3473 78.8747C26.4515 74.6979 22.9737 70.0029 19.9145 64.7895C16.8534 59.5759 15.3827 54.1978 15.498 48.6559C15.6143 43.1137 17.2773 37.275 20.4874 31.1398C26.484 19.6792 35.602 12.5441 47.8424 9.73296C60.0827 6.92176 73.3353 9.24811 87.5998 16.7118C105.87 26.2711 118.993 38.9837 126.966 54.8485C127.366 56.0777 128.186 59.1647 124.975 60.8535L103.36 71.9867C102.266 72.5406 101.069 72.4524 100.225 72.1933C98.7219 71.7317 97.8887 70.5295 97.5791 70.039C90.2894 58.4734 82.3103 49.5536 72.1089 44.2159C68.1982 42.1697 64.8137 41.3576 61.9555 41.7779C59.0974 42.2001 57.0324 43.6255 55.7601 46.0569C54.3063 48.8354 54.5652 51.772 56.5358 54.8677C58.5058 57.9623 63.1479 62.6028 70.4604 68.7888C83.8889 80.0905 92.8441 90.4901 97.3258 99.9861C101.808 109.483 101.202 119.671 95.5085 130.553C89.0883 142.823 79.6024 150.172 67.0498 152.598C54.4978 155.026 40.8021 152.357 25.9631 144.593L25.963 144.592Z" fill="#7D2CE9"/>
</svg>
