<svg width="259" height="259" viewBox="0 0 259 259" fill="none" xmlns="http://www.w3.org/2000/svg">
<path d="M27.9235 108.045C30.2603 96.5502 44.1864 89.0315 64.8118 86.1685C84.1379 83.4859 109.74 84.6913 137.033 90.4186C164.332 96.1483 188.31 105.348 205.008 115.592C222.828 126.524 232.684 139.034 230.347 150.528C228.01 162.023 214.084 169.542 193.458 172.405C174.132 175.087 148.53 173.882 121.237 168.154L121.229 168.153C93.9351 162.424 69.959 153.224 53.261 142.981C35.441 132.049 25.5867 119.539 27.9236 108.045L27.9235 108.045ZM65.97 94.2015C48.8368 96.5799 37.4477 101.939 35.8674 109.712C34.2869 117.486 42.6537 126.99 57.457 136.071C73.3831 145.841 96.4391 154.656 122.846 160.199L122.854 160.2C149.26 165.742 173.867 166.931 192.3 164.372C209.433 161.993 220.822 156.634 222.402 148.861C223.983 141.088 215.615 131.583 200.812 122.501C184.885 112.731 161.827 103.916 135.42 98.3737C109.01 92.8316 84.4031 91.6425 65.9699 94.2014L65.97 94.2015Z" fill="#7D2CE9"/>
<path d="M149.74 27.9434C161.218 30.3525 168.8 44.358 171.775 65.0515C174.563 84.442 173.508 110.102 167.952 137.433C162.395 164.764 153.355 188.748 143.233 205.429C132.431 223.232 120.009 233.039 108.53 230.63C97.0511 228.221 89.4702 214.216 86.4951 193.521C83.7073 174.131 84.7619 148.471 90.3184 121.14C95.8762 93.8066 104.915 69.8235 115.037 53.1427C125.839 35.3402 138.261 25.5342 149.74 27.9433L149.74 27.9434ZM163.768 66.1663C161.297 48.9758 155.885 37.5271 148.122 35.8977C140.359 34.2684 130.926 42.6013 121.953 57.3893C112.299 73.299 103.639 96.3621 98.263 122.803C92.8863 149.25 91.8422 173.912 94.5013 192.407C96.9727 209.598 102.384 221.046 110.147 222.676C117.91 224.305 127.343 215.972 136.317 201.183C145.971 185.273 154.631 162.208 160.008 135.766C165.384 109.323 166.427 84.6609 163.768 66.1663Z" fill="#7D2CE9"/>
<path fill-rule="evenodd" clip-rule="evenodd" d="M47.9734 162.728L67.6557 65.924C70.2279 53.2734 82.6685 45.0929 95.3023 47.7449L191.981 68.0352C204.615 70.6866 212.847 83.2063 210.275 95.8561L190.592 192.661C188.021 205.311 175.58 213.491 162.946 210.84L66.2672 190.549C53.6338 187.898 45.4015 175.378 47.9734 162.728Z" fill="#6112CA"/>
<path d="M158.434 169.432C144.622 178.515 130.529 182.421 116.157 181.154C115.968 181.138 115.779 181.118 115.59 181.102C114.869 181.036 112.439 180.255 112.703 177.558C112.72 177.385 112.741 177.213 112.761 177.04C113.34 171.905 113.919 166.768 114.498 161.634C114.528 161.363 114.559 161.092 114.59 160.82C114.843 158.542 116.621 158.007 117.774 158.042C117.974 158.049 118.173 158.061 118.373 158.07C129.146 158.506 138.723 155.97 147.101 150.461C153.173 146.468 154.954 142.562 152.443 138.743C151.338 137.063 149.51 136.267 146.96 136.358C144.41 136.448 140.077 137.629 133.96 139.901C128.348 141.95 123.603 143.456 119.725 144.419C115.846 145.383 111.793 145.915 107.564 146.015C103.335 146.116 99.5454 145.188 96.1947 143.234C92.8441 141.28 89.8377 138.279 87.1757 134.23C82.203 126.668 80.9368 118.666 83.3767 110.223C85.8164 101.781 91.7427 94.4648 101.155 88.2754C113.211 80.3483 125.446 76.6407 137.86 77.1544C138.748 77.3278 140.915 77.8749 140.857 80.4129L140.322 97.4176C140.289 98.2749 139.828 98.9771 139.383 99.4055C138.59 100.168 137.571 100.269 137.166 100.292C127.614 100.821 119.447 102.671 112.715 107.097C110.135 108.794 108.488 110.588 107.774 112.479C107.061 114.371 107.231 116.119 108.286 117.723C109.492 119.557 111.376 120.396 113.939 120.243C116.502 120.089 120.918 118.826 127.186 116.455C138.662 112.082 148.067 110.138 155.398 110.623C162.731 111.109 168.757 114.941 173.478 122.121C178.802 130.218 180.074 138.518 177.293 147.02C174.513 155.523 168.226 162.994 158.434 169.432L158.434 169.432Z" fill="#7D2CE9"/>
</svg>
