<svg width="241" height="338" viewBox="0 0 241 338" fill="none" xmlns="http://www.w3.org/2000/svg">
<path d="M-59.5627 140.99C-56.5133 125.99 -38.3409 116.179 -11.4264 112.443C13.7925 108.942 47.2012 110.515 82.817 117.989C118.439 125.466 149.728 137.471 171.518 150.838C194.772 165.104 207.633 181.427 204.583 196.427C201.534 211.426 183.361 221.238 156.447 224.974C131.228 228.474 97.8193 226.902 62.2034 219.428L62.1931 219.426C26.5772 211.95 -4.70975 199.944 -26.4993 186.578C-49.7529 172.313 -62.6119 155.988 -59.5625 140.99L-59.5627 140.99ZM-9.91508 122.925C-32.2725 126.029 -47.1343 133.022 -49.1965 143.166C-51.2589 153.309 -40.341 165.712 -21.0239 177.562C-0.241524 190.311 29.8447 201.814 64.3032 209.046L64.3135 209.048C98.7717 216.279 130.881 217.831 154.935 214.492C177.293 211.388 192.154 204.395 194.217 194.251C196.279 184.108 185.36 171.705 166.042 159.854C145.259 147.105 115.171 135.602 80.7116 128.37C46.2483 121.138 14.1386 119.586 -9.91519 122.925L-9.91508 122.925Z" fill="#7D2CE9"/>
<path d="M99.3976 36.4638C114.376 39.6075 124.269 57.8835 128.152 84.8868C131.79 110.19 130.413 143.674 123.163 179.339C115.912 215.003 104.115 246.301 90.9072 268.069C76.8116 291.299 60.6008 304.097 45.6221 300.953C30.6433 297.809 20.7508 279.534 16.8685 252.53C13.2307 227.227 14.6068 193.742 21.8576 158.077C29.1101 122.41 40.9056 91.1138 54.1133 69.3467C68.2089 46.116 84.419 33.32 99.3978 36.4637L99.3976 36.4638ZM117.704 86.3415C114.479 63.9093 107.417 48.9697 97.287 46.8434C87.1568 44.7173 74.8476 55.591 63.1384 74.8882C50.5411 95.6492 39.2404 125.745 32.2247 160.248C25.2085 194.759 23.846 226.941 27.3159 251.075C30.541 273.508 37.602 288.447 47.7323 290.574C57.8625 292.7 70.1724 281.826 81.8819 262.527C94.4799 241.766 105.781 211.668 112.797 177.163C119.812 142.658 121.173 110.475 117.704 86.3415Z" fill="#7D2CE9"/>
<path fill-rule="evenodd" clip-rule="evenodd" d="M-33.3986 212.347L-7.71479 86.0254C-4.35835 69.5173 11.8757 58.8425 28.3617 62.3031L154.52 88.7803C171.005 92.2402 181.748 108.577 178.392 125.084L152.708 251.406C149.352 267.914 133.118 278.589 116.631 275.129L-9.52664 248.651C-26.0122 245.191 -36.7548 228.854 -33.3986 212.347Z" fill="#6112CA"/>
<path d="M110.743 221.095C92.7187 232.947 74.3291 238.045 55.5738 236.391C55.3279 236.37 55.081 236.345 54.8347 236.323C53.8933 236.237 50.722 235.219 51.0671 231.699C51.0887 231.473 51.1171 231.248 51.1429 231.023C51.8979 224.322 52.6536 217.619 53.4091 210.919C53.4484 210.566 53.4885 210.211 53.5291 209.857C53.8595 206.884 56.1803 206.186 57.6839 206.232C57.9449 206.241 58.2054 206.257 58.4653 206.268C72.5244 206.838 85.021 203.528 95.9535 196.339C103.877 191.129 106.202 186.032 102.925 181.048C101.483 178.855 99.0975 177.818 95.77 177.936C92.442 178.054 86.7873 179.595 78.8051 182.559C71.4829 185.232 65.2906 187.198 60.2303 188.456C55.169 189.713 49.8792 190.407 44.3614 190.537C38.8425 190.669 33.8975 189.458 29.5251 186.909C25.1528 184.358 21.2297 180.442 17.756 175.159C11.267 165.291 9.61477 154.849 12.7986 143.832C15.9822 132.815 23.7155 123.269 35.9982 115.192C51.7296 104.848 67.6959 100.01 83.8948 100.68C85.0531 100.906 87.881 101.62 87.8051 104.932L87.1073 127.122C87.0645 128.241 86.4633 129.157 85.8821 129.716C84.8472 130.711 83.5181 130.843 82.9893 130.873C70.5252 131.563 59.8673 133.977 51.0832 139.753C47.7159 141.967 45.5669 144.308 44.6351 146.776C43.7047 149.245 43.9267 151.525 45.3034 153.619C46.8766 156.011 49.3354 157.107 52.6802 156.907C56.0239 156.706 61.7863 155.059 69.9665 151.965C84.942 146.257 97.2139 143.721 106.781 144.354C116.349 144.988 124.213 149.989 130.374 159.358C137.321 169.924 138.981 180.754 135.352 191.85C131.724 202.945 123.52 212.694 110.743 221.095L110.743 221.095Z" fill="#7D2CE9"/>
</svg>
