<svg width="329" height="329" viewBox="0 0 329 329" fill="none" xmlns="http://www.w3.org/2000/svg">
<path d="M133.269 35.5263C147.853 31.9421 164.176 43.9482 178.775 66.2563C192.454 87.1592 205.066 117.454 213.37 152.181C221.673 186.914 224.143 219.703 221.422 244.636C218.518 271.245 209.43 289.497 194.846 293.081C180.262 296.666 163.939 284.659 149.34 262.351C135.661 241.448 123.049 211.154 114.745 176.427L114.743 176.417C106.441 141.689 103.972 108.902 106.693 83.9695C109.597 57.3612 118.687 39.1099 133.269 35.5264L133.269 35.5263ZM170.11 71.9921C157.983 53.4611 145.548 43.2102 135.685 45.6339C125.823 48.0574 119.399 62.9425 116.986 85.0463C114.391 108.827 116.802 140.338 124.835 173.937L124.837 173.947C132.871 207.545 144.957 236.678 158.005 256.615C170.132 275.146 182.567 285.397 192.429 282.973C202.291 280.55 208.715 265.664 211.128 243.559C213.723 219.778 211.311 188.265 203.279 154.665C195.244 121.062 183.157 91.9288 170.11 71.9919L170.11 71.9921Z" fill="#7D2CE9"/>
<path d="M292.639 132.706C296.13 147.311 284.067 163.75 261.741 178.516C240.821 192.352 210.542 205.171 175.865 213.692C141.189 222.213 108.48 224.873 83.6333 222.283C57.1164 219.52 38.9674 210.506 35.4757 195.9C31.984 181.295 44.0474 164.858 66.374 150.091C87.2938 136.255 117.573 123.437 152.25 114.915C186.93 106.393 219.637 103.735 244.483 106.324C271 109.087 289.147 118.101 292.639 132.706L292.639 132.706ZM256.07 169.858C274.616 157.591 284.908 145.064 282.546 135.186C280.185 125.309 265.378 118.949 243.351 116.653C219.653 114.183 188.219 116.778 154.671 125.021C121.117 133.267 91.9975 145.552 72.0446 158.749C53.4974 171.016 43.2062 183.543 45.5675 193.42C47.929 203.298 62.7363 209.658 84.7645 211.954C108.463 214.424 139.9 211.829 173.449 203.585C206.998 195.34 236.117 183.054 256.07 169.858Z" fill="#7D2CE9"/>
<path fill-rule="evenodd" clip-rule="evenodd" d="M80.9406 88.652L203.763 58.4704C219.814 54.5261 236.09 64.4508 239.932 80.5258L269.342 203.536C273.185 219.61 263.197 235.989 247.147 239.933L124.324 270.115C108.274 274.059 91.9982 264.135 88.155 248.059L58.7461 125.049C54.9032 108.975 64.8909 92.596 80.9406 88.652Z" fill="#6112CA"/>
<path d="M133.617 220.18C115.547 209.161 103.315 194.986 96.918 177.656C96.8338 177.429 96.7525 177.199 96.6688 176.971C96.3503 176.1 95.9237 172.86 99.1903 171.691C99.3999 171.615 99.6115 171.546 99.8219 171.474C106.082 169.335 112.346 167.194 118.606 165.055C118.935 164.942 119.266 164.829 119.597 164.717C122.374 163.763 123.966 165.529 124.555 166.882C124.657 167.117 124.752 167.355 124.851 167.591C130.24 180.3 138.416 189.998 149.376 196.682C157.32 201.526 162.816 201.451 165.863 196.454C167.204 194.255 167.124 191.705 165.624 188.803C164.124 185.9 160.387 181.53 154.41 175.692C148.969 170.318 144.629 165.649 141.392 161.688C138.154 157.725 135.32 153.324 132.891 148.484C130.461 143.644 129.461 138.749 129.89 133.802C130.319 128.854 132.148 123.732 135.377 118.436C141.41 108.542 149.98 102.698 161.088 100.903C172.195 99.1082 183.906 101.965 196.22 109.474C211.992 119.092 222.978 131.226 229.175 145.876C229.46 146.999 230.013 149.807 227.043 151.128L207.067 159.813C206.057 160.244 204.992 160.095 204.252 159.814C202.935 159.313 202.261 158.189 202.013 157.732C196.175 146.966 189.565 138.524 180.758 133.153C177.382 131.095 174.404 130.17 171.825 130.378C169.245 130.588 167.315 131.741 166.035 133.84C164.572 136.239 164.632 138.879 166.212 141.762C167.791 144.644 171.669 149.065 177.843 155.024C189.185 165.915 196.581 175.737 200.03 184.489C203.48 193.243 202.341 202.315 196.612 211.709C190.153 222.301 181.242 228.314 169.878 229.747C158.515 231.181 146.428 227.992 133.617 220.18L133.617 220.18Z" fill="#7D2CE9"/>
</svg>
