<svg width="171" height="312" viewBox="0 0 171 312" fill="none" xmlns="http://www.w3.org/2000/svg">
<path d="M33.7723 214.007C27.0718 200.163 35.6173 181.253 54.8498 161.872C72.8707 143.712 100.527 124.618 133.541 108.895C166.563 93.17 198.88 83.7037 224.436 81.1123C251.709 78.347 271.93 83.5579 278.63 97.4022C285.33 111.246 276.785 130.157 257.552 149.538C239.531 167.698 211.875 186.792 178.861 202.515L178.851 202.519C145.836 218.241 113.52 227.706 87.9645 230.297C60.6921 233.063 40.4717 227.85 33.7723 214.007L33.7723 214.007ZM62.443 169.328C46.4669 185.427 38.8505 200.069 43.3816 209.432C47.9124 218.794 64.1926 222.055 86.8481 219.757C111.222 217.285 142.272 208.15 174.215 192.939L174.224 192.935C206.166 177.723 232.771 159.403 249.959 142.082C265.935 125.983 273.551 111.341 269.02 101.978C264.489 92.6163 248.208 89.3559 225.552 91.6531C201.177 94.1253 170.126 103.261 138.182 118.473C106.236 133.687 79.6309 152.007 62.4428 169.328L62.443 169.328Z" fill="#7D2CE9"/>
<path d="M97.1296 33.6452C111.015 27.0329 130.053 35.6116 149.605 54.8257C167.926 72.8302 187.224 100.427 203.155 133.345C219.085 166.262 228.724 198.459 231.429 223.9C234.316 251.051 229.157 271.153 215.272 277.765C201.387 284.377 182.349 275.799 162.796 256.584C144.476 238.579 125.178 210.982 109.247 178.065C93.3154 145.144 83.6773 112.949 80.9724 87.5083C78.0855 60.3574 83.2447 40.2572 97.1297 33.6449L97.1296 33.6452ZM142.142 62.3525C125.9 46.391 111.157 38.7537 101.766 43.2255C92.3753 47.6974 89.1625 63.8852 91.5603 86.439C94.1401 110.704 103.442 141.638 118.854 173.484C134.269 205.337 152.785 231.885 170.259 249.057C186.502 265.02 201.245 272.657 210.635 268.185C220.026 263.713 223.239 247.525 220.841 224.97C218.261 200.704 208.958 169.768 193.546 137.921C178.132 106.073 159.616 79.5254 142.142 62.3525Z" fill="#7D2CE9"/>
<path fill-rule="evenodd" clip-rule="evenodd" d="M98.1474 255.097L41.7222 138.503C34.3484 123.267 40.819 104.847 56.1015 97.5697L173.047 41.8782C188.329 34.6008 206.866 41.1125 214.239 56.3482L270.664 172.942C278.038 188.178 271.568 206.598 256.285 213.876L139.339 269.567C124.057 276.844 105.521 270.332 98.1474 255.097Z" fill="#6112CA"/>
<path d="M218.667 174.282C211.483 194.732 199.893 210.008 183.897 220.112C183.688 220.244 183.475 220.375 183.265 220.507C182.46 221.012 179.306 222.13 177.438 219.108C177.317 218.914 177.203 218.717 177.086 218.521C173.608 212.706 170.128 206.889 166.651 201.075C166.467 200.769 166.283 200.461 166.1 200.153C164.553 197.576 165.983 195.604 167.212 194.725C167.426 194.573 167.644 194.428 167.858 194.278C179.44 186.169 187.411 175.912 191.768 163.507C194.927 154.517 193.679 149.028 188.024 147.041C185.536 146.167 182.998 146.791 180.411 148.913C177.823 151.034 174.243 155.71 169.67 162.941C165.447 169.538 161.696 174.881 158.418 178.968C155.14 183.056 151.335 186.833 147.005 190.299C142.675 193.766 137.986 195.81 132.938 196.437C127.891 197.062 122.37 196.322 116.376 194.216C105.179 190.283 97.498 182.945 93.3313 172.202C89.1644 161.459 89.5289 149.119 94.4245 135.182C100.695 117.333 110.507 103.741 123.86 94.4085C124.924 93.8837 127.618 92.7316 129.575 95.4245L142.535 113.582C143.182 114.502 143.26 115.601 143.136 116.401C142.915 117.827 141.933 118.742 141.529 119.088C131.989 127.232 124.942 135.654 121.441 145.62C120.099 149.441 119.808 152.621 120.566 155.161C121.327 157.7 122.893 159.387 125.269 160.222C127.983 161.176 130.615 160.553 133.166 158.356C135.716 156.159 139.318 151.332 143.97 143.876C152.461 130.193 160.722 120.69 168.754 115.369C176.786 110.046 186.116 109.253 196.748 112.987C208.736 117.198 216.659 124.842 220.518 135.92C224.377 146.997 223.76 159.784 218.667 174.282L218.667 174.282Z" fill="#7D2CE9"/>
</svg>
