<svg width="263" height="262" viewBox="0 0 263 262" fill="none" xmlns="http://www.w3.org/2000/svg">
<path d="M28.3673 179.768C22.7389 168.138 29.9172 152.253 46.0726 135.973C61.2103 120.719 84.4415 104.68 112.174 91.4722C139.912 78.2633 167.059 70.3116 188.526 68.1348C211.435 65.8119 228.421 70.1891 234.049 81.8184C239.678 93.4471 232.499 109.333 216.344 125.613C201.206 140.867 177.975 156.906 150.243 170.114L150.235 170.118C122.501 183.324 95.3556 191.274 73.8892 193.451C50.9802 195.774 33.9949 191.396 28.3674 179.767L28.3673 179.768ZM52.4509 142.237C39.031 155.76 32.6331 168.059 36.4392 175.924C40.2452 183.788 53.9206 186.527 72.9514 184.597C93.4256 182.521 119.508 174.848 146.34 162.07L146.348 162.066C173.179 149.288 195.527 133.9 209.965 119.35C223.385 105.826 229.783 93.5268 225.977 85.6625C222.171 77.7982 208.495 75.0595 189.463 76.9891C168.988 79.0658 142.905 86.7402 116.072 99.5178C89.2374 112.298 66.8889 127.687 52.4508 142.237L52.4509 142.237Z" fill="#7D2CE9"/>
<path d="M81.5879 28.2621C93.2514 22.7078 109.244 29.9139 125.668 46.0539C141.057 61.1778 157.268 84.3593 170.65 112.01C184.031 139.661 192.128 166.707 194.4 188.077C196.825 210.884 192.492 227.77 180.828 233.324C169.165 238.879 153.173 231.673 136.748 215.532C121.359 200.408 105.149 177.227 91.7665 149.575C78.384 121.922 70.2879 94.8775 68.0158 73.5075C65.5907 50.7005 69.9245 33.8162 81.588 28.2619L81.5879 28.2621ZM119.399 52.3765C105.755 38.9686 93.3707 32.5533 85.4824 36.3096C77.5943 40.066 74.8955 53.6639 76.9097 72.6093C79.0767 92.9916 86.8905 118.976 99.8363 145.728C112.786 172.484 128.339 194.785 143.017 209.21C156.661 222.618 169.045 229.034 176.934 225.277C184.822 221.521 187.521 207.922 185.506 188.976C183.339 168.593 175.525 142.607 162.578 115.854C149.631 89.1019 134.077 66.8018 119.399 52.3765Z" fill="#7D2CE9"/>
<path fill-rule="evenodd" clip-rule="evenodd" d="M82.4444 214.283L35.0469 116.344C28.8529 103.545 34.2882 88.0718 47.1257 81.959L145.361 35.1778C158.198 29.0647 173.769 34.5345 179.962 47.3327L227.36 145.272C233.554 158.071 228.119 173.543 215.281 179.657L117.046 226.438C104.209 232.551 88.638 227.081 82.4444 214.283Z" fill="#6112CA"/>
<path d="M183.68 146.398C177.645 163.576 167.909 176.408 154.473 184.895C154.297 185.007 154.119 185.116 153.942 185.227C153.266 185.651 150.616 186.591 149.047 184.052C148.946 183.889 148.85 183.723 148.752 183.559C145.83 178.675 142.907 173.788 139.986 168.904C139.832 168.647 139.677 168.388 139.523 168.13C138.224 165.965 139.425 164.309 140.457 163.571C140.637 163.443 140.82 163.32 141 163.195C150.729 156.383 157.424 147.767 161.085 137.347C163.738 129.795 162.69 125.184 157.94 123.516C155.85 122.781 153.718 123.305 151.545 125.088C149.371 126.87 146.363 130.797 142.522 136.872C138.975 142.413 135.824 146.901 133.07 150.334C130.316 153.769 127.121 156.941 123.483 159.852C119.846 162.764 115.907 164.482 111.667 165.008C107.427 165.533 102.79 164.912 97.7547 163.143C88.3493 159.839 81.8971 153.675 78.397 144.651C74.8968 135.626 75.2029 125.261 79.3153 113.554C84.5823 98.5603 92.8244 87.1427 104.041 79.3037C104.935 78.8629 107.198 77.8951 108.842 80.1572L119.728 95.4097C120.272 96.1826 120.337 97.1053 120.233 97.7779C120.048 98.9756 119.223 99.7443 118.883 100.035C110.869 106.876 104.95 113.95 102.009 122.322C100.882 125.531 100.637 128.203 101.275 130.336C101.913 132.469 103.229 133.886 105.225 134.587C107.505 135.388 109.716 134.866 111.859 133.02C114.001 131.174 117.026 127.12 120.934 120.857C128.066 109.363 135.006 101.381 141.752 96.9103C148.499 92.4396 156.337 91.7728 165.267 94.9099C175.337 98.4473 181.993 104.868 185.234 114.173C188.477 123.478 187.958 134.22 183.68 146.398L183.68 146.398Z" fill="#7D2CE9"/>
</svg>
