<svg width="167" height="176" viewBox="0 0 167 176" fill="none" xmlns="http://www.w3.org/2000/svg">
<path d="M166.707 7.29289C167.098 7.68342 167.098 8.31658 166.707 8.70711L160.343 15.0711C159.953 15.4616 159.319 15.4616 158.929 15.0711C158.538 14.6805 158.538 14.0474 158.929 13.6569L164.586 8L158.929 2.34315C158.538 1.95263 158.538 1.31946 158.929 0.928937C159.319 0.538412 159.953 0.538412 160.343 0.928936L166.707 7.29289ZM0.968811 174C44.8341 172.632 72.5477 161.553 90.5949 145.835C108.648 130.112 117.16 109.634 122.397 89.1918C125.017 78.9667 126.81 68.7828 128.577 59.2099C130.34 49.6587 132.081 40.6972 134.597 33.0102C137.112 25.3246 140.433 18.8083 145.425 14.2147C150.446 9.59368 157.067 7.00001 166 7L166 9C157.492 9.00001 151.378 11.4534 146.779 15.6863C142.15 19.9465 138.965 26.0908 136.497 33.6323C134.03 41.1724 132.31 50.0045 130.544 59.5729C128.781 69.1197 126.975 79.3816 124.334 89.6882C119.051 110.309 110.399 131.238 91.9084 147.343C73.412 163.452 45.2028 174.621 1.03119 176L0.968811 174Z" fill="#4EC2F0"/>
</svg>
