<svg width="166" height="65" viewBox="0 0 166 65" fill="none" xmlns="http://www.w3.org/2000/svg">
<path d="M165.707 7.29289C166.098 7.68342 166.098 8.31658 165.707 8.70711L159.343 15.0711C158.953 15.4616 158.319 15.4616 157.929 15.0711C157.538 14.6805 157.538 14.0474 157.929 13.6569L163.586 8L157.929 2.34315C157.538 1.95262 157.538 1.31946 157.929 0.928934C158.319 0.538409 158.953 0.538409 159.343 0.928934L165.707 7.29289ZM0 63C34.5459 63 57.6896 59.5051 74.0646 54.297C90.4127 49.0975 100.047 42.1804 107.57 35.2639C111.36 31.779 114.583 28.326 117.929 25.0087C121.254 21.7114 124.656 18.5952 128.7 15.9164C136.825 10.5339 147.411 7 165 7L165 9C147.707 9 137.529 12.4661 129.805 17.5837C125.924 20.1548 122.63 23.1636 119.337 26.4289C116.064 29.674 112.747 33.221 108.923 36.7361C101.219 43.8196 91.3365 50.9025 74.6707 56.203C58.0319 61.4949 34.6656 65 0 65V63Z" fill="#4EC2F0"/>
</svg>
