<svg width="166" height="74" viewBox="0 0 166 74" fill="none" xmlns="http://www.w3.org/2000/svg">
<path d="M165.707 66.7071C166.098 66.3166 166.098 65.6834 165.707 65.2929L159.343 58.9289C158.953 58.5384 158.319 58.5384 157.929 58.9289C157.538 59.3195 157.538 59.9526 157.929 60.3431L163.586 66L157.929 71.6569C157.538 72.0474 157.538 72.6805 157.929 73.0711C158.319 73.4616 158.953 73.4616 159.343 73.0711L165.707 66.7071ZM0 2C34.535 2 57.6625 6.05528 74.0213 12.0944C90.3534 18.1236 99.9866 26.1472 107.517 34.1837C111.308 38.2299 114.535 42.2424 117.878 46.0895C121.201 49.9138 124.601 53.5282 128.643 56.6365C136.773 62.8883 147.38 67 165 67L165 65C147.737 65 137.581 60.9867 129.862 55.051C125.979 52.0655 122.683 48.5706 119.388 44.7777C116.112 41.0075 112.798 36.895 108.976 32.8162C101.28 24.6027 91.3957 16.3764 74.714 10.2181C58.059 4.06971 34.6764 0 0 0V2Z" fill="#4EC2F0"/>
</svg>
