<svg width="166" height="192" viewBox="0 0 166 192" fill="none" xmlns="http://www.w3.org/2000/svg">
<path d="M165.707 184.707C166.098 184.317 166.098 183.683 165.707 183.293L159.343 176.929C158.953 176.538 158.319 176.538 157.929 176.929C157.538 177.319 157.538 177.953 157.929 178.343L163.586 184L157.929 189.657C157.538 190.047 157.538 190.681 157.929 191.071C158.319 191.462 158.953 191.462 159.343 191.071L165.707 184.707ZM0 2C34.3532 2 57.3417 13.3403 73.647 30.2871C89.9927 47.2757 99.6949 69.972 107.298 92.8158C111.1 104.241 114.359 115.642 117.677 126.393C120.988 137.12 124.352 147.183 128.344 155.826C132.335 164.465 136.984 171.756 142.902 176.892C148.846 182.05 156.033 185 165 185L165 183C156.525 183 149.801 180.231 144.213 175.381C138.598 170.509 134.094 163.504 130.16 154.987C126.228 146.474 122.896 136.52 119.588 125.803C116.288 115.108 113.006 103.634 109.195 92.1842C101.572 69.278 91.7565 46.2243 75.0883 28.9004C58.3798 11.5347 34.8582 0 0 0V2Z" fill="#4EC2F0"/>
</svg>
