<svg width="166" height="301" viewBox="0 0 166 301" fill="none" xmlns="http://www.w3.org/2000/svg">
<path d="M165.707 293.707C166.098 293.317 166.098 292.683 165.707 292.293L159.343 285.929C158.953 285.538 158.319 285.538 157.929 285.929C157.538 286.319 157.538 286.953 157.929 287.343L163.586 293L157.929 298.657C157.538 299.047 157.538 299.681 157.929 300.071C158.319 300.462 158.953 300.462 159.343 300.071L165.707 293.707ZM0 2C34.1611 2 57.1308 19.976 73.5113 47.1414C89.9232 74.3587 99.6559 110.711 107.268 147.204C114.862 183.613 120.354 220.233 128.292 247.653C132.263 261.373 136.878 272.912 142.747 281.039C148.636 289.193 155.861 294 165 294L165 292C156.697 292 150.011 287.682 144.368 279.868C138.704 272.025 134.166 260.752 130.213 247.097C122.301 219.767 116.858 183.387 109.226 146.796C101.611 110.289 91.826 73.6412 75.224 46.1086C58.5907 18.524 35.0503 0 0 0V2Z" fill="#4EC2F0"/>
</svg>
