<svg width="166" height="428" viewBox="0 0 166 428" fill="none" xmlns="http://www.w3.org/2000/svg">
<path d="M165.707 420.707C166.098 420.317 166.098 419.683 165.707 419.293L159.343 412.929C158.953 412.538 158.319 412.538 157.929 412.929C157.538 413.319 157.538 413.953 157.929 414.343L163.586 420L157.929 425.657C157.538 426.047 157.538 426.681 157.929 427.071C158.319 427.462 158.953 427.462 159.343 427.071L165.707 420.707ZM0 2C33.97 2 56.9784 27.6691 73.4458 66.8561C89.8982 106.008 99.6437 158.268 107.257 210.644C114.861 262.953 120.341 315.415 128.272 354.729C132.238 374.388 136.835 390.864 142.664 402.446C148.473 413.987 155.684 421 165 421L165 419C156.875 419 150.174 412.919 144.451 401.547C138.747 390.214 134.191 373.956 130.233 354.333C122.315 315.085 116.859 262.797 109.236 210.356C101.623 157.981 91.8509 105.492 75.2896 66.0813C58.7431 26.7059 35.2414 0 0 0V2Z" fill="#4EC2F0"/>
</svg>
