<svg width="24" height="29" viewBox="0 0 24 29" fill="none" xmlns="http://www.w3.org/2000/svg">
<path fill-rule="evenodd" clip-rule="evenodd" d="M23.4016 24.6004C23.4016 23.6061 22.5958 22.8004 21.6016 22.8004H3.60156C1.94496 22.8004 0.601562 24.1437 0.601562 25.8004C0.601562 25.8004 0.601562 26.1316 0.601562 25.8004C0.601562 27.4571 1.94496 28.8004 3.60156 28.8004C8.21316 28.8004 18.1606 28.8004 21.6016 28.8004C22.5958 28.8004 23.4016 27.9947 23.4016 27.0004V24.6004ZM22.2016 24.6004V27.0004C22.2016 27.3316 21.9328 27.6004 21.6016 27.6004H3.60156C2.60736 27.6004 1.80156 26.7947 1.80156 25.8004C1.80156 26.1316 1.80156 25.8004 1.80156 25.8004C1.80156 24.8061 2.60736 24.0004 3.60156 24.0004H21.6016C21.9328 24.0004 22.2016 24.2692 22.2016 24.6004Z" fill="black"/>
<path fill-rule="evenodd" clip-rule="evenodd" d="M3.6 26.4H20.4C20.7312 26.4 21 26.1312 21 25.8C21 25.4688 20.7312 25.2 20.4 25.2H3.6C3.2688 25.2 3 25.4688 3 25.8C3 26.1312 3.2688 26.4 3.6 26.4Z" fill="black"/>
<path fill-rule="evenodd" clip-rule="evenodd" d="M16.2004 22.2C16.2004 21.2059 15.3946 20.4 14.4004 20.4H9.60078C8.60663 20.4 7.80078 21.2059 7.80078 22.2C7.80078 22.8 7.80078 23.4 7.80078 23.4C7.80078 23.7312 8.0694 24 8.4006 24H15.6006C15.9318 24 16.2004 23.7312 16.2004 23.4V22.2ZM15.0008 22.2V22.8H9.00041V22.2C9.00041 21.8688 9.26903 21.6 9.60078 21.6H14.4004C14.7322 21.6 15.0008 21.8688 15.0008 22.2Z" fill="black"/>
<path fill-rule="evenodd" clip-rule="evenodd" d="M12.5984 21V5.40005C12.5984 5.06885 12.3296 4.80005 11.9984 4.80005C11.6672 4.80005 11.3984 5.06885 11.3984 5.40005V21C11.3984 21.3312 11.6672 21.6 11.9984 21.6C12.3296 21.6 12.5984 21.3312 12.5984 21Z" fill="black"/>
<path fill-rule="evenodd" clip-rule="evenodd" d="M11.9992 0C11.9992 0 11.8534 0 11.9992 0C11.005 0 10.1992 0.8058 10.1992 1.8V4.2C10.1992 5.1942 11.005 6 11.9992 6C12.9934 6 13.7992 5.1942 13.7992 4.2V1.8C13.7992 0.8058 12.9934 0 11.9992 0ZM11.9992 4.8C11.668 4.8 11.3992 4.5312 11.3992 4.2V1.8C11.3992 1.4688 11.668 1.2 11.9992 1.2C12.3304 1.2 12.5992 1.4688 12.5992 1.8V4.2C12.5992 4.5312 12.3304 4.8 11.9992 4.8Z" fill="black"/>
<path fill-rule="evenodd" clip-rule="evenodd" d="M1.20156 9.00005H4.80156C5.27916 9.00005 5.73696 8.81045 6.07416 8.47265C6.41196 8.13545 6.60156 7.67765 6.60156 7.20005V6.60005C6.60156 6.44105 6.66456 6.28805 6.77736 6.17585C6.88956 6.06305 7.04256 6.00005 7.20156 6.00005H16.8016C16.9606 6.00005 17.1136 6.06305 17.2258 6.17585C17.3386 6.28805 17.4016 6.44105 17.4016 6.60005V7.20005C17.4016 7.67765 17.5912 8.13545 17.929 8.47265C18.2662 8.81045 18.724 9.00005 19.2016 9.00005H22.8016C23.1328 9.00005 23.4016 8.73125 23.4016 8.40005C23.4016 8.06885 23.1328 7.80005 22.8016 7.80005H19.2016C19.0426 7.80005 18.8896 7.73705 18.7774 7.62425C18.6646 7.51205 18.6016 7.35905 18.6016 7.20005V6.60005C18.6016 6.12245 18.412 5.66465 18.0742 5.32745C17.737 4.98965 17.2792 4.80005 16.8016 4.80005C14.5024 4.80005 9.50076 4.80005 7.20156 4.80005C6.72396 4.80005 6.26616 4.98965 5.92896 5.32745C5.59116 5.66465 5.40156 6.12245 5.40156 6.60005V7.20005C5.40156 7.35905 5.33856 7.51205 5.22576 7.62425C5.11356 7.73705 4.96056 7.80005 4.80156 7.80005H1.20156C0.870362 7.80005 0.601562 8.06885 0.601562 8.40005C0.601562 8.73125 0.870362 9.00005 1.20156 9.00005Z" fill="black"/>
<path fill-rule="evenodd" clip-rule="evenodd" d="M4.3956 8.06165C4.2834 7.89785 4.098 7.80005 3.9 7.80005C3.702 7.80005 3.5166 7.89785 3.4044 8.06165C3.4044 8.06165 1.7562 10.4754 0.7668 12.648C0.309 13.6536 0 14.616 0 15.3C0 17.4522 1.7478 19.2 3.9 19.2C6.0522 19.2 7.8 17.4522 7.8 15.3C7.8 14.616 7.491 13.6536 7.0332 12.648C6.0438 10.4754 4.3956 8.06165 4.3956 8.06165ZM3.9 9.49385C4.4454 10.3476 5.3262 11.7948 5.9412 13.1454C6.315 13.9662 6.6 14.742 6.6 15.3C6.6 16.7904 5.3904 18 3.9 18C2.4096 18 1.2 16.7904 1.2 15.3C1.2 14.742 1.485 13.9662 1.8588 13.1454C2.4738 11.7948 3.3546 10.3476 3.9 9.49385Z" fill="black"/>
<path fill-rule="evenodd" clip-rule="evenodd" d="M20.5948 8.06165C20.4826 7.89785 20.2972 7.80005 20.0992 7.80005C19.9012 7.80005 19.7158 7.89785 19.6036 8.06165C19.6036 8.06165 17.9554 10.4754 16.966 12.648C16.5082 13.6536 16.1992 14.616 16.1992 15.3C16.1992 17.4522 17.947 19.2 20.0992 19.2C22.2514 19.2 23.9992 17.4522 23.9992 15.3C23.9992 14.616 23.6902 13.6536 23.2324 12.648C22.243 10.4754 20.5948 8.06165 20.5948 8.06165ZM20.0992 9.49385C20.6446 10.3476 21.5254 11.7948 22.1404 13.1454C22.5142 13.9662 22.7992 14.742 22.7992 15.3C22.7992 16.7904 21.5896 18 20.0992 18C18.6088 18 17.3992 16.7904 17.3992 15.3C17.3992 14.742 17.6842 13.9662 18.058 13.1454C18.673 11.7948 19.5538 10.3476 20.0992 9.49385Z" fill="black"/>
<path fill-rule="evenodd" clip-rule="evenodd" d="M0.900781 15H6.90078C7.23198 15 7.50078 14.7312 7.50078 14.4C7.50078 14.0688 7.23198 13.8 6.90078 13.8H0.900781C0.569581 13.8 0.300781 14.0688 0.300781 14.4C0.300781 14.7312 0.569581 15 0.900781 15Z" fill="black"/>
<path fill-rule="evenodd" clip-rule="evenodd" d="M17.1 15H23.1C23.4312 15 23.7 14.7312 23.7 14.4C23.7 14.0688 23.4312 13.8 23.1 13.8H17.1C16.7688 13.8 16.5 14.0688 16.5 14.4C16.5 14.7312 16.7688 15 17.1 15Z" fill="black"/>
</svg>
