<svg width="24" height="28" viewBox="0 0 24 28" fill="none" xmlns="http://www.w3.org/2000/svg">
<path d="M11.6 27.2C9.92 27.2 8.8 26.56 8.8 25.6V15.2C8.8 14.76 9.16 14.4 9.6 14.4H10.8V12.4C10.8 11.08 11.88 10 13.2 10H17.6C18.4 10 19.12 9.52 19.44 8.8H2.8C1.2 8.8 0 6.92 0 4.4C0 1.88 1.2 0 2.8 0C2.88 0 2.96 0 3.04 0C3.08 0 3.16 0 3.2 0H21.2C22.8 0 24 1.88 24 4.4C24 6.92 22.8 8.8 21.2 8.8H21.12C20.76 10.4 19.32 11.6 17.6 11.6H13.2C12.76 11.6 12.4 11.96 12.4 12.4V14.4H13.6C14.04 14.4 14.4 14.76 14.4 15.2V25.6C14.4 26.56 13.28 27.2 11.6 27.2ZM10.4 25.4C10.6 25.48 11 25.6 11.6 25.6C12.2 25.6 12.6 25.48 12.8 25.4V18.8H10.4V25.4ZM10.4 17.2H12.8V16H10.4V17.2ZM20.4 7.2H21.2C21.68 7.2 22.4 6.08 22.4 4.4C22.4 2.72 21.68 1.6 21.2 1.6H5C5.4 2.36 5.6 3.32 5.6 4.4C5.6 5.48 5.36 6.44 5 7.2H20.4ZM2.8 1.6C2.32 1.6 1.6 2.72 1.6 4.4C1.6 6.08 2.32 7.2 2.8 7.2C3.28 7.2 4 6.08 4 4.4C4 2.72 3.28 1.6 2.8 1.6ZM4 18C3.56 18 3.2 17.64 3.2 17.2V10.8C3.2 10.36 3.56 10 4 10C4.44 10 4.8 10.36 4.8 10.8V17.2C4.8 17.64 4.44 18 4 18ZM1.6 16C1.16 16 0.8 15.64 0.8 15.2V10.8C0.8 10.36 1.16 10 1.6 10C2.04 10 2.4 10.36 2.4 10.8V15.2C2.4 15.64 2.04 16 1.6 16ZM6.4 13.6C5.96 13.6 5.6 13.24 5.6 12.8V10.8C5.6 10.36 5.96 10 6.4 10C6.84 10 7.2 10.36 7.2 10.8V12.8C7.2 13.24 6.84 13.6 6.4 13.6ZM2.8 5.6C2.36 5.6 2 5.24 2 4.8V4C2 3.56 2.36 3.2 2.8 3.2C3.24 3.2 3.6 3.56 3.6 4V4.8C3.6 5.24 3.24 5.6 2.8 5.6ZM20 4.4H7.6C7.16 4.4 6.8 4.04 6.8 3.6C6.8 3.16 7.16 2.8 7.6 2.8H20C20.44 2.8 20.8 3.16 20.8 3.6C20.8 4.04 20.44 4.4 20 4.4Z" fill="black"/>
</svg>
