<svg width="15" height="24" viewBox="0 0 15 24" fill="none" xmlns="http://www.w3.org/2000/svg">
<path d="M9.04592 24.0001H5.49128L3.5 13.9925L4.27844 12.0812H10.2585L11.037 13.9925L9.04592 24.0001ZM6.1088 23.2477H8.42828L10.255 14.0671L9.75248 12.8337H4.78472L4.28216 14.0671L6.1088 23.2477Z" fill="black"/>
<path d="M11.4715 13.6539H9.87109V14.4063H11.4715V13.6539Z" fill="black"/>
<path d="M8.65558 13.6539H3.0625V14.4063H8.65558V13.6539Z" fill="black"/>
<path d="M11.0734 15.7217H9.5625V16.4741H11.0734V15.7217Z" fill="black"/>
<path d="M8.51678 15.7217H3.46094V16.4741H8.51678V15.7217Z" fill="black"/>
<path d="M10.6613 17.7894H9.15625V18.5418H10.6613V17.7894Z" fill="black"/>
<path d="M8.10757 17.7894H3.87109V18.5418H8.10757V17.7894Z" fill="black"/>
<path d="M10.2505 19.8584H8.75V20.6109H10.2505V19.8584Z" fill="black"/>
<path d="M7.70348 19.8584H4.28516V20.6109H7.70348V19.8584Z" fill="black"/>
<path d="M9.83979 21.9258H8.34375V22.6782H9.83979V21.9258Z" fill="black"/>
<path d="M7.29727 21.9258H4.69531V22.6782H7.29727V21.9258Z" fill="black"/>
<path d="M7.26889 3.1498C6.67765 3.1498 6.08773 3.0064 5.56321 2.73544L5.41897 2.65444C5.40721 2.64688 5.39617 2.63896 5.38357 2.63272L5.33629 2.60572C5.17429 2.51572 4.99261 2.44792 4.80469 2.40844L4.95877 1.67212C5.22073 1.72696 5.47381 1.8214 5.71045 1.95292L5.73337 1.96636C5.76469 1.98304 5.79445 2.00128 5.82433 2.02036L5.90329 2.06428C6.74977 2.50156 7.78981 2.49988 8.62957 2.0668L8.73301 2.00704C8.75533 1.9936 8.77777 1.9804 8.80021 1.96828L8.81773 1.95784C9.06157 1.822 9.31441 1.72768 9.57757 1.67212L9.73237 2.40844C9.54337 2.44828 9.36133 2.5162 9.19189 2.61064L9.16009 2.62888C9.14653 2.63608 9.13309 2.64436 9.11941 2.65252L8.96881 2.7382C8.44861 3.0064 7.85881 3.1498 7.26889 3.1498Z" fill="black"/>
<path d="M12.1054 12.8336H2.43408L2.35104 12.5708C2.16036 11.9671 2.06352 11.3161 2.06352 10.6362C2.06352 8.88684 1.50624 8.02464 1.0584 7.33188L1.01352 7.26192C0.63468 6.6732 5.50564e-09 5.51556 5.50564e-09 4.3728C-0.000119994 1.96176 1.9614 0 4.37244 0C5.1162 0 5.85024 0.19044 6.49536 0.5508C6.54696 0.57804 6.60216 0.61116 6.65796 0.645C7.0338 0.83496 7.50588 0.83496 7.88136 0.64488C7.94256 0.60792 7.99548 0.57624 8.05044 0.54708C8.68896 0.19044 9.423 0 10.1668 0C12.5779 0 14.5393 1.96176 14.5393 4.3728C14.5393 5.51556 13.9048 6.6732 13.5263 7.26168L13.4812 7.33152C13.0332 8.02428 12.4758 8.88648 12.4758 10.6362C12.4758 11.316 12.3791 11.9669 12.1883 12.5708L12.1054 12.8336ZM2.99292 12.0812H11.5462C11.6636 11.6256 11.7232 11.1408 11.7232 10.6362C11.7232 8.6646 12.374 7.65804 12.8491 6.92304L12.8935 6.85452C13.162 6.43704 13.7868 5.35896 13.7868 4.37292C13.7868 2.3766 12.1627 0.75252 10.1666 0.75252C9.55092 0.75252 8.94396 0.90996 8.41044 1.20756C8.35776 1.236 8.31348 1.26276 8.26848 1.28988L8.23716 1.30776C7.64388 1.61472 6.89532 1.61472 6.30156 1.30788L6.27888 1.29504C6.23124 1.26624 6.1842 1.23744 6.13524 1.21104C5.59512 0.90984 4.98804 0.7524 4.37232 0.7524C2.37636 0.7524 0.75228 2.37648 0.75228 4.3728C0.75228 5.35884 1.37712 6.43692 1.64592 6.85476L1.69032 6.9234C2.16516 7.6584 2.81568 8.66508 2.81568 10.6362C2.8158 11.1408 2.87532 11.6257 2.99292 12.0812Z" fill="black"/>
</svg>
