<svg width="24" height="22" viewBox="0 0 24 22" fill="none" xmlns="http://www.w3.org/2000/svg">
<path d="M12.0075 13.674C12.2063 13.674 12.3969 13.753 12.5375 13.8936C12.6781 14.0341 12.757 14.2248 12.757 14.4236C12.757 14.6223 12.6781 14.813 12.5375 14.9535C12.3969 15.0941 12.2063 15.1731 12.0075 15.1731C11.2955 15.1731 10.6126 14.8905 10.1088 14.3874C9.60496 13.8843 9.32142 13.2018 9.32043 12.4898C9.32043 12.291 9.39939 12.1003 9.53996 11.9598C9.68052 11.8192 9.87117 11.7402 10.07 11.7402C10.2687 11.7402 10.4594 11.8192 10.6 11.9598C10.7405 12.1003 10.8195 12.291 10.8195 12.4898C10.8205 12.8042 10.9461 13.1054 11.1688 13.3274C11.3915 13.5494 11.6931 13.674 12.0075 13.674ZM12.0075 20.4011C5.50531 20.4011 1.51405 18.3773 1.51405 16.927C1.51405 16.3798 2.05372 15.7802 3.01312 15.233C3.10243 15.1869 3.18156 15.1233 3.24579 15.046C3.31003 14.9687 3.35806 14.8793 3.38702 14.783C3.41599 14.6868 3.42531 14.5857 3.41442 14.4858C3.40352 14.3859 3.37265 14.2892 3.32362 14.2014C3.27459 14.1137 3.20842 14.0367 3.12904 13.975C3.04966 13.9134 2.95869 13.8683 2.86154 13.8426C2.76439 13.8168 2.66305 13.8108 2.56354 13.825C2.46404 13.8392 2.3684 13.8732 2.28232 13.9251C0.408495 14.9782 0 16.14 0 16.9232C0 20.1537 6.17989 21.8964 11.9925 21.8964C12.1913 21.8964 12.3819 21.8174 12.5225 21.6768C12.6631 21.5363 12.742 21.3456 12.742 21.1468C12.742 20.9481 12.6631 20.7574 12.5225 20.6168C12.3819 20.4763 12.1913 20.3973 11.9925 20.3973L12.0075 20.4011ZM24 16.9457C24 19.1943 20.8819 21.0007 15.8638 21.6715H15.7552C15.6567 21.6779 15.558 21.6649 15.4646 21.6331C15.3712 21.6014 15.285 21.5515 15.2109 21.4864C15.1368 21.4214 15.0762 21.3423 15.0326 21.2538C14.989 21.1653 14.9633 21.0691 14.9569 20.9707C14.9505 20.8723 14.9636 20.7736 14.9953 20.6802C15.0271 20.5868 15.0769 20.5006 15.142 20.4264C15.2071 20.3523 15.2861 20.2917 15.3746 20.2482C15.4631 20.2046 15.5593 20.1789 15.6577 20.1725C20.1062 19.5691 22.5009 18.07 22.5009 16.9457C22.5009 16.05 20.9606 14.7983 17.599 14.0488C17.2277 15.4042 16.3771 16.5788 15.2051 17.3543C14.0331 18.1298 12.6194 18.4535 11.2267 18.2652C9.83406 18.077 8.55705 17.3897 7.63296 16.3309C6.70887 15.2721 6.20052 13.9138 6.20237 12.5085C6.20237 6.03629 11.258 0.456032 11.4566 0.231172C11.5285 0.157972 11.6142 0.0998273 11.7088 0.0601354C11.8034 0.0204436 11.9049 0 12.0075 0C12.1101 0 12.2116 0.0204436 12.3062 0.0601354C12.4008 0.0998273 12.4865 0.157972 12.5584 0.231172C12.7758 0.467274 17.8051 6.03629 17.8051 12.4898V12.5422C21.6989 13.3892 24 15.0082 24 16.9457ZM16.3136 12.4898C16.3136 7.83517 13.2817 3.51787 12.0075 1.90638C10.7333 3.51787 7.70144 7.83517 7.70144 12.4898C7.70144 13.0557 7.81291 13.6162 8.0295 14.1391C8.24609 14.6619 8.56355 15.1371 8.96375 15.5373C9.36395 15.9375 9.83906 16.2549 10.362 16.4715C10.8848 16.6881 11.4453 16.7996 12.0112 16.7996C12.5772 16.7996 13.1376 16.6881 13.6605 16.4715C14.1834 16.2549 14.6585 15.9375 15.0587 15.5373C15.4589 15.1371 15.7764 14.6619 15.993 14.1391C16.2096 13.6162 16.321 13.0557 16.321 12.4898H16.3136Z" fill="black"/>
</svg>
