<svg width="24" height="25" viewBox="0 0 24 25" fill="none" xmlns="http://www.w3.org/2000/svg">
<path d="M24 9.31124C24 8.65081 23.943 7.97704 23.8305 7.30812C23.7633 6.90721 23.3849 6.63799 22.9835 6.70518C22.5836 6.77212 22.3136 7.1512 22.3808 7.55212C22.4359 7.87857 22.4723 8.20575 22.4968 8.53221H21.2722C20.8737 3.76223 16.8711 0 11.9998 0C7.1284 0 3.12582 3.76223 2.72781 8.53221H1.50324C1.52774 8.20575 1.56412 7.87857 1.61918 7.55212C1.68612 7.1512 1.41642 6.77212 1.01647 6.70518C0.612406 6.63824 0.236231 6.90721 0.169533 7.30812C0.0569962 7.97704 0 8.65081 0 9.31124C0 13.4523 2.10789 17.1093 5.30744 19.2667L3.31063 22.7905C3.04408 23.2612 3.20925 23.8593 3.68001 24.1266C3.83208 24.2125 3.99846 24.2537 4.16193 24.2537C4.50367 24.2537 4.83522 24.0757 5.01591 23.757L7.01805 20.2237C8.53633 20.9203 10.2224 21.3117 11.9998 21.3117C13.665 21.3117 15.2517 20.97 16.6945 20.3537L18.623 23.757C18.8032 24.0754 19.135 24.2537 19.4767 24.2537C19.6404 24.2537 19.8063 24.2125 19.9591 24.1266C20.4299 23.8593 20.595 23.2615 20.3282 22.7905L18.428 19.4369C21.7742 17.3045 24 13.5644 24 9.31124ZM11.9998 1.47026C16.3232 1.47026 19.841 4.98729 19.841 9.31124C19.841 13.6352 16.3232 17.1525 11.9998 17.1525C7.67629 17.1525 4.15854 13.6352 4.15854 9.31124C4.15854 4.98729 7.67629 1.47026 11.9998 1.47026ZM11.9998 19.8417C6.42674 19.8417 1.86365 15.4862 1.5047 10.0025H2.72345C3.07949 14.8142 7.09906 18.6222 11.9998 18.6222C16.9005 18.6222 20.92 14.8142 21.2761 10.0022H22.4948C22.1359 15.4862 17.5728 19.8417 11.9998 19.8417ZM7.36997 12.9537C7.4665 13.0781 7.61154 13.1431 7.75827 13.1431C7.86305 13.1431 7.96807 13.1096 8.05756 13.0407L16.4678 6.52982C16.6817 6.36417 16.721 6.05712 16.5553 5.84272C16.3897 5.62928 16.0821 5.58999 15.8677 5.75564L7.45753 12.2665C7.24385 12.4322 7.20456 12.7393 7.36997 12.9537ZM7.47741 9.69614C7.58122 9.69614 7.68527 9.6634 7.77452 9.59549L13.0031 5.59872C13.218 5.43404 13.2593 5.12699 13.0951 4.91162C12.9304 4.69721 12.6238 4.65598 12.4077 4.81969L7.17909 8.81646C6.96421 8.98114 6.92297 9.28819 7.08717 9.50357C7.18394 9.62993 7.32971 9.69614 7.47741 9.69614ZM11.0752 13.146C10.8603 13.3097 10.8191 13.6177 10.9833 13.8324C11.0798 13.9587 11.2258 14.0247 11.373 14.0247C11.4771 14.0247 11.5811 13.992 11.6704 13.924L16.8988 9.92728C17.1139 9.76357 17.1549 9.45555 16.9907 9.24114C16.826 9.02577 16.5189 8.98454 16.3036 9.14922L11.0752 13.146Z" fill="black"/>
</svg>
