<svg width="24" height="24" viewBox="0 0 24 24" fill="none" xmlns="http://www.w3.org/2000/svg">
<path d="M23.1433 17.1336H4.03074L1.67487 10.837C1.6403 10.7256 1.58335 10.6225 1.50751 10.5339C1.43167 10.4453 1.33853 10.3731 1.23381 10.3217C1.12909 10.2704 1.01499 10.241 0.898497 10.2353C0.782006 10.2296 0.665579 10.2477 0.556351 10.2886C0.447123 10.3295 0.347394 10.3923 0.263275 10.4731C0.179157 10.5538 0.11242 10.651 0.0671542 10.7584C0.0218885 10.8659 -0.000952692 10.9815 3.04397e-05 11.0982C0.00101357 11.2148 0.0258002 11.33 0.0728715 11.4367L2.58295 18.1445V23.1304C2.58295 23.3576 2.67321 23.5755 2.83387 23.7362C2.99453 23.8968 3.21243 23.9871 3.43963 23.9871C3.66684 23.9871 3.88474 23.8968 4.0454 23.7362C4.20606 23.5755 4.29631 23.3576 4.29631 23.1304V22.2737H22.2866V23.1304C22.2866 23.3576 22.3769 23.5755 22.5376 23.7362C22.6982 23.8968 22.9161 23.9871 23.1433 23.9871C23.3705 23.9871 23.5884 23.8968 23.7491 23.7362C23.9097 23.5755 24 23.3576 24 23.1304V17.9903C24 17.7631 23.9097 17.5452 23.7491 17.3845C23.5884 17.2239 23.3705 17.1336 23.1433 17.1336ZM4.29631 18.847H22.2866V20.5604H4.29631V18.847Z" fill="black"/>
<path d="M4.29418 10.2802H12.861V15.4203C12.861 15.6475 12.9513 15.8654 13.1119 16.026C13.2726 16.1867 13.4905 16.277 13.7177 16.277C13.9449 16.277 14.1628 16.1867 14.3235 16.026C14.4841 15.8654 14.5744 15.6475 14.5744 15.4203V10.2802H23.1412C23.3684 10.2802 23.5863 10.1899 23.747 10.0293C23.9076 9.86861 23.9979 9.65071 23.9979 9.4235C23.9945 7.18053 23.1913 5.01229 21.7325 3.30852C20.2737 1.60474 18.255 0.477181 16.0393 0.128502H15.9536C15.4976 0.0518893 15.0366 0.00893909 14.5744 0H12.861C12.3991 0.00327207 11.9381 0.0404954 11.4817 0.111369H11.3961C9.17746 0.460507 7.15648 1.59056 5.69731 3.29789C4.23815 5.00523 3.43674 7.17758 3.4375 9.4235C3.4375 9.65071 3.52776 9.86861 3.68842 10.0293C3.84908 10.1899 4.06698 10.2802 4.29418 10.2802ZM9.48568 8.56682C9.6423 7.28914 10.1163 6.07101 10.8645 5.02354C11.6127 3.97607 12.6113 3.13259 13.7691 2.57005C14.919 3.13584 15.9084 3.98146 16.6463 5.02927C17.3843 6.07708 17.8472 7.29349 17.9925 8.56682H9.48568ZM22.2417 8.56682H19.7145C19.6012 7.23403 19.2012 5.94147 18.5417 4.77775C17.8822 3.61404 16.9789 2.60668 15.8937 1.82473C17.5392 2.10946 19.0478 2.92076 20.1926 4.13661C21.3374 5.35247 22.0564 6.90714 22.2417 8.56682ZM11.576 1.82473C10.4991 2.61429 9.60241 3.62368 8.94518 4.78601C8.28795 5.94835 7.88525 7.23708 7.76374 8.56682H5.1937C5.38078 6.90228 6.10483 5.34394 7.25635 4.12751C8.40786 2.91108 9.92419 2.10273 11.576 1.82473Z" fill="black"/>
</svg>
