<svg width="26" height="18" viewBox="0 0 26 18" fill="none" xmlns="http://www.w3.org/2000/svg">
<path d="M2.83539 14.6426H23.1703C23.0287 15.8825 22.1317 16.7922 21.1346 16.7922H4.872C3.87228 16.7922 2.97709 15.8829 2.83539 14.6426ZM13.0039 3.55263C14.6469 3.55263 16.2895 4.03089 17.7687 4.9859C20.6371 6.83972 22.4498 10.2383 22.5555 13.9586H3.44931C3.55505 10.2383 5.36778 6.83972 8.23795 4.9859C9.71533 4.03089 11.3592 3.55263 13.0039 3.55263ZM13.0021 1.68461C13.1834 1.68461 13.3861 1.8118 13.561 2.07948C13.7045 2.29973 13.8067 2.60185 13.8396 2.91546C13.561 2.89008 13.2825 2.87437 13.0024 2.87437C12.7239 2.87437 12.4441 2.89008 12.1655 2.91546C12.1985 2.60185 12.3024 2.29973 12.4453 2.07948C12.6196 1.8118 12.8227 1.68461 13.0021 1.68461ZM13.0021 1C12.5205 1 12.1275 1.31149 11.8692 1.70485C11.6302 2.06981 11.4933 2.52965 11.4743 3.00639C10.2205 3.21546 8.99295 3.67983 7.86483 4.40975C4.78046 6.40195 2.87044 10.0196 2.7647 13.9583H1.3562C0.881266 13.9393 0.881266 14.6599 1.3562 14.6426H2.14444C2.29248 16.2161 3.44447 17.4765 4.8717 17.4765H21.1343C22.5613 17.4765 23.713 16.2161 23.861 14.6426H24.6447C25.1184 14.6602 25.1184 13.9393 24.6447 13.9583H23.2398C23.1359 10.0193 21.2241 6.40195 18.1415 4.40975C17.0116 3.67983 15.7859 3.21546 14.5315 3.00639C14.5124 2.52965 14.3744 2.07012 14.1348 1.70485C13.8789 1.31179 13.4837 1 13.0021 1Z" fill="white" stroke="white" stroke-width="0.6"/>
<path fill-rule="evenodd" clip-rule="evenodd" d="M9.1413 6.03403C9.08631 6.03735 9.03284 6.05457 8.98722 6.08297C6.77508 7.38754 5.38833 9.71448 5.24664 12.2825C5.23607 12.4732 5.38048 12.6351 5.56931 12.6463C5.75995 12.6556 5.92158 12.5109 5.93095 12.3203C6.06026 9.97431 7.32343 7.86096 9.33617 6.67483C9.65763 6.49325 9.50808 6.00412 9.1413 6.03403Z" fill="white" stroke="white" stroke-width="0.6"/>
</svg>
