<svg width="24" height="18" viewBox="0 0 24 18" fill="none" xmlns="http://www.w3.org/2000/svg">
<path d="M23.977 14.9765C23.8866 14.6451 23.5551 14.4643 23.2538 14.5547L20.9036 15.1875L19.4875 9.91462C20.4818 9.52292 21.2953 8.79979 21.8377 7.86574C22.4704 6.75091 22.6512 5.4553 22.3198 4.21994L21.2351 0.122192L11.985 2.5929L2.73494 0.122192L1.65024 4.18981C1.3188 5.42517 1.49959 6.72078 2.13233 7.83561C2.67468 8.76966 3.4882 9.49279 4.48251 9.88449L3.06637 15.1875L0.746323 14.5547C0.414887 14.4643 0.0834504 14.6451 0.0231894 14.9765C-0.0672022 15.308 0.113581 15.6394 0.445017 15.6997L6.26021 17.2665C6.32047 17.2665 6.3506 17.2966 6.41086 17.2966C6.68204 17.2966 6.92308 17.1158 6.98334 16.8446C7.07373 16.5132 6.89295 16.1818 6.56152 16.1215L4.21133 15.4888L5.62747 10.2159C5.83838 10.2461 6.07943 10.2762 6.29034 10.2762C8.42961 10.2762 10.358 8.86005 10.9606 6.69065L11.985 2.80381L13.0094 6.66052C13.5819 8.79979 15.5404 10.2461 17.6797 10.2461C17.8906 10.2461 18.1015 10.2159 18.3426 10.1858L19.7587 15.4888L17.4085 16.1215C17.0771 16.2119 16.8963 16.5433 16.9867 16.8446C17.0469 17.1158 17.288 17.2966 17.5592 17.2966C17.6194 17.2966 17.6496 17.2966 17.7098 17.2665L23.525 15.6997C23.8866 15.6394 24.0674 15.308 23.977 14.9765ZM9.78548 6.35921C9.27326 8.28757 7.28465 9.43253 5.35629 8.92031C4.42225 8.67926 3.63885 8.07665 3.15677 7.233C2.67468 6.38934 2.55415 5.42517 2.7952 4.49112L3.57859 1.56846L10.5689 3.43655L9.78548 6.35921ZM14.1845 6.35921L13.4011 3.43655L20.3914 1.56846L21.1748 4.49112C21.4159 5.42517 21.2953 6.38934 20.8133 7.233C20.3312 8.07665 19.5478 8.67926 18.6137 8.92031C16.6854 9.43253 14.6968 8.28757 14.1845 6.35921Z" fill="black"/>
</svg>
