<svg width="24" height="15" viewBox="0 0 24 15" fill="none" xmlns="http://www.w3.org/2000/svg">
<path d="M23.7638 5.04027C23.543 4.65625 23.1925 4.39224 22.7797 4.29143L22.5061 4.22423V3.50899C22.5061 1.9297 21.21 0.643234 19.6212 0.643234H17.4322C16.7074 0.643234 16.045 0.912049 15.5409 1.34887C15.0321 0.54243 14.1249 0 13.0976 0H10.9087C9.88143 0 8.97418 0.537629 8.46535 1.34887C7.95652 0.912049 7.29889 0.643234 6.57405 0.643234H4.37553C2.78664 0.643234 1.49057 1.9297 1.49057 3.50899V4.22423L1.21696 4.29143C0.804137 4.39224 0.453718 4.65625 0.232906 5.04027C-0.00710673 5.45789 -0.06471 5.96672 0.0744975 6.43235C0.636128 8.29485 1.69218 9.89813 3.11786 11.0694C3.66029 11.511 4.24112 11.8806 4.84595 12.1639L4.12112 12.9847C3.8619 13.2823 3.8907 13.7335 4.18832 13.9928C4.32273 14.1128 4.49074 14.1704 4.65874 14.1704C4.86036 14.1704 5.05717 14.0888 5.19637 13.9256L6.29563 12.6775C6.87646 12.8215 7.4765 12.8935 8.08613 12.8935H15.9058C16.5106 12.8935 17.1106 12.8215 17.6962 12.6775L18.7955 13.9256C18.9395 14.0888 19.1363 14.1704 19.3331 14.1704C19.5011 14.1704 19.6692 14.1128 19.8036 13.9928C20.1012 13.7335 20.13 13.2823 19.8708 12.9847L19.1507 12.1639C19.7556 11.8806 20.3364 11.5158 20.8788 11.0694C22.3093 9.90293 23.3606 8.29965 23.9222 6.43235C24.0662 5.96672 24.0086 5.45789 23.7638 5.04027ZM17.4322 2.07371H19.6212C20.4228 2.07371 21.0708 2.72175 21.0708 3.51379V3.91221C20.3988 3.87861 19.7652 4.31543 19.5347 5.00667C18.9635 6.71076 17.5426 7.86762 15.9778 7.90123V3.51379C15.9778 2.71695 16.6306 2.07371 17.4322 2.07371ZM10.9039 1.43048H13.0928C13.8944 1.43048 14.5425 2.07851 14.5425 2.87056V7.90123H9.4494V2.87056C9.4494 2.07851 10.1022 1.43048 10.9039 1.43048ZM4.37553 2.07371H6.56445C7.36609 2.07371 8.01413 2.72175 8.01413 3.51379V7.90123C6.45404 7.86762 5.02837 6.71556 4.45713 5.00667C4.22672 4.31063 3.59309 3.87381 2.92105 3.91221V3.51379C2.92585 2.71695 3.57389 2.07371 4.37553 2.07371ZM22.5493 6.02432C21.5653 9.2789 18.8963 11.4678 15.9106 11.4678H8.08613C5.09557 11.4678 2.43142 9.2789 1.44737 6.02432C1.41857 5.93312 1.42817 5.83231 1.47617 5.75551C1.50017 5.71711 1.52898 5.68831 1.55298 5.68351L2.99306 5.33789H2.99786C3.02186 5.33789 3.07466 5.37629 3.10346 5.4627C3.8763 7.77642 5.88281 9.3317 8.09093 9.3317H15.9106C18.1187 9.3317 20.1204 7.77642 20.898 5.4627C20.9268 5.37149 20.9844 5.33309 21.0084 5.34269L22.4485 5.68831C22.4725 5.69311 22.5013 5.72191 22.5253 5.76031C22.5685 5.82751 22.5781 5.93312 22.5493 6.02432Z" fill="black"/>
</svg>
