<svg width="24" height="21" viewBox="0 0 24 21" fill="none" xmlns="http://www.w3.org/2000/svg">
<path d="M24 4.53659H4.09756V2.4878C4.09756 1.76153 4.68836 1.17073 5.41463 1.17073C6.14091 1.17073 6.73171 1.76153 6.73171 2.4878V3.07317H7.90244V2.4878C7.90244 1.116 6.78644 0 5.41463 0C4.04283 0 2.92683 1.116 2.92683 2.4878V4.53659H0V20.6341H24V4.53659ZM1.17073 5.70732H12.2927V16.8293H1.17073V5.70732ZM22.8293 19.4634H1.17073V18H22.8293V19.4634ZM22.8293 16.8293H13.4634V13.9024H22.8293V16.8293ZM22.8293 12.7317H13.4634V9.80488H22.8293V12.7317ZM22.8293 8.63415H13.4634V5.70732H22.8293V8.63415Z" fill="black"/>
<path d="M19.0256 6.58533H17.2695V7.75606H19.0256V6.58533Z" fill="black"/>
<path d="M4.09594 6.58533H2.33984V7.75606H4.09594V6.58533Z" fill="black"/>
<path d="M19.0256 10.683H17.2695V11.8537H19.0256V10.683Z" fill="black"/>
<path d="M19.0256 14.7805H17.2695V15.9512H19.0256V14.7805Z" fill="black"/>
</svg>
