<svg width="24" height="25" viewBox="0 0 24 25" fill="none" xmlns="http://www.w3.org/2000/svg">
<path d="M12 0C5.37357 0 0 5.37358 0 12C0 19.6466 6.81199 23.7281 9.46246 23.7281C11.6008 23.7281 12.6251 21.78 12.6291 20.4282C12.5796 19.0232 12.7515 17.5633 13.3168 17.283C13.6543 17.0585 14.2926 16.7138 14.5375 15.9023L16.7232 10.2941C16.7232 10.2941 16.8992 9.91091 16.8992 9.30785C16.8992 7.61101 15.2938 6.81459 14.1537 6.65302C14.0904 6.63256 14.0212 6.62105 13.9511 6.62105C13.9261 6.62105 13.9061 6.62377 13.8818 6.62623C13.5889 6.65932 13.351 6.88619 13.3061 7.17533C13.301 7.20826 13.3008 7.24216 13.3008 7.27662C13.3008 7.31108 13.3009 7.34497 13.3061 7.3779C13.3472 7.64333 13.5479 7.85248 13.8072 7.911C13.8456 7.91973 13.8894 7.92546 13.9298 7.9271C14.6101 8.02485 15.6037 8.33287 15.6037 9.30782C15.6037 9.30782 15.613 9.59969 15.5024 9.88356L13.3434 15.4384C12.9147 16.3944 12 16.414 12 16.414C12 16.414 11.0853 16.3944 10.6566 15.4384L8.49223 9.88356C8.38169 9.59969 8.39094 9.30782 8.39094 9.30782C8.39094 8.33271 9.38988 8.02466 10.0702 7.9271C10.1108 7.92437 10.1493 7.91973 10.1875 7.911C10.4468 7.85248 10.6475 7.64333 10.6886 7.3779C10.6937 7.34497 10.6993 7.31108 10.6993 7.27662C10.6993 7.24216 10.6937 7.20826 10.6886 7.17533C10.6437 6.88619 10.4111 6.65916 10.1182 6.62623C10.0939 6.6235 10.0684 6.62105 10.0435 6.62105C9.97342 6.62105 9.90958 6.6325 9.84629 6.65302C8.70623 6.81459 7.09551 7.61101 7.09551 9.30785C7.09551 9.91091 7.27677 10.2941 7.27677 10.2941L9.46246 15.9023C9.70743 16.7139 10.3455 17.0588 10.6833 17.283C11.5244 18.0041 11.3816 19.2951 11.3816 20.4229C11.3808 21.0346 10.9911 22.374 9.41981 22.374C6.86471 22.374 1.26877 18.4154 1.26877 12C1.26877 6.07401 6.07402 1.26877 12 1.26877C17.926 1.26877 22.7312 6.07401 22.7312 12C22.7312 16.4105 20.0689 20.197 16.2648 21.8463C15.9763 21.5544 15.5775 21.3718 15.1346 21.3718C14.2557 21.3718 13.5407 22.0869 13.5407 22.9658C13.5407 23.8443 14.2557 24.5544 15.1346 24.5544C15.9911 24.5544 16.6828 23.8776 16.7179 23.0298C20.9968 21.1963 24 16.95 24 12C24.0002 5.37358 18.6264 0 12 0ZM15.1346 21.8889C15.641 21.8889 16.2068 22.4594 16.2061 22.9658C16.2056 23.4709 15.6397 24.0367 15.1346 24.0373C14.6282 24.0373 14.0584 23.4722 14.0578 22.9658C14.0572 22.4582 14.627 21.8883 15.1346 21.8889Z" fill="black"/>
</svg>
