<svg width="24" height="24" viewBox="0 0 24 24" fill="none" xmlns="http://www.w3.org/2000/svg">
<path d="M22.8571 12V8H23.4286C23.7486 8 24 7.74857 24 7.42857C24 7.10857 23.7486 6.85714 23.4286 6.85714H22.2857H17.1429V5.14286C17.1429 4.82286 16.8914 4.57143 16.5714 4.57143H14.8571V2.85714C14.8571 2.53714 14.6057 2.28571 14.2857 2.28571H9.71429C9.39429 2.28571 9.14286 2.53714 9.14286 2.85714V5.14286V6.85714H7.78286L6.90286 5.09714C7.56571 4.57143 8 3.77143 8 2.85714C8 1.28 6.72 0 5.14286 0C3.56571 0 2.28571 1.28 2.28571 2.85714C2.28571 3.77143 2.72 4.57143 3.38286 5.09714L2.50286 6.85714H1.71429H0.571429C0.251429 6.85714 0 7.10857 0 7.42857C0 7.74857 0.251429 8 0.571429 8H1.14286V12V16.5714V20.5714H0.571429C0.251429 20.5714 0 20.8229 0 21.1429C0 21.4629 0.251429 21.7143 0.571429 21.7143H1.71429H3.42857V23.4286C3.42857 23.7486 3.68 24 4 24C4.32 24 4.57143 23.7486 4.57143 23.4286V21.7143H19.4286V23.4286C19.4286 23.7486 19.68 24 20 24C20.32 24 20.5714 23.7486 20.5714 23.4286V21.7143H22.2857H23.4286C23.7486 21.7143 24 21.4629 24 21.1429C24 20.8229 23.7486 20.5714 23.4286 20.5714H22.8571V16.5714V12ZM2.28571 12.5714H21.7143V16H2.28571V12.5714ZM10.2857 3.42857H13.7143V4.57143H10.2857V3.42857ZM10.2857 5.71429H14.2857H16V6.85714H10.2857V5.71429ZM5.14286 1.14286C6.09143 1.14286 6.85714 1.90857 6.85714 2.85714C6.85714 3.80571 6.09143 4.57143 5.14286 4.57143C4.19429 4.57143 3.42857 3.80571 3.42857 2.85714C3.42857 1.90857 4.19429 1.14286 5.14286 1.14286ZM4.41143 5.61143C4.64 5.66857 4.89143 5.71429 5.14286 5.71429C5.39429 5.71429 5.64571 5.66857 5.87429 5.61143L6.50286 6.85714H3.78286L4.41143 5.61143ZM9.71429 8H16.5714H21.7143V11.4286H2.28571V8H9.71429ZM2.28571 20.5714V17.1429H21.7143V20.5714H2.28571Z" fill="black"/>
<path d="M10.8566 10.2857H13.1423C13.4623 10.2857 13.7137 10.0343 13.7137 9.71431C13.7137 9.39431 13.4623 9.14288 13.1423 9.14288H10.8566C10.5366 9.14288 10.2852 9.39431 10.2852 9.71431C10.2852 10.0343 10.5366 10.2857 10.8566 10.2857Z" fill="black"/>
<path d="M13.1423 13.7143H10.8566C10.5366 13.7143 10.2852 13.9657 10.2852 14.2857C10.2852 14.6057 10.5366 14.8572 10.8566 14.8572H13.1423C13.4623 14.8572 13.7137 14.6057 13.7137 14.2857C13.7137 13.9657 13.4623 13.7143 13.1423 13.7143Z" fill="black"/>
<path d="M13.1423 18.2857H10.8566C10.5366 18.2857 10.2852 18.5371 10.2852 18.8571C10.2852 19.1771 10.5366 19.4286 10.8566 19.4286H13.1423C13.4623 19.4286 13.7137 19.1771 13.7137 18.8571C13.7137 18.5371 13.4623 18.2857 13.1423 18.2857Z" fill="black"/>
</svg>
