<svg width="24" height="22" viewBox="0 0 24 22" fill="none" xmlns="http://www.w3.org/2000/svg">
<path d="M22.6351 12.3897C22.7705 12.3897 22.9004 12.3359 22.9961 12.2402C23.0919 12.1444 23.1457 12.0146 23.1457 11.8792V11.5388H23.486C23.6214 11.5388 23.7513 11.485 23.8471 11.3892C23.9428 11.2935 23.9966 11.1636 23.9966 11.0282V9.32634C23.9966 9.19093 23.9428 9.06106 23.8471 8.96531C23.7513 8.86956 23.6214 8.81577 23.486 8.81577H23.1457V3.8803C23.1457 3.8803 23.1457 3.85988 23.1457 3.84626C23.147 3.82473 23.147 3.80313 23.1457 3.78159C23.1457 3.78159 23.1457 3.75096 23.1457 3.73734C23.1465 3.72033 23.1465 3.70329 23.1457 3.68629L23.1218 3.64204L23.098 3.60119L23.0674 3.56035L22.9993 3.53992L22.9618 3.50589L22.9244 3.47525L22.8734 3.44802L22.8359 3.4276L22.7678 3.40377H22.744L7.42703 0H7.38959H7.33853H7.2194H7.18196H7.15473L2.13076 1.66785H0.510566C0.375155 1.66785 0.245291 1.72164 0.149541 1.81739C0.0537915 1.91314 0 2.043 0 2.17841V3.8803C0 4.01571 0.0537915 4.14558 0.149541 4.24132C0.245291 4.33707 0.375155 4.39087 0.510566 4.39087H5.10566V20.8992C5.10566 21.0346 5.15945 21.1644 5.2552 21.2602C5.35095 21.3559 5.48081 21.4097 5.61622 21.4097C5.75164 21.4097 5.8815 21.3559 5.97725 21.2602C6.073 21.1644 6.12679 21.0346 6.12679 20.8992V4.39087H6.80754V20.8992C6.80754 21.0346 6.86134 21.1644 6.95709 21.2602C7.05284 21.3559 7.1827 21.4097 7.31811 21.4097C7.45352 21.4097 7.58339 21.3559 7.67914 21.2602C7.77489 21.1644 7.82868 21.0346 7.82868 20.8992V6.09275H9.02C9.15541 6.09275 9.28527 6.03896 9.38102 5.94321C9.47677 5.84746 9.53056 5.7176 9.53056 5.58219V4.39087H22.1245V8.81577H21.7841C21.6487 8.81577 21.5189 8.86956 21.4231 8.96531C21.3274 9.06106 21.2736 9.19093 21.2736 9.32634V11.0282C21.2736 11.1636 21.3274 11.2935 21.4231 11.3892C21.5189 11.485 21.6487 11.5388 21.7841 11.5388H21.9577C21.7421 11.6513 21.5632 11.8234 21.4426 12.0346C21.3219 12.2458 21.2644 12.4872 21.277 12.7301C21.277 13.0912 21.4204 13.4375 21.6758 13.6928C21.9311 13.9482 22.2774 14.0916 22.6385 14.0916C22.9996 14.0916 23.3459 13.9482 23.6012 13.6928C23.8566 13.4375 24 13.0912 24 12.7301C24 12.5947 23.9462 12.4648 23.8505 12.3691C23.7547 12.2733 23.6248 12.2195 23.4894 12.2195C23.354 12.2195 23.2242 12.2733 23.1284 12.3691C23.0327 12.4648 22.9789 12.5947 22.9789 12.7301C22.9789 12.8186 22.9789 13.0705 22.6385 13.0705C22.5925 13.076 22.5458 13.0709 22.502 13.0558C22.4582 13.0406 22.4185 13.0157 22.3857 12.9829C22.3529 12.9501 22.328 12.9104 22.3128 12.8666C22.2977 12.8228 22.2926 12.7761 22.2981 12.7301C22.2947 12.6382 22.2947 12.3897 22.6351 12.3897ZM1.02113 2.68898H1.70189V3.36973H1.02113V2.68898ZM2.72302 3.36973V2.54602L6.80754 1.18451V1.66785H5.61622C5.48081 1.66785 5.35095 1.72164 5.2552 1.81739C5.15945 1.91314 5.10566 2.043 5.10566 2.17841V3.36973H2.72302ZM6.12679 3.36973V2.68898H6.80754V3.36973H6.12679ZM8.50943 5.07162H7.82868V4.39087H8.50943V5.07162ZM9.02 3.36973H7.82868V1.11303L17.9855 3.36973H9.02ZM22.2947 10.5177V9.8369H22.9755V10.5177H22.2947Z" fill="black"/>
</svg>
