<svg width="24" height="25" viewBox="0 0 24 25" fill="none" xmlns="http://www.w3.org/2000/svg">
<path d="M12.8731 17.0543C12.7154 17.0543 12.567 16.9987 12.4465 16.8781C12.2053 16.6463 12.2053 16.2568 12.4465 16.025L12.4557 16.0157C12.6876 15.7746 13.0771 15.7746 13.3089 16.0157C13.55 16.2475 13.55 16.637 13.3089 16.8689L13.2996 16.8781C13.1884 16.9894 13.0307 17.0543 12.8731 17.0543Z" fill="black"/>
<path d="M16.4325 13.4933C16.2749 13.4933 16.1265 13.4377 16.0059 13.3171C15.7741 13.0853 15.7741 12.6958 16.0059 12.4639L16.0152 12.4546C16.247 12.2228 16.6365 12.2228 16.8684 12.4546C17.1002 12.6865 17.1002 13.076 16.8684 13.3078L16.8591 13.3171C16.7385 13.4377 16.5902 13.4933 16.4325 13.4933Z" fill="black"/>
<path d="M15.7399 12.8753L12.8648 15.7504C11.3331 14.4597 9.18499 13.9477 7.10369 13.585C6.61421 13.4997 6.13502 13.4238 5.66304 13.349C5.01247 13.2459 4.37561 13.1451 3.74439 13.0247C2.82574 12.8496 1.97983 12.6431 1.24406 12.3555C2.44723 6.53908 6.52858 2.45773 12.345 1.25456C12.6326 1.99032 12.8391 2.83624 13.0142 3.75489C13.1346 4.3861 13.2355 5.02297 13.3385 5.67353C13.4133 6.14552 13.4892 6.62471 13.5745 7.11419C13.9372 9.19549 14.4492 11.3436 15.7399 12.8753Z" stroke="black"/>
<path d="M12.8812 16.5884L12.8082 16.5154C11.936 15.6432 10.7698 15.1092 9.52356 14.7399C8.27737 14.3707 6.90153 14.1529 5.58675 13.9453C3.70466 13.6457 2.01572 13.3755 0.633364 12.7505C0.633115 12.7504 0.632867 12.7503 0.632619 12.7502L0.560881 12.7175L0.57531 12.6373C0.575351 12.6371 0.575392 12.6368 0.575433 12.6366C1.74383 6.24777 6.23908 1.74375 12.6366 0.575441C12.6368 0.575404 12.637 0.575368 12.6372 0.575332L12.7175 0.560881L12.7507 0.633713L12.8812 16.5884ZM12.8812 16.5884L16.5884 12.8812M12.8812 16.5884L16.5884 12.8812M13.9453 5.58657L13.9452 5.58619C13.6455 3.70321 13.3753 2.00642 12.7509 0.634237L13.9453 5.58657ZM13.9453 5.58657C14.1529 6.90141 14.3707 8.27732 14.7399 9.52356C15.1092 10.7698 15.6432 11.936 16.5154 12.8082L16.5884 12.8812M13.9453 5.58657L16.5884 12.8812M0.87415 12.1838L0.784806 12.6044L1.18729 12.7557C2.47766 13.2408 4.04366 13.4885 5.61528 13.7366C8.26884 14.1601 10.8074 14.5761 12.5466 15.9951L12.8967 16.2808L13.2162 15.9612L15.9612 13.2162L16.2815 12.8959L15.9943 12.5456C14.5763 10.8163 14.1602 8.26993 13.7366 5.61534C13.4885 4.0437 13.2408 2.47768 12.7557 1.18729L12.6042 0.784307L12.1832 0.874279C6.30594 2.13027 2.12083 6.3148 0.87415 12.1838Z" stroke="black"/>
<path d="M14.0226 19.2337C13.9947 19.2337 13.9576 19.2337 13.9298 19.2244C13.7444 19.1966 13.5774 19.076 13.4847 18.9091L12.344 16.7205C12.2235 16.4886 12.2698 16.2012 12.4553 16.0157L16.0071 12.4638C16.1926 12.2784 16.4801 12.232 16.7119 12.3526L18.8913 13.5025C19.0582 13.5952 19.1788 13.7529 19.2066 13.9476C19.2344 14.1424 19.1695 14.3279 19.0396 14.467L14.4492 19.0575C14.3379 19.1688 14.1895 19.2337 14.0226 19.2337ZM13.6238 16.5536L14.1802 17.62L17.6115 14.1888L16.545 13.6323L13.6238 16.5536Z" fill="black"/>
<path d="M20.5511 24.0097C19.3362 24.0097 18.0193 23.4718 16.9807 22.4424L13.5958 19.0575C13.3639 18.8257 13.3639 18.4362 13.5958 18.2043L18.1863 13.6138C18.4181 13.382 18.8076 13.382 19.0394 13.6138L22.4243 16.9987C23.2961 17.8705 23.8432 18.9555 23.9731 20.0776C24.1029 21.2461 23.769 22.294 23.0271 23.0452C22.378 23.6944 21.4877 24.0097 20.5511 24.0097ZM14.8755 18.6309L17.8339 21.5892C19.1971 22.9525 21.1353 23.2121 22.1647 22.1827C22.6469 21.7005 22.8602 21.005 22.7675 20.2074C22.6747 19.3635 22.2481 18.5196 21.5712 17.8519L18.6221 14.8936L14.8755 18.6309Z" fill="black"/>
</svg>
