<svg width="24" height="13" viewBox="0 0 24 13" fill="none" xmlns="http://www.w3.org/2000/svg">
<path d="M7.38191 4.47422e-07C7.13756 -1.35634e-06 6.90318 0.0968796 6.73015 0.269406C6.55712 0.441932 6.45955 0.676026 6.45883 0.920373V5.53666H5.9991V2.76653C5.9991 2.64531 5.97522 2.52527 5.92883 2.41328C5.88245 2.30129 5.81445 2.19953 5.72874 2.11381C5.64302 2.0281 5.54126 1.9601 5.42927 1.91371C5.31728 1.86733 5.19724 1.84345 5.07602 1.84345C4.95473 1.84333 4.83459 1.86712 4.7225 1.91346C4.6104 1.95979 4.50854 2.02777 4.42272 2.11349C4.33691 2.19922 4.26884 2.30102 4.22239 2.41307C4.17595 2.52512 4.15204 2.64523 4.15204 2.76653V5.53666H3.69231V4.61358C3.69243 4.49229 3.66864 4.37216 3.6223 4.26006C3.57597 4.14796 3.50799 4.0461 3.42226 3.96029C3.33654 3.87447 3.23474 3.8064 3.12269 3.75996C3.01063 3.71351 2.89053 3.6896 2.76923 3.6896C2.64793 3.6896 2.52783 3.71351 2.41578 3.75996C2.30372 3.8064 2.20193 3.87447 2.1162 3.96029C2.03047 4.0461 1.9625 4.14796 1.91616 4.26006C1.86982 4.37216 1.84604 4.49229 1.84615 4.61358V5.53666H0.923077C0.413103 5.53654 -0.00011877 5.94976 2.99149e-08 6.45974C-0.00012837 6.96971 0.413096 7.38294 0.923077 7.38281H1.84615V8.30679C1.84615 8.42801 1.87003 8.54805 1.91642 8.66004C1.96281 8.77203 2.0308 8.87379 2.11652 8.95951C2.20223 9.04522 2.30399 9.11322 2.41598 9.1596C2.52798 9.20599 2.64801 9.22987 2.76923 9.22987C2.89045 9.22987 3.01048 9.20599 3.12248 9.1596C3.23447 9.11322 3.33623 9.04522 3.42194 8.95951C3.50766 8.87379 3.57565 8.77203 3.62204 8.66004C3.66843 8.54805 3.69231 8.42801 3.69231 8.30679V7.38281H4.15204V10.1529C4.15204 10.2742 4.17595 10.3944 4.22239 10.5064C4.26884 10.6185 4.33691 10.7203 4.42272 10.806C4.50854 10.8917 4.6104 10.9597 4.7225 11.006C4.83459 11.0524 4.95473 11.0761 5.07602 11.076C5.19724 11.076 5.31728 11.0521 5.42927 11.0058C5.54126 10.9594 5.64302 10.8914 5.72874 10.8057C5.81445 10.7199 5.88245 10.6182 5.92883 10.5062C5.97522 10.3942 5.9991 10.2742 5.9991 10.1529V7.38281H6.45883V12C6.45883 12.1212 6.48271 12.2413 6.5291 12.3532C6.57549 12.4652 6.64348 12.567 6.7292 12.6527C6.81491 12.7384 6.91667 12.8064 7.02866 12.8528C7.14066 12.8992 7.26069 12.9231 7.38191 12.9231C7.50321 12.9232 7.62334 12.8994 7.73544 12.8531C7.84753 12.8067 7.9494 12.7388 8.03521 12.653C8.12102 12.5673 8.18909 12.4655 8.23554 12.3535C8.28198 12.2414 8.30589 12.1213 8.30589 12V7.38281H15.6941V12C15.6941 12.2443 15.791 12.4787 15.9635 12.6518C16.136 12.8248 16.3701 12.9224 16.6145 12.9231C16.7357 12.9231 16.8557 12.8992 16.9677 12.8528C17.0797 12.8064 17.1815 12.7384 17.2672 12.6527C17.3529 12.567 17.4209 12.4652 17.4673 12.3532C17.5137 12.2413 17.5376 12.1212 17.5376 12V7.38281H18.0009V10.1529C18.0009 10.2742 18.0248 10.3942 18.0712 10.5062C18.1176 10.6182 18.1855 10.7199 18.2713 10.8057C18.357 10.8914 18.4587 10.9594 18.5707 11.0058C18.6827 11.0521 18.8028 11.076 18.924 11.076C19.0453 11.0761 19.1654 11.0524 19.2775 11.006C19.3896 10.9597 19.4915 10.8917 19.5773 10.806C19.6631 10.7203 19.7312 10.6185 19.7776 10.5064C19.8241 10.3944 19.848 10.2742 19.848 10.1529V7.38281H20.3077V8.30679C20.3077 8.42801 20.3316 8.54805 20.378 8.66004C20.4243 8.77203 20.4923 8.87379 20.5781 8.95951C20.6638 9.04522 20.7655 9.11322 20.8775 9.1596C20.9895 9.20599 21.1095 9.22987 21.2308 9.22987C21.352 9.22987 21.472 9.20599 21.584 9.1596C21.696 9.11322 21.7978 9.04522 21.8835 8.95951C21.9692 8.87379 22.0372 8.77203 22.0836 8.66004C22.13 8.54805 22.1538 8.42801 22.1538 8.30679V7.38281H23.0769C23.5869 7.38294 24.0001 6.96971 24 6.45974C24.0001 5.94976 23.5869 5.53654 23.0769 5.53666H22.1538V4.61358C22.154 4.49229 22.1302 4.37216 22.0838 4.26006C22.0375 4.14796 21.9695 4.0461 21.8838 3.96029C21.7981 3.87447 21.6963 3.8064 21.5842 3.75996C21.4722 3.71351 21.3521 3.6896 21.2308 3.6896C21.1095 3.6896 20.9894 3.71351 20.8773 3.75996C20.7653 3.8064 20.6635 3.87447 20.5777 3.96029C20.492 4.0461 20.424 4.14796 20.3777 4.26006C20.3314 4.37216 20.3076 4.49229 20.3077 4.61358V5.53666H19.848V2.76653C19.848 2.64523 19.8241 2.52512 19.7776 2.41307C19.7312 2.30102 19.6631 2.19922 19.5773 2.11349C19.4915 2.02777 19.3896 1.95979 19.2775 1.91346C19.1654 1.86712 19.0453 1.84333 18.924 1.84345C18.8028 1.84345 18.6827 1.86733 18.5707 1.91371C18.4587 1.9601 18.357 2.0281 18.2713 2.11381C18.1855 2.19953 18.1176 2.30129 18.0712 2.41328C18.0248 2.52527 18.0009 2.64531 18.0009 2.76653V5.53666H17.5376V0.920373C17.5368 0.676026 17.4393 0.441932 17.2662 0.269406C17.0932 0.0968796 16.8588 -1.35634e-06 16.6145 4.47422e-07C16.3706 0.000713099 16.1369 0.0979092 15.9645 0.270358C15.792 0.442807 15.6948 0.676494 15.6941 0.920373V5.53666H8.30589V0.920373C8.30517 0.67587 8.20748 0.441639 8.03425 0.269087C7.86103 0.0965351 7.62641 -0.000240116 7.38191 4.47422e-07Z" fill="black"/>
</svg>
