<svg width="32" height="32" viewBox="0 0 32 32" fill="none" xmlns="http://www.w3.org/2000/svg">
<path d="M11.8338 22.7144H16.4598C18.8178 22.7144 20.8698 21.5624 20.8698 19.0064C20.8698 17.7104 20.2038 16.4144 18.7998 16.0004V15.9644C19.7718 15.4424 20.3478 14.4164 20.3478 13.2284C20.3478 11.1224 18.7098 9.93435 16.3878 9.93435H11.8338V22.7144ZM14.1558 15.1544V11.9324H16.3698C17.4318 11.9324 17.9898 12.5984 17.9898 13.5164C17.9898 14.4344 17.4138 15.1544 16.4058 15.1544H14.1558ZM14.1558 20.7164V17.0264H16.6398C17.8098 17.0264 18.4938 17.8004 18.4938 18.8624C18.4938 19.9424 17.8278 20.7164 16.6398 20.7164H14.1558Z" fill="#29C9D3"/>
<circle cx="16" cy="16" r="15" stroke="#29C9D3" stroke-width="2"/>
</svg>
