<svg width="32" height="32" viewBox="0 0 32 32" fill="none" xmlns="http://www.w3.org/2000/svg">
<circle cx="16" cy="16" r="15.1" stroke="#29C9D3" stroke-width="1.8"/>
<path d="M14.8535 6.94114C14.1757 7.23059 13.65 7.66425 13.3001 8.28384L13.299 8.28575L13.299 8.28575C12.9761 8.85174 12.8675 9.48841 12.8715 10.1966L12.8715 10.197C12.8734 10.5963 12.8729 10.99 12.8723 11.382C12.8716 11.901 12.8709 12.4171 12.8758 12.9393L12.8759 12.944C12.8758 13.0486 12.8695 13.3007 12.6713 13.49C12.4767 13.6759 12.2286 13.6735 12.1333 13.6712M14.8535 6.94114L10.1904 13.3557H10.1875H10M14.8535 6.94114C15.4312 6.69466 16.0491 6.57497 16.7006 6.53877L16.7009 6.53876C17.5327 6.49211 18.3416 6.49785 19.1678 6.50371C19.6047 6.50681 20.0465 6.50993 20.4989 6.50538M14.8535 6.94114L20.5005 6.19631M12.1333 13.6712C12.1329 13.6712 12.1325 13.6712 12.1321 13.6712L12.1442 13.1713L12.1344 13.6712C12.134 13.6712 12.1337 13.6712 12.1333 13.6712ZM12.1333 13.6712C11.7709 13.6641 11.4353 13.6648 11.0936 13.6656C10.9 13.666 10.7045 13.6665 10.5011 13.6655M10.5011 13.6655C10.5008 13.5619 10.5004 13.4584 10.5 13.355C10.5 13.3499 10.5002 13.3476 10.5002 13.3476C10.5002 13.3476 10.5001 13.3498 10.4996 13.3537L10.1905 13.355L10.1875 13.355L10 13.3557M10.5011 13.6655C10.3985 13.665 10.2938 13.6641 10.1864 13.6627L10.1787 13.6626L10.1787 13.6625C10.1772 13.6625 10.1761 13.6625 10.1752 13.6625M10.5011 13.6655C10.5039 14.5459 10.5039 15.4286 10.5011 16.309M10 13.3557C10.0043 14.4407 10.0043 15.53 10 16.615H10.1903L10.1861 16.3123C10.1872 16.3123 10.1884 16.3123 10.1895 16.3122C10.1879 16.3121 10.1871 16.3121 10.1871 16.3121C10.187 16.3121 10.1882 16.3122 10.1906 16.3122C10.2941 16.3108 10.3976 16.3098 10.5011 16.309M10 13.3557L10.1752 13.6625M10.1752 13.6625C10.1739 13.6625 10.1732 13.6625 10.1733 13.6625C10.1733 13.6625 10.1739 13.6625 10.1752 13.6625ZM10.5011 16.309C10.5008 16.4117 10.5004 16.5143 10.5 16.617L10.4996 16.617L12.3673 27.362H12.6316L12.6302 27.1244C12.6245 27.1228 12.6197 27.1216 12.6159 27.1207C12.6082 27.119 12.6036 27.1185 12.6036 27.1184C12.6036 27.1184 12.6119 27.1192 12.6317 27.1193C12.7105 27.1188 12.7892 27.1184 12.8678 27.118M10.5011 16.309C10.867 16.3062 11.2329 16.3068 11.596 16.3074C11.7507 16.3077 11.905 16.308 12.0585 16.308H12.0646L12.0646 16.308C12.0834 16.3082 12.1093 16.3082 12.1371 16.3082C12.1875 16.3082 12.2442 16.3082 12.2769 16.3095C12.2784 16.3096 12.2802 16.3097 12.2823 16.3097C12.3283 16.3112 12.5308 16.3177 12.6919 16.4712C12.8621 16.6335 12.8697 16.8453 12.8714 16.8946C12.8715 16.8965 12.8716 16.8982 12.8716 16.8996C12.8733 16.9385 12.8726 16.9996 12.872 17.0514C12.8718 17.0745 12.8715 17.0958 12.8715 17.1124C12.8715 17.9667 12.8718 18.8209 12.8721 19.675C12.8729 22.1556 12.8736 24.6358 12.8678 27.118M12.8678 27.118C12.8677 27.1995 12.8675 27.2809 12.8673 27.3624L16.769 27.3844C16.7686 27.2955 16.7682 27.2067 16.7678 27.1178M12.8678 27.118C14.1688 27.1112 15.4668 27.1111 16.7678 27.1178M16.7678 27.1178C16.7627 25.913 16.7634 24.7098 16.7642 23.507C16.7644 23.0766 16.7647 22.6462 16.7647 22.2158C16.7647 20.5217 16.7647 18.8284 16.7604 17.1394L16.7604 17.1382C16.7604 17.1199 16.7599 17.086 16.7594 17.05C16.7586 16.9998 16.7578 16.9455 16.7582 16.9231C16.7588 16.8902 16.7608 16.8309 16.7753 16.7657C16.7909 16.6956 16.8271 16.5898 16.9183 16.4941C17.0851 16.3191 17.3069 16.3159 17.3513 16.3152C17.3534 16.3152 17.3551 16.3152 17.3564 16.3151C17.3875 16.3142 17.4451 16.315 17.4964 16.3157C17.5259 16.3161 17.5533 16.3165 17.5725 16.3165M16.7678 27.1178L17.5725 16.3165M17.5725 16.3165C18.4219 16.3126 19.2677 16.3123 20.1165 16.3155C20.1194 16.2976 20.1224 16.2797 20.1253 16.2618C20.1969 15.8294 20.2657 15.4135 20.3097 14.9933L20.3099 14.9914C20.3297 14.8097 20.3491 14.6267 20.3685 14.4429C20.3962 14.1815 20.4241 13.9187 20.4532 13.6562C20.0149 13.6584 19.5766 13.6584 19.1397 13.6584H19.1388C18.5949 13.6584 18.0533 13.6584 17.5131 13.6627L17.5092 13.6628C17.4138 13.6627 17.1687 13.6608 16.9756 13.4811C16.7693 13.2891 16.7622 13.0321 16.7648 12.9124M17.5725 16.3165L20.5005 6.19631M16.7648 12.9124C16.7648 12.9121 16.7648 12.9118 16.7648 12.9115L17.2647 12.9226L16.7648 12.913C16.7648 12.9128 16.7648 12.9126 16.7648 12.9124ZM16.7648 12.9124C16.7739 12.4379 16.7722 11.9683 16.7704 11.4913C16.7697 11.298 16.769 11.1035 16.769 10.907C16.769 9.97648 17.4714 9.27911 18.4055 9.27911H18.4061C19.1028 9.27911 19.8007 9.27911 20.4989 9.28202M20.4989 9.28202C20.4993 9.38406 20.4996 9.48606 20.5 9.58803L20.5001 9.58803M20.4989 9.28202C20.5949 9.28242 20.6908 9.28288 20.7867 9.2834M20.4989 9.28202C20.4961 8.35726 20.4961 7.43015 20.4989 6.50538M20.5001 9.58803C20.5 9.58864 20.5 9.58917 20.5 9.58964C20.5 9.58875 20.5 9.58759 20.5 9.58613H20.5003M20.5001 9.58803C20.5002 9.58746 20.5002 9.58682 20.5003 9.58613M20.5001 9.58803L20.7856 9.58694M20.5003 9.58613C20.5012 9.57786 20.5038 9.561 20.5108 9.53881C20.5266 9.48865 20.5634 9.41735 20.6367 9.35866C20.7002 9.30791 20.7603 9.29142 20.7856 9.28619M20.5003 9.58613H20.7856M20.7856 9.58694V9.7834L20.7866 9.58694M20.7856 9.58694V9.58613M20.7856 9.58694L20.7866 9.58694M20.7866 9.58694L21 9.58613H20.7866M20.7866 9.58694L20.7866 9.58613M20.7866 9.58613L20.7883 9.28564M20.7866 9.58613H20.7856M20.7883 9.28564C20.7889 9.28551 20.7896 9.28539 20.7902 9.28528C20.7998 9.28348 20.8057 9.28301 20.8057 9.28299C20.8057 9.28297 20.8001 9.28338 20.7867 9.2834M20.7883 9.28564C20.7874 9.28581 20.7865 9.28599 20.7856 9.28619M20.7883 9.28564L20.7883 9.28341C20.7878 9.2834 20.7872 9.2834 20.7867 9.2834M20.7867 9.2834C20.7864 9.2834 20.786 9.2834 20.7856 9.2834V9.28619M20.4989 6.50538C20.6041 6.50432 20.7099 6.50286 20.8164 6.50088L20.8209 6.50075C20.8209 6.50075 20.821 6.50075 20.821 6.50075M20.4989 6.50538C20.4993 6.40233 20.4996 6.2993 20.5 6.19631L20.5005 6.19631M20.821 6.50075C20.8262 6.50109 20.8291 6.50101 20.8292 6.50089C20.8294 6.50076 20.8268 6.50059 20.821 6.50075ZM20.821 6.50075C20.821 6.50075 20.8209 6.50074 20.8209 6.50074C20.8195 6.50065 20.818 6.50053 20.8164 6.50037C20.7814 6.49709 20.6815 6.47801 20.5926 6.38087C20.5335 6.31638 20.5122 6.25113 20.5048 6.21965C20.5027 6.21077 20.5015 6.20345 20.5008 6.19821H20.8107H20.8125H21L20.8125 6.1975L20.8107 6.19749L20.5005 6.19631M20.7856 9.28619V9.58613M20.7684 13.1542V13.3597V13.3603V13.652M20.7684 13.1542L20.4913 13.32C20.4913 13.3214 20.4913 13.3237 20.4913 13.3267C20.4914 13.3272 20.4914 13.3276 20.4914 13.3281C20.4917 13.3357 20.4926 13.3474 20.4952 13.3621C20.5034 13.4075 20.5288 13.4838 20.5971 13.5532C20.6627 13.6198 20.7314 13.6429 20.7606 13.6501C20.7634 13.6509 20.766 13.6515 20.7684 13.652M20.7684 13.1542L20.77 13.3599L20.7701 13.3605L20.7724 13.6528M20.7684 13.1542L20.7724 13.6528M20.7684 13.652C20.7698 13.6523 20.7711 13.6525 20.7724 13.6528M20.7684 13.652V13.6542C20.769 13.6542 20.7695 13.6542 20.77 13.6542C20.7708 13.6542 20.7716 13.6541 20.7724 13.6541L20.7724 13.6528M20.361 16.3171V16.3165C20.3667 16.3165 20.3692 16.3164 20.3689 16.3164C20.3687 16.3164 20.3668 16.3165 20.3633 16.3168L20.362 16.5963L20.5711 16.6321M20.361 16.3171L20.0781 16.5492C20.077 16.555 20.0764 16.5576 20.0764 16.5576C20.0764 16.5577 20.0768 16.5556 20.078 16.5519L20.361 16.598V16.8165M20.361 16.3171V16.5961L20.0793 16.5478C20.0807 16.5434 20.0828 16.5378 20.0856 16.5311C20.0978 16.5018 20.1263 16.4487 20.1841 16.3997C20.2424 16.3501 20.3011 16.3296 20.3358 16.3216C20.3465 16.3191 20.3552 16.3178 20.361 16.3171ZM20.5711 16.6321L20.362 16.5981L20.361 16.8165M20.5711 16.6321C20.5454 16.7822 20.4982 16.8165 20.361 16.8165M20.5711 16.6321C20.5865 16.5377 20.6021 16.4432 20.6178 16.3487C20.6895 15.9156 20.7613 15.4819 20.807 15.0454C20.827 14.861 20.8466 14.6765 20.8661 14.4921C20.9052 14.1233 20.9443 13.7545 20.9871 13.3857L17.5735 16.8165C18.5041 16.8122 19.4304 16.8122 20.361 16.8165M10.1903 16.6157L10.193 16.8122L10.1903 16.6157Z" stroke="#29C9D3"/>
</svg>
