<svg width="20" height="26" viewBox="0 0 20 26" fill="none" xmlns="http://www.w3.org/2000/svg">
<path d="M0.602496 1.75036e-05C0.278534 8.43378e-06 -0.000240842 0.332301 1.56139e-07 0.604669V25.3953C3.02809e-05 25.7119 0.287029 26 0.602496 26H19.2799C19.5953 26 19.8823 25.7119 19.8824 25.3953V6.04653C19.8824 5.88556 19.8176 5.72513 19.7035 5.61194L14.281 0.170076C14.1689 0.0612415 14.0134 -0.00120087 13.8574 1.75036e-05H0.602496ZM1.20499 1.20932H13.2549V6.04653C13.2549 6.36312 13.5419 6.65115 13.8574 6.65118H18.6774V24.7907H1.20499V1.20932ZM14.4599 2.05961L17.8301 5.44188H14.4599V2.05961Z" fill="#29C9D3"/>
</svg>
