<svg width="32" height="32" viewBox="0 0 32 32" fill="none" xmlns="http://www.w3.org/2000/svg">
<circle cx="16" cy="16" r="15.1" stroke="#29C9D3" stroke-width="1.8"/>
<path fill-rule="evenodd" clip-rule="evenodd" d="M21.2304 11.7296C21.2304 12.2599 20.8005 12.6896 20.2704 12.6896C19.7403 12.6896 19.3104 12.2599 19.3104 11.7296C19.3104 11.1994 19.7403 10.7696 20.2704 10.7696C20.8006 10.7696 21.2304 11.1994 21.2304 11.7296ZM16 18.6666C14.5273 18.6666 13.3334 17.4727 13.3334 16C13.3334 14.5273 14.5273 13.3334 16 13.3334C17.4727 13.3334 18.6666 14.5273 18.6666 16C18.6666 17.4727 17.4727 18.6666 16 18.6666ZM16 11.8919C13.7311 11.8919 11.8919 13.7311 11.8919 16C11.8919 18.2689 13.7311 20.1081 16 20.1081C18.2689 20.1081 20.1081 18.2689 20.1081 16C20.1081 13.7311 18.2689 11.8919 16 11.8919ZM16 9.4415C18.1361 9.4415 18.3891 9.44963 19.2326 9.48812C20.0126 9.52375 20.4363 9.654 20.7181 9.76363C21.0915 9.90875 21.358 10.0821 21.638 10.3621C21.918 10.642 22.0914 10.9085 22.2365 11.282C22.346 11.5639 22.4764 11.9875 22.512 12.7675C22.5505 13.6111 22.5586 13.8641 22.5586 16.0002C22.5586 18.1364 22.5505 18.3894 22.512 19.2329C22.4764 20.0129 22.3461 20.4365 22.2365 20.7184C22.0914 21.0918 21.918 21.3583 21.638 21.6383C21.3581 21.9183 21.0916 22.0916 20.7181 22.2367C20.4363 22.3462 20.0126 22.4766 19.2326 22.5122C18.3891 22.5507 18.1361 22.5589 16 22.5589C13.8637 22.5589 13.6108 22.5507 12.7673 22.5122C11.9873 22.4766 11.5636 22.3464 11.2817 22.2367C10.9084 22.0916 10.6419 21.9183 10.3619 21.6383C10.082 21.3584 9.9085 21.0919 9.76338 20.7184C9.65387 20.4365 9.5235 20.0129 9.48787 19.2329C9.44938 18.3892 9.44125 18.1362 9.44125 16.0002C9.44125 13.8641 9.44938 13.6111 9.48787 12.7675C9.5235 11.9875 9.65375 11.5639 9.76338 11.282C9.9085 10.9086 10.0819 10.6421 10.3619 10.3621C10.6418 10.0821 10.9082 9.90875 11.2817 9.76363C11.5636 9.65412 11.9873 9.52375 12.7673 9.48812C13.6109 9.44963 13.8639 9.4415 16 9.4415ZM16 8C13.8274 8 13.5549 8.00925 12.7016 8.04812C11.8501 8.087 11.2685 8.22225 10.7597 8.42C10.2336 8.62437 9.7875 8.898 9.34275 9.34275C8.898 9.7875 8.62437 10.2336 8.42 10.7597C8.22225 11.2686 8.087 11.8501 8.04812 12.7016C8.00925 13.5549 8 13.8274 8 16C8 18.1726 8.00925 18.4451 8.04812 19.2984C8.087 20.1499 8.22225 20.7314 8.42 21.2402C8.62437 21.7664 8.898 22.2125 9.34275 22.6573C9.7875 23.102 10.2336 23.3755 10.7597 23.58C11.2686 23.7778 11.8501 23.913 12.7016 23.9519C13.5549 23.9907 13.8274 24 16 24C18.1726 24 18.4451 23.9907 19.2984 23.9519C20.1499 23.913 20.7314 23.7778 21.2402 23.58C21.7664 23.3755 22.2125 23.102 22.6573 22.6573C23.102 22.2125 23.3755 21.7664 23.58 21.2402C23.7778 20.7314 23.913 20.1499 23.9519 19.2984C23.9907 18.4451 24 18.1726 24 16C24 13.8274 23.9907 13.5549 23.9519 12.7016C23.913 11.8501 23.7778 11.2686 23.58 10.7597C23.3755 10.2336 23.102 9.7875 22.6573 9.34275C22.2125 8.898 21.7664 8.6245 21.2402 8.42C20.7314 8.22225 20.1499 8.087 19.2984 8.04812C18.4451 8.00925 18.1726 8 16 8Z" fill="#29C9D3"/>
</svg>
