<svg width="32" height="32" viewBox="0 0 32 32" fill="none" xmlns="http://www.w3.org/2000/svg">
<circle cx="16" cy="16" r="15.1" stroke="#29C9D3" stroke-width="1.8"/>
<path d="M22.75 9H9.25C8.01471 9 7 10.0354 7 11.2958V20.7042C7 21.9646 8.01471 23 9.25 23H22.75C23.9853 23 25 21.9646 25 20.7042V11.2958C25 10.0354 23.9853 9 22.75 9ZM23.8971 20.7042C23.8971 21.3344 23.3897 21.8746 22.75 21.8746H9.25C8.63235 21.8746 8.10294 21.3569 8.10294 20.7042V11.2958C8.10294 10.6656 8.61029 10.1254 9.25 10.1254H22.75C23.3676 10.1254 23.8971 10.6431 23.8971 11.2958V20.7042ZM22.7279 20.0064C22.9485 20.209 22.9706 20.5691 22.75 20.7942C22.6397 20.9068 22.4853 20.9743 22.3529 20.9743C22.2206 20.9743 22.0882 20.9293 21.9779 20.8167L17.5882 16.6302L16.3529 17.6881C16.2426 17.7781 16.1324 17.8232 16 17.8232C15.8676 17.8232 15.7353 17.7781 15.6471 17.6881L14.4118 16.6302L10.0221 20.8392C9.91176 20.9518 9.77941 20.9968 9.64706 20.9968C9.49265 20.9968 9.36029 20.9293 9.25 20.8167C9.05147 20.5916 9.05147 20.2315 9.27206 20.0289L13.5735 15.8875L9.29412 12.1961C9.05147 11.9936 9.02941 11.6334 9.22794 11.4084C9.42647 11.1608 9.77941 11.1383 10 11.3408L16 16.5177L22 11.3408C22.2426 11.1383 22.5735 11.1608 22.7721 11.4084C22.9706 11.6559 22.9485 11.9936 22.7059 12.1961L18.4265 15.8875L22.7279 20.0064Z" fill="#29C9D3"/>
</svg>
