<svg width="32" height="32" viewBox="0 0 32 32" fill="none" xmlns="http://www.w3.org/2000/svg">
<circle cx="16" cy="16" r="15.1" stroke="#29C9D3" stroke-width="1.8"/>
<path d="M16.3615 6C12.2982 6 9 9.29815 9 13.3615C9 17.2929 15.6755 25.4723 15.9657 25.8153C16.0712 25.9472 16.2032 26 16.3615 26C16.5198 26 16.6781 25.9208 16.7573 25.8153C17.0475 25.4723 23.723 17.2929 23.723 13.3615C23.723 9.29815 20.4248 6 16.3615 6ZM16.3615 24.628C14.277 21.9894 10.0554 16.1055 10.0554 13.3615C10.0554 9.87863 12.8786 7.05541 16.3615 7.05541C19.8443 7.05541 22.6675 9.87863 22.6675 13.3615C22.6675 16.3958 17.8127 22.781 16.3615 24.628Z" fill="#29C9D3"/>
<path d="M16.3612 8.98193C13.9337 8.98193 11.9812 10.9608 11.9812 13.3619C11.9812 15.7629 13.9337 17.7418 16.3612 17.7418C18.7886 17.7418 20.7411 15.7629 20.7411 13.3619C20.7411 10.9608 18.7886 8.98193 16.3612 8.98193ZM16.3612 16.6864C14.5142 16.6864 13.0366 15.1825 13.0366 13.3619C13.0366 11.5413 14.5142 10.0373 16.3612 10.0373C18.2081 10.0373 19.6857 11.5149 19.6857 13.3619C19.6857 15.2088 18.2081 16.6864 16.3612 16.6864Z" fill="#29C9D3"/>
</svg>
