<svg width="32" height="32" viewBox="0 0 32 32" fill="none" xmlns="http://www.w3.org/2000/svg">
<circle cx="16" cy="16" r="15.1" stroke="#29C9D3" stroke-width="1.8"/>
<path d="M14.8227 10.0001C14.0473 9.9983 13.356 10.041 12.7377 10.3399L12.7362 10.3413C12.4348 10.4875 12.2223 10.6732 12.0532 10.894C11.9686 11.0043 11.8819 11.1034 11.8355 11.355C11.8123 11.4808 11.7993 11.6847 11.9329 11.9049C12.0665 12.1251 12.3352 12.2504 12.5071 12.2729C12.6265 12.2886 12.8961 12.4015 12.921 12.4351L12.9224 12.4379C12.9224 12.4379 13.0269 12.7064 13.057 12.9455C13.0871 13.1845 13.0856 13.3783 13.0856 13.3783C13.0853 13.3976 13.0858 13.4169 13.0871 13.4362C13.0871 13.4362 13.1295 14.0624 13.1014 14.7094C13.0902 14.9672 13.0563 15.1966 13.0212 15.4017C12.7601 15.1178 12.3754 14.6038 11.8198 13.6561C11.2034 12.6041 10.7128 11.661 10.7128 11.661C10.6871 11.5788 10.5959 11.3232 10.2403 11.066C9.85144 10.7838 9.47558 10.7417 9.47558 10.7417C9.42843 10.7324 9.38047 10.7277 9.33238 10.7276L6.44261 10.729C6.44261 10.729 6.26935 10.7191 6.0617 10.7473C5.85405 10.7755 5.54138 10.7985 5.23973 11.1506L5.2383 11.152C4.96872 11.4692 4.98503 11.8197 5.01777 12.0177C5.05052 12.2157 5.12374 12.366 5.12374 12.366C5.12515 12.3688 5.12659 12.3716 5.12804 12.3744C5.12804 12.3744 7.49173 17.2677 10.1629 20.149C12.1027 22.2411 14.0937 22.2767 15.7363 22.2767H16.9621C17.275 22.2767 17.5581 22.2646 17.8714 22.0849C18.1847 21.9052 18.3955 21.4677 18.3955 21.1642C18.3955 20.8462 18.4437 20.5962 18.5029 20.4677C18.5445 20.3773 18.5774 20.3448 18.6289 20.3182C18.6398 20.325 18.6328 20.3211 18.6633 20.3422C18.7853 20.4267 18.9869 20.6194 19.206 20.8597C19.6443 21.3403 20.1417 21.9995 20.8098 22.4515C21.2885 22.7756 21.7406 22.9196 22.0843 22.9718C22.2997 23.0045 22.4669 22.9982 22.5855 22.9887L25.3235 23C25.3397 23.0001 25.356 22.9996 25.3722 22.9986C25.3722 22.9986 25.8439 23.004 26.3345 22.7152C26.5797 22.5708 26.869 22.2969 26.9631 21.8974C27.0572 21.4979 26.939 21.0839 26.7082 20.706V20.7046C26.7483 20.77 26.6719 20.6356 26.5937 20.51C26.5154 20.3844 26.4017 20.2152 26.2385 20.0052C25.9122 19.5853 25.3894 18.9977 24.5445 18.223H24.543C24.1139 17.8299 23.8241 17.5515 23.7053 17.3968C23.5866 17.242 23.6255 17.3233 23.6337 17.284C23.6502 17.2053 24.1652 16.4737 25.2132 15.0957C25.8503 14.2569 26.2974 13.6272 26.5922 13.1034C26.8871 12.5796 27.0997 12.126 26.9517 11.5708L26.9502 11.5679C26.8845 11.3242 26.705 11.0996 26.5206 10.9772C26.3363 10.8548 26.1615 10.8069 26.0051 10.7769C25.6923 10.717 25.4194 10.7276 25.166 10.7276C24.6346 10.7276 22.2769 10.7459 22.0829 10.7459C21.8536 10.7459 21.4744 10.8486 21.3067 10.9476C20.8851 11.1974 20.764 11.5256 20.764 11.5256C20.7564 11.5395 20.7492 11.5536 20.7425 11.5679C20.7425 11.5679 20.2562 12.6298 19.6299 13.6787C18.9954 14.7426 18.5267 15.25 18.2437 15.4848C18.2359 15.4431 18.2372 15.477 18.2322 15.4186C18.2069 15.1215 18.2351 14.7109 18.2351 14.3103C18.2351 13.2314 18.328 12.4763 18.2781 11.809C18.2531 11.4754 18.1903 11.1313 17.9673 10.815C17.7443 10.4987 17.3732 10.2932 17.0064 10.2059C16.7864 10.1536 16.5355 10.0177 15.6274 10.0085H15.626C15.3483 10.0058 15.0811 10.0006 14.8227 10.0001ZM15.6117 11.4523C16.4152 11.4604 16.2151 11.504 16.6613 11.6102C16.7997 11.6432 16.7662 11.643 16.763 11.6384C16.7598 11.6339 16.8004 11.7083 16.816 11.9162C16.8471 12.3319 16.7687 13.1585 16.7687 14.3103C16.7687 14.6244 16.7302 15.0726 16.7702 15.5398C16.8101 16.0071 16.9277 16.6067 17.4948 16.9681C17.7635 17.1397 18.0756 17.1505 18.3425 17.0852C18.6094 17.0198 18.8515 16.8838 19.1058 16.6833C19.6142 16.2824 20.1814 15.6058 20.8943 14.4104C21.5606 13.2946 22.0453 12.232 22.0614 12.1968C22.0645 12.1943 22.0677 12.1926 22.0714 12.1897C22.0806 12.1898 22.0711 12.1897 22.0829 12.1897C22.3566 12.1897 24.6709 12.1714 25.166 12.1714C25.2815 12.1714 25.3236 12.1783 25.4151 12.1813C25.3903 12.263 25.4179 12.2109 25.3092 12.4041C25.0811 12.8092 24.6608 13.4112 24.039 14.23C23.0172 15.5735 22.3839 16.1 22.1974 16.9921C22.1042 17.4382 22.2789 17.9326 22.5354 18.2667C22.7918 18.6009 23.1155 18.8871 23.5449 19.2805C24.3401 20.0095 24.8066 20.5392 25.0743 20.8836C25.2082 21.0558 25.2925 21.1802 25.345 21.2643C25.3974 21.3484 25.3844 21.3396 25.4524 21.4504C25.4971 21.5242 25.4806 21.4792 25.4882 21.5012C25.4003 21.5256 25.2938 21.555 25.2877 21.5562L22.5912 21.5449C22.5427 21.5449 22.4942 21.5496 22.4466 21.559C22.4466 21.559 22.4534 21.5668 22.3091 21.5449C22.1649 21.523 21.9355 21.4615 21.6404 21.2615C21.2842 21.0205 20.7857 20.4309 20.2972 19.8952C20.0529 19.6274 19.8094 19.3702 19.5067 19.1606C19.2041 18.9511 18.7512 18.754 18.2623 18.9054C17.7548 19.0623 17.3597 19.4523 17.1668 19.8713C17.0232 20.1831 17.0116 20.5088 16.9893 20.8329C16.9649 20.8347 16.9929 20.8329 16.9621 20.8329H15.7363C14.0707 20.8329 12.8881 20.9463 11.2455 19.1747C9.03609 16.7915 7.0118 12.8262 6.68175 12.1728L9.22498 12.1714C9.26968 12.1883 9.36535 12.2237 9.37104 12.2278L9.37391 12.2306C9.28094 12.1637 9.3782 12.2574 9.3782 12.2574C9.38718 12.279 9.39721 12.3002 9.40827 12.3209C9.40827 12.3209 9.91221 13.2902 10.5496 14.378C11.1748 15.4444 11.6304 16.1106 12.0704 16.5508C12.2904 16.7709 12.5124 16.9474 12.8093 17.0471C13.1061 17.1468 13.4894 17.1102 13.7472 16.971C14.274 16.687 14.3447 16.2683 14.4303 15.9022C14.516 15.5356 14.5501 15.145 14.5663 14.7714C14.5979 14.0462 14.5533 13.4185 14.5506 13.3798C14.5507 13.3662 14.5541 13.1044 14.5119 12.7692C14.4687 12.426 14.4206 12.0064 14.1052 11.5834L14.1038 11.582C14.1016 11.5791 14.0988 11.5793 14.0966 11.5764C14.5136 11.5175 14.8704 11.445 15.6117 11.4523ZM22.08 12.1601L22.07 12.1827C22.0684 12.1836 22.0689 12.1816 22.0671 12.1827C22.0702 12.1769 22.08 12.1601 22.08 12.1601Z" fill="#29C9D3"/>
</svg>
