<svg width="32" height="32" viewBox="0 0 32 32" fill="none" xmlns="http://www.w3.org/2000/svg">
<circle cx="16" cy="16" r="15.1" stroke="#29C9D3" stroke-width="1.8"/>
<path d="M24.6325 10.4524L24.6324 10.4524L24.6382 10.4587C24.8504 10.6877 25.0242 11.1144 25.1453 11.553C25.2026 11.7603 25.2428 11.95 25.2686 12.0879C25.2815 12.1565 25.2906 12.2117 25.2965 12.2488C25.2994 12.2674 25.3015 12.2815 25.3028 12.2904L25.3038 12.2972L25.3039 12.2982L25.3054 12.3111L25.3115 12.3669C25.3168 12.4161 25.3245 12.4888 25.3337 12.5817C25.3521 12.7674 25.3768 13.0334 25.4015 13.3529C25.4509 13.993 25.5 14.842 25.5 15.6872V17.3054C25.5 18.151 25.4509 19 25.4015 19.6401C25.3768 19.9595 25.3521 20.2254 25.3337 20.4111C25.3245 20.504 25.3168 20.5767 25.3115 20.6259L25.3054 20.6816L25.3039 20.6945L25.3038 20.6955L25.3028 20.7023C25.3015 20.7112 25.2994 20.7253 25.2965 20.7439C25.2906 20.781 25.2815 20.8362 25.2686 20.9048C25.2428 21.0426 25.2026 21.2323 25.1453 21.4397C25.0242 21.8782 24.8504 22.305 24.6382 22.5341L24.6381 22.534L24.6325 22.5403C24.0801 23.1574 23.4987 23.2201 23.0784 23.2655C23.034 23.2703 22.9914 23.2749 22.9508 23.2799C21.568 23.3861 19.8352 23.4413 18.4409 23.4698C17.7429 23.4841 17.1321 23.4916 16.6958 23.4956C16.4777 23.4976 16.3033 23.4987 16.1835 23.4993L16.0463 23.4999L16.011 23.5L16.0021 23.5L16.0012 23.5L15.9901 23.4999L15.9465 23.4994L15.7793 23.4975C15.6344 23.4958 15.4254 23.4932 15.1696 23.4896C14.658 23.4823 13.9594 23.4709 13.211 23.4543C11.7186 23.4213 10.0581 23.3685 9.27296 23.2902C9.16757 23.2702 9.05669 23.2552 8.94209 23.2396C8.438 23.1712 7.86219 23.093 7.36678 22.54L7.36683 22.54L7.36118 22.5339C7.14908 22.3049 6.97541 21.8783 6.85442 21.4397C6.79722 21.2324 6.75709 21.0427 6.73132 20.9049C6.71849 20.8362 6.70934 20.7811 6.70351 20.7439C6.70059 20.7253 6.69851 20.7113 6.69722 20.7023L6.6961 20.6944L6.69464 20.6815L6.68851 20.6257C6.68318 20.5765 6.67552 20.5038 6.6663 20.411C6.64785 20.2253 6.62319 19.9593 6.59851 19.6399C6.54907 18.9999 6.5 18.1509 6.5 17.3054V15.6872C6.5 14.842 6.54906 13.993 6.59851 13.3529C6.62319 13.0334 6.64785 12.7674 6.6663 12.5817C6.67552 12.4888 6.68318 12.4161 6.68851 12.3669L6.69464 12.3111L6.6961 12.2981L6.69722 12.2902C6.69851 12.2813 6.70059 12.2672 6.70351 12.2487C6.70934 12.2115 6.71848 12.1564 6.73132 12.0877C6.75709 11.9499 6.79722 11.7602 6.85441 11.5529C6.97541 11.1143 7.14908 10.6877 7.36123 10.4586L7.36128 10.4587L7.36678 10.4525C7.9206 9.83435 8.50295 9.77231 8.92299 9.72756C8.96674 9.7229 9.00873 9.71843 9.04874 9.71353C10.4313 9.60732 12.163 9.55377 13.5564 9.52689C14.2537 9.51345 14.864 9.50672 15.2998 9.50336C15.5177 9.50168 15.6919 9.50084 15.8115 9.50042L15.9486 9.50005L15.9839 9.50001L15.9928 9.5L15.995 9.5L15.9955 9.5H15.9956L15.9956 9V9.5H16.0044V9L16.0044 9.5H16.0045L16.005 9.5L16.0072 9.5L16.0161 9.50001L16.0514 9.50005L16.1885 9.50042C16.3081 9.50084 16.4823 9.50168 16.7002 9.50336C17.136 9.50672 17.7463 9.51345 18.4436 9.52689C19.837 9.55377 21.5686 9.60732 22.9512 9.71353C22.9913 9.71843 23.0333 9.72292 23.0771 9.72759C23.4969 9.77236 24.0793 9.83448 24.6325 10.4524ZM13.435 19.2662L13.4351 20.1137L14.1768 19.7038L19.58 16.7181L20.3692 16.2819L19.5812 15.8435L14.1775 12.8371L13.4343 12.4236L13.4344 13.2741L13.435 19.2662Z" stroke="#29C9D3"/>
</svg>
