<svg width="147" height="54" fill="none" xmlns="http://www.w3.org/2000/svg"><path fill-rule="evenodd" clip-rule="evenodd" d="M139.451 0c.855 0 1.579 2.368 1.846 5.67 2.97-.984 5.301-1.153 5.659-.334.306.698-1.004 1.945-3.132 3.239 2.124 1.321 3.405 2.608 3.142 3.317-.31.834-2.67.615-5.685-.418-.28 3.196-.994 5.467-1.83 5.467-.836 0-1.55-2.271-1.829-5.467-3.016 1.033-5.375 1.252-5.686.418-.265-.709 1.018-1.996 3.142-3.317-2.128-1.294-3.438-2.541-3.131-3.24.36-.818 2.69-.647 5.658.335.267-3.302.993-5.67 1.846-5.67zm4.028 8.78a31.93 31.93 0 01-2.099 1.123c-.008.232-.021.46-.033.685 2.103.635 3.506.643 3.781.118.207-.394-.472-1.114-1.647-1.923l-.002-.003zm-7.728-.612a28.483 28.483 0 011.765-.94c.017-.474.041-.934.074-1.38-2.771-.968-5.025-1.151-5.331-.591-.284.516 1.06 1.61 3.492 2.913v-.002zm-.327.612c.641.377 1.347.755 2.098 1.12.008.233.021.46.033.686-2.102.634-3.506.643-3.781.118-.207-.394.472-1.114 1.647-1.924h.003zm2.448 1.292l.521.243c-.161.056-.32.109-.476.16a12.301 12.301 0 01-.043-.403h-.002zm1.579.704c.482.202.956.385 1.416.552-.307 1.89-.826 3.136-1.416 3.136s-1.109-1.243-1.416-3.136c.46-.167.934-.35 1.418-.552h-.002zm3.701-2.608a28.807 28.807 0 00-1.766-.94 34.46 34.46 0 00-.074-1.38c2.771-.968 5.025-1.151 5.331-.591.284.516-1.06 1.61-3.491 2.913v-.002zm-1.996-1.051a27.47 27.47 0 00-1.434-.648l.023-.009c.468-.2.929-.383 1.378-.544.019.39.031.792.036 1.201h-.003zm-1.705-.762a27.95 27.95 0 00-1.662-.623c.178-3.134.855-5.467 1.662-5.467.807 0 1.484 2.333 1.662 5.467-.536.181-1.093.391-1.662.623zm-3.363 1.992c.439.23.911.464 1.411.702a31.922 31.922 0 01.009-1.514c-.509.271-.985.543-1.418.812h-.002zm1.714.845a34.832 34.832 0 001.649.722c.443-.177.905-.376 1.381-.598l.269-.124c.037-.57.055-1.167.058-1.782a32.346 32.346 0 00-1.708-.82c-.592.262-1.165.538-1.707.82 0 .615.02 1.213.058 1.782zm2.709 1.12c.161.057.321.11.476.16.016-.131.031-.267.043-.403l-.519.243zm2.303-1.967a23.21 23.21 0 00-1.417-.812 35.89 35.89 0 01.008 1.514c.501-.238.97-.472 1.411-.702h-.002zm-3.634-1.878l-.021-.009a24.382 24.382 0 00-1.378-.545c-.019.39-.031.79-.035 1.202.306-.147.621-.293.943-.436.164-.072.327-.144.491-.212z" fill="#fff"/><path d="M0 37.336h5.408l1.291-4.764h6.7l1.323 4.764h5.408l-7.3-22.712H7.302l-7.3 22.712H0zm7.93-9.211l1.232-4.417c.392-1.429.872-3.906.872-3.906h.06s.48 2.477.871 3.906l1.203 4.417H7.93zm12.038-2.193c0 7.434 5.048 11.785 10.545 11.785 2.103 0 4.357-.762 5.648-1.97h.06s-.029.477-.029.952v.635h4.386V24.5h-7.691v4.734h3.034v1.747c-1.231 1.015-2.794 1.652-4.357 1.652-3.334 0-6.159-2.574-6.159-6.894 0-3.368 1.832-6.417 6.34-6.417 1.831 0 3.996.922 5.227 2.097l2.523-4.163c-2.283-2.127-5.348-3.018-8.262-3.018-6.548 0-11.265 5.084-11.265 11.692v.002zm21.32 11.404h5.408l1.291-4.764h6.7l1.322 4.764h5.408l-7.3-22.712H48.59l-7.3 22.712h-.002zm7.93-9.211l1.232-4.417c.391-1.429.871-3.906.871-3.906h.06s.48 2.477.872 3.906l1.202 4.417h-4.236zm16.603 9.211h5.257V19.388h6.52v-4.764H59.302v4.764h6.52v17.948zm13.689 0h13.879v-4.764h-8.622v-4.29h6.548v-4.764h-6.548v-4.13h8.202v-4.764h-13.46v22.712zm15.01-11.404c0 6.734 4.357 11.785 11.265 11.785 3.935 0 6.76-1.747 8.651-3.813l-2.703-4.066c-1.471 1.556-3.574 2.795-5.708 2.795-4.145 0-6.068-3.462-6.068-6.83 0-3.272 1.772-6.48 6.068-6.48 1.923 0 3.997 1.048 5.377 2.32l2.434-4.194c-2.103-2.19-5.168-3.208-8.051-3.208-6.64 0-11.265 5.084-11.265 11.69zm21.891 11.404h5.257v-8.894h7.811v8.894h5.257V14.624h-5.257v9.084h-7.811v-9.084h-5.257v22.712z" fill="#fff"/><path fill-rule="evenodd" clip-rule="evenodd" d="M65.919 39.728h68.809v13.3h-68.81v-13.3z" fill="#fff"/><path d="M69.46 49.386h1.933c1.767 0 2.935-1.13 2.935-3.077 0-1.939-1.168-3.06-2.935-3.06H69.46v6.14-.003zm.813-.748v-4.642h1.06c1.291 0 2.154.807 2.154 2.313 0 1.521-.854 2.33-2.154 2.33h-1.06v-.001zm5.054.748h.814v-6.139h-.814v6.14zm1.807-3.077c0 1.878 1.292 3.182 2.854 3.182.716 0 1.389-.313 1.784-.748h.017s-.008.131-.008.26v.383h.716V46.3h-1.685v.749h.938v.886c-.42.462-1.02.766-1.646.766-1.209 0-2.13-.991-2.13-2.407 0-1.305.822-2.366 2.18-2.366.592 0 1.258.252 1.645.6l.412-.635c-.584-.52-1.364-.748-2.113-.748-1.693 0-2.96 1.391-2.96 3.164h-.004zm6.427 3.077h.813v-6.139h-.813v6.14zm3.516 0h.805v-5.39h1.997v-.749h-4.801v.749h1.997v5.39h.002zm2.382 0h.83l.584-1.764h2.187l.584 1.764h.838l-2.08-6.139h-.863l-2.08 6.14zm1.629-2.477l.65-1.94c.099-.321.221-.877.221-.877h.017s.132.556.23.878l.641 1.939h-1.76zm4.092 2.477h3.42v-.748h-2.605v-5.39h-.813v6.138h-.002zm5.07 0h.83l.584-1.764h2.187l.584 1.764h.838l-2.08-6.139h-.863l-2.08 6.14zm1.629-2.477l.65-1.94c.099-.321.221-.877.221-.877h.017s.132.556.23.878l.641 1.939h-1.759zm3.599-.6c0 1.878 1.292 3.182 2.854 3.182.716 0 1.389-.313 1.784-.748h.017s-.008.131-.008.26v.383h.716V46.3h-1.685v.749h.937v.886c-.42.462-1.02.766-1.645.766-1.209 0-2.13-.991-2.13-2.407 0-1.305.822-2.366 2.18-2.366.592 0 1.258.252 1.643.6l.412-.635c-.584-.52-1.364-.748-2.113-.748-1.693 0-2.96 1.391-2.96 3.164h-.002zm6.426 3.077h3.519v-.748h-2.705v-1.974h2.08v-.749h-2.08v-1.921h2.566v-.749h-3.38v6.141zm4.446 0h.813v-3.983c0-.348-.049-.895-.049-.895h.016s.271.556.476.895l2.589 3.983h.797v-6.139h-.805v3.983c0 .348.05.896.05.896h-.017s-.271-.556-.476-.895l-2.589-3.984h-.805v6.14zm5.638-3.103c0 1.799 1.175 3.208 2.976 3.208 1.029 0 1.751-.453 2.246-.974l-.437-.617c-.468.495-1.134.799-1.784.799-1.35 0-2.163-1.123-2.163-2.425 0-1.296.797-2.348 2.146-2.348.6 0 1.25.269 1.677.67l.411-.644c-.558-.565-1.372-.81-2.121-.81-1.726 0-2.951 1.357-2.951 3.139v.002zm7.324 3.103h.805v-2.6l1.95-3.539h-.921l-1.07 2.018c-.18.357-.354.775-.354.775h-.016s-.181-.418-.354-.775l-1.068-2.018h-.921l1.949 3.54v2.6z" fill="#2B2A29"/><path fill-rule="evenodd" clip-rule="evenodd" d="M10.142 42.293l.925 3.125 3.098-.035-2.525 1.898.99 3.103-2.489-1.955-2.485 1.955.99-3.103-2.526-1.898 3.096.035.926-3.125zm10.317 0l.925 3.125 3.098-.035-2.525 1.898.99 3.103-2.488-1.955-2.486 1.955.99-3.103-2.526-1.898 3.096.035.925-3.125zm10.317 0l.925 3.125 3.098-.035-2.527 1.898.99 3.103-2.486-1.955-2.486 1.955.99-3.103-2.526-1.898 3.097.035.925-3.125zm10.317 0l.925 3.125 3.099-.035-2.527 1.898.989 3.103-2.486-1.955-2.485 1.955.989-3.103-2.525-1.898 3.096.035.925-3.125zm10.317 0l.925 3.125 3.099-.035-2.527 1.898.989 3.103-2.486-1.955-2.485 1.955.989-3.103-2.527-1.898 3.098.035.925-3.125z" fill="#fff"/></svg>