<svg width="74" height="76" viewBox="0 0 74 76" fill="none" xmlns="http://www.w3.org/2000/svg">
<path d="M8.00145 8.63214C11.2909 5.32178 17.5637 5.86642 25.0459 9.42314C32.0566 12.7558 40.3039 18.7527 48.1249 26.6226C55.9471 34.4943 61.9069 42.7938 65.2187 49.8491C68.7529 57.3784 69.2946 63.6911 66.0052 67.0012C62.716 70.3116 56.443 69.767 48.9608 66.2102C41.95 62.8776 33.7028 56.8806 25.8817 49.0108L25.8795 49.0085C18.0587 41.1382 12.0996 32.8389 8.78781 25.7839C5.25357 18.2547 4.71235 11.9421 8.00152 8.63214H8.00145ZM23.675 12.3467C17.4596 9.39218 12.5022 8.68425 10.2777 10.9228C8.05324 13.1613 8.75693 18.1498 11.6929 24.4043C14.8515 31.1332 20.589 39.1032 28.1557 46.7178L28.1579 46.7201C35.7248 54.3342 43.6446 60.1081 50.3316 63.2867C56.5469 66.2412 61.5043 66.9491 63.7288 64.7105C65.9533 62.472 65.2494 57.4833 62.3134 51.2286C59.1545 44.4994 53.4165 36.5292 45.8497 28.9144C38.2818 21.2991 30.3619 15.5252 23.675 12.3466V12.3467Z" fill="#107A67"/>
<path d="M66.0049 8.63187C69.2941 11.9418 68.7529 18.2547 65.2186 25.784C61.9069 32.8392 55.9473 41.1387 48.1261 49.0095C40.3048 56.8801 32.0571 62.8772 25.0461 66.2099C17.564 69.7667 11.2907 70.3113 8.00149 67.0014C4.71232 63.6915 5.25355 57.3788 8.78804 49.8492C12.0998 42.794 18.0593 34.4946 25.8806 26.6237C33.7028 18.7525 41.95 12.7558 48.9608 9.42312C56.4429 5.86634 62.7158 5.32195 66.005 8.63187H66.0049ZM62.3134 24.4045C65.2494 18.1497 65.9531 13.1611 63.7286 10.9225C61.5041 8.68398 56.5469 9.39211 50.3316 12.3466C43.6449 15.5252 35.7248 21.2989 28.158 28.9132C20.5898 36.5294 14.8518 44.4996 11.6931 51.2288C8.7569 57.4838 8.05322 62.4722 10.2777 64.7108C12.5022 66.9493 17.4596 66.2412 23.6752 63.2864C30.3622 60.1079 38.2827 54.3337 45.8498 46.7189C53.4168 39.1039 59.1546 31.1337 62.3134 24.4045Z" fill="#107A67"/>
<path fill-rule="evenodd" clip-rule="evenodd" d="M2.71504 31.1924L30.4179 3.31487C34.0382 -0.328264 39.9619 -0.328264 43.5819 3.31487L71.285 31.1924C74.905 34.8353 74.905 40.7966 71.285 44.4395L43.5819 72.3171C39.9619 75.9602 34.0382 75.9602 30.4179 72.3171L2.71504 44.4395C-0.905012 40.7966 -0.905012 34.8353 2.71504 31.1924Z" fill="url(#paint0_linear_2_1337)"/>
<path d="M42.5659 6.90669L42.5659 6.90671L68.1031 32.6047C71.0525 35.5728 71.0525 40.4383 68.103 43.4063L42.5659 69.1043L43.2752 69.8092L42.5659 69.1044C39.6199 72.0691 34.796 72.0692 31.8497 69.1043L6.3128 43.4063C3.36334 40.4383 3.36334 35.5728 6.3128 32.6047L31.8497 6.90671C34.796 3.94189 39.6199 3.94193 42.5659 6.90669Z" fill="url(#paint1_linear_2_1337)" stroke="#E5FFDC" stroke-width="2"/>
<path d="M22.4202 50.193H28.9688L29.7873 38.212C29.9362 36.2028 29.7873 33.7471 29.7873 33.7471H29.8617C29.8617 33.7471 30.7547 36.5377 31.3501 38.212L34.1406 45.9141H39.7218L42.5124 38.212C43.1077 36.5377 44.0007 33.7471 44.0007 33.7471H44.0751C44.0751 33.7471 43.9263 36.2028 44.0751 38.212L44.8937 50.193H51.4051L49.247 23.5894H42.1775L38.3079 34.8261C37.7126 36.5377 36.9684 39.2167 36.9684 39.2167H36.894C36.894 39.2167 36.1499 36.5377 35.5545 34.8261L31.6849 23.5894H24.6154L22.4202 50.193Z" fill="#E0FFD5"/>
<defs>
<linearGradient id="paint0_linear_2_1337" x1="16.5665" y1="58.3783" x2="57.6904" y2="17.5122" gradientUnits="userSpaceOnUse">
<stop stop-color="#0CA488"/>
<stop offset="0.84375" stop-color="#0B6B5A"/>
</linearGradient>
<linearGradient id="paint1_linear_2_1337" x1="18.372" y1="56.9602" x2="56.2807" y2="19.2892" gradientUnits="userSpaceOnUse">
<stop stop-color="#0CA488"/>
<stop offset="0.84375" stop-color="#0B6B5A"/>
</linearGradient>
</defs>
</svg>
