<svg width="40" height="36" viewBox="0 0 40 36" fill="none" xmlns="http://www.w3.org/2000/svg">
<path d="M8.28819 28.2172C8.03727 28.2172 7.78636 28.1643 7.54865 28.0587C7.10845 27.8606 6.77389 27.504 6.60221 27.055L3.22586 18.1541C3.05418 17.7051 3.07178 17.2165 3.26547 16.7763C3.46357 16.3361 3.82013 16.0015 4.26914 15.8299L15.9741 11.3882L20.6315 23.6567L8.93089 28.0983C8.72399 28.1776 8.50829 28.2172 8.28819 28.2172ZM15.2126 13.0962L4.74456 17.0712C4.6257 17.1152 4.52886 17.2077 4.47603 17.3221C4.42321 17.441 4.41881 17.5687 4.46283 17.6919L7.83918 26.5928C7.8832 26.7117 7.97565 26.8085 8.0901 26.8613C8.20895 26.9142 8.33661 26.9186 8.45987 26.8745L18.9279 22.8995L15.2126 13.0962Z" fill="#083ABB"/>
<path d="M3.96582 27.7506C3.01498 27.7506 2.11697 27.1695 1.7604 26.2275L0.153664 21.9883C-0.30855 20.7734 0.307735 19.4088 1.5227 18.9465L4.52048 17.8108L7.80439 26.4564L4.7978 27.5965C4.52488 27.7022 4.24315 27.7506 3.96582 27.7506ZM3.74572 19.5144L1.98491 20.1835C1.45226 20.386 1.17934 20.9847 1.38183 21.5217L2.98857 25.7609C3.19106 26.2935 3.78974 26.5665 4.32679 26.364L6.0876 25.6948L3.74572 19.5144Z" fill="#083ABB"/>
<path d="M34.2295 26.4608C34.1679 26.4608 34.1063 26.4564 34.0446 26.4432L19.3022 23.8592L14.843 12.1234L24.1577 0.409588C24.3998 0.105848 24.7872 -0.0482232 25.1745 0.0134052C25.5575 0.0750336 25.8833 0.334753 26.0197 0.700122L35.2376 24.9949C35.374 25.3603 35.308 25.7697 35.0615 26.069C34.859 26.3199 34.5465 26.4608 34.2295 26.4608ZM20.2663 22.6883L33.8597 25.0698L24.9368 1.55852L16.3485 12.3611L20.2663 22.6883Z" fill="#083ABB"/>
<path d="M14.3361 36.0001C14.0103 36.0001 13.6978 35.8196 13.5437 35.5114L9.03164 26.6502L16.4579 23.8329L17.3383 26.1483C17.664 27.0111 17.5364 27.9708 16.9949 28.7191L16.5459 29.3398L18.6545 33.3589C18.7733 33.5834 18.7909 33.8519 18.6985 34.0896C18.6061 34.3273 18.4212 34.5166 18.1791 34.609L14.653 35.9472C14.5518 35.9825 14.4417 36.0001 14.3361 36.0001ZM10.8761 27.3589L14.543 34.5694L17.259 33.5393L14.992 29.2253L15.9252 27.94C16.207 27.557 16.273 27.0595 16.1013 26.6149L15.6919 25.5364L10.8761 27.3589Z" fill="#083ABB"/>
<path d="M38.7186 10.4823L38.25 9.24763L34.3444 10.7298L34.813 11.9645L38.7186 10.4823Z" fill="#083ABB"/>
<path d="M34.2743 3.08204L33.3211 2.16804L30.4268 5.18656L31.38 6.10055L34.2743 3.08204Z" fill="#083ABB"/>
<path d="M39.8298 17.7391L35.666 17.4012L35.5592 18.7175L39.7229 19.0554L39.8298 17.7391Z" fill="#083ABB"/>
<path d="M14.2322 17.1105L13.7637 15.8759L7.29829 18.3296L7.76684 19.5642L14.2322 17.1105Z" fill="#083ABB"/>
</svg>
