<svg width="38" height="38" viewBox="0 0 38 38" fill="none" xmlns="http://www.w3.org/2000/svg">
<path d="M1.44997 33.3343H11.5104L11.1628 36.5008C11.1489 36.628 11.1896 36.755 11.275 36.8504C11.3603 36.9455 11.4822 37 11.6101 37H36.55C36.6779 37 36.7996 36.9455 36.8851 36.8504C36.9703 36.7552 37.0112 36.6282 36.9973 36.501L35.2037 20.0993C35.1787 19.8712 34.986 19.6983 34.7563 19.6983H30.7408V18.7704C30.7408 15.6116 28.3743 12.9827 25.267 12.4405L25.0451 9.25139C25.0286 9.01562 24.8326 8.83259 24.5962 8.83259H20.9856V7.828C20.9856 4.06299 17.8176 1 13.9236 1C10.0296 1 6.86161 4.06299 6.86161 7.828V8.83259H3.25085C3.01552 8.83259 2.81996 9.01387 2.80217 9.24831L1.00129 32.85C0.991839 32.975 1.03469 33.0983 1.11994 33.1902C1.20497 33.282 1.32473 33.3343 1.44997 33.3343ZM36.0481 36.1H12.1122L13.8142 20.5983H34.3529L36.0481 36.1ZM18.3263 19.6983V18.7704C18.3263 15.7168 20.909 13.2326 24.0836 13.2326C24.1975 13.2326 24.3088 13.2428 24.4212 13.2491L24.87 19.6983H18.3263ZM29.8408 18.7704V19.6983H25.7721L25.3315 13.3674C27.9075 13.9178 29.8408 16.1294 29.8408 18.7704ZM7.76161 7.828C7.76161 4.55935 10.5258 1.9 13.9236 1.9C17.3215 1.9 20.0856 4.55935 20.0856 7.828V8.83259H7.76161V7.828ZM3.66789 9.73259H24.1765L24.3584 12.3461C24.2665 12.3424 24.1763 12.3326 24.0836 12.3326C20.4128 12.3326 17.4263 15.2205 17.4263 18.7704V19.6983H13.411C13.1814 19.6983 12.9887 19.871 12.9636 20.0991L11.6092 32.4343H1.93557L3.66789 9.73259Z" fill="#083ABB" stroke="#083ABB" stroke-width="0.4"/>
</svg>
