<svg width="36" height="36" viewBox="0 0 36 36" fill="none" xmlns="http://www.w3.org/2000/svg">
<path d="M35.2171 4.43376H31.5643V0.782922C31.5643 0.46636 31.3737 0.181101 31.0814 0.0597981C30.7887 -0.0615051 30.453 0.00501601 30.2284 0.229623L26.8499 3.60772C24.0607 1.8547 20.854 0.931225 17.5342 0.931225C7.86593 0.930834 0 8.79676 0 18.4654C0 28.1341 7.86593 36 17.5346 36C27.2032 36 35.0692 28.1341 35.0692 18.4654C35.0692 15.1452 34.1453 11.9381 32.3915 9.14815L35.7708 5.76966C35.9946 5.54584 36.0615 5.20893 35.9406 4.91662C35.8189 4.62432 35.5336 4.43376 35.2171 4.43376ZM33.5036 18.4654C33.5036 27.2709 26.3396 34.4348 17.5346 34.4348C8.72953 34.4348 1.5652 27.2709 1.5652 18.4654C1.5652 9.65997 8.72914 2.49604 17.5346 2.49604C20.4373 2.49604 23.2437 3.27316 25.71 4.74719L23.4444 7.01282C23.2977 7.15956 23.2151 7.35873 23.2151 7.56612V9.24989C21.5161 8.20316 19.551 7.63069 17.5354 7.63069H17.5346C11.5602 7.63069 6.70024 12.491 6.70024 18.465C6.70024 24.439 11.5606 29.2994 17.5346 29.2994C23.5078 29.2994 28.3674 24.439 28.3674 18.465C28.3674 16.4487 27.7945 14.482 26.7474 12.7822H28.4319C28.6393 12.7822 28.8385 12.7 28.9852 12.5533L31.2516 10.2876C32.7261 12.7556 33.5036 15.5624 33.5036 18.4654ZM23.2147 11.6775L19.8491 15.0435C19.1882 14.5951 18.3911 14.3321 17.5342 14.3321C15.2549 14.3321 13.4009 16.1865 13.4009 18.4654C13.4009 20.7444 15.2549 22.5987 17.5342 22.5987C19.8127 22.5987 21.6671 20.7444 21.6671 18.4654C21.6671 17.6081 21.4046 16.811 20.9557 16.1501L24.3229 12.7829H24.8453C26.1049 14.4033 26.8018 16.4044 26.8018 18.4658C26.8018 23.577 22.6446 27.7349 17.5342 27.7349C12.423 27.7349 8.26506 23.577 8.26506 18.4658C8.26506 13.3546 12.4234 9.19589 17.5346 9.19589C17.535 9.19589 17.535 9.19589 17.5354 9.19589C19.596 9.19589 21.5951 9.8928 23.2151 11.1516V11.6775H23.2147ZM20.1019 18.4654C20.1019 19.8815 18.9503 21.0335 17.5342 21.0335C16.1181 21.0335 14.9661 19.8815 14.9661 18.4654C14.9661 17.0493 16.1181 15.8973 17.5342 15.8973C17.9572 15.8973 18.3559 16.0022 18.7081 16.1841L16.9801 17.9125C16.6745 18.2181 16.6745 18.7135 16.9801 19.0191C17.1331 19.1721 17.3331 19.2484 17.5334 19.2484C17.7338 19.2484 17.9337 19.1721 18.0867 19.0191L19.8147 17.2911C19.997 17.6433 20.1019 18.042 20.1019 18.4654ZM30.838 8.48764C30.831 8.49468 30.8243 8.50094 30.8177 8.50798L28.1075 11.2174H24.7799V7.8909L27.485 5.18584C27.4955 5.17606 27.5057 5.16549 27.5159 5.15493L29.9991 2.67212V5.21597C29.9991 5.64797 30.3497 5.99857 30.7817 5.99857H33.3275L30.838 8.48764Z" fill="#083ABB"/>
</svg>
