<svg width="36" height="34" viewBox="0 0 36 34" fill="none" xmlns="http://www.w3.org/2000/svg">
<path d="M0.673713 15.3047H5.79986C5.57727 14.5038 5.36276 13.7072 5.18759 12.8934C4.47453 9.58195 5.9055 7.29133 9.63572 8.35741C9.8734 8.42532 10.1132 8.5094 10.3547 8.60911L10.1003 5.22599C9.85184 2.71439 10.2809 0.246444 13.3314 0.0998443C16.1168 -0.0332814 19.4725 -0.0332814 22.2579 0.0998443C25.2944 0.245366 25.7369 2.69445 25.4906 5.20066L25.2346 8.60911C25.4766 8.50994 25.7159 8.42532 25.9536 8.35741C29.686 7.28971 31.1153 9.58465 30.4017 12.8961C30.2265 13.7051 30.0163 14.5087 29.7894 15.3047H35.3263C35.6982 15.3047 36 15.6066 36 15.9785V18.1171C36 18.489 35.6982 18.7908 35.3263 18.7908H34.0748V32.5911C34.0748 32.963 33.773 33.2649 33.4011 33.2649H2.59892C2.22703 33.2649 1.9252 32.963 1.9252 32.5911V18.7908H0.673713C0.301824 18.7908 0 18.489 0 18.1171V15.9785C0 15.6066 0.301824 15.3047 0.673713 15.3047ZM18.7988 2.29022C19.2321 2.29022 19.583 2.64109 19.583 3.07442C19.583 3.50776 19.2321 3.85862 18.7988 3.85862C18.3654 3.85862 18.0146 3.50776 18.0146 3.07442C18.0146 2.64109 18.3654 2.29022 18.7988 2.29022ZM14.7802 2.29022C15.2135 2.29022 15.5644 2.64109 15.5644 3.07442C15.5644 3.50776 15.2135 3.85862 14.7802 3.85862C14.3469 3.85862 13.996 3.50776 13.996 3.07442C13.996 2.64109 14.3469 2.29022 14.7802 2.29022ZM20.808 2.29022C21.2414 2.29022 21.5922 2.64109 21.5922 3.07442C21.5922 3.50776 21.2414 3.85862 20.808 3.85862C20.3747 3.85862 20.0238 3.50776 20.0238 3.07442C20.0238 2.64109 20.3747 2.29022 20.808 2.29022ZM22.8173 2.29022C23.2507 2.29022 23.6015 2.64109 23.6015 3.07442C23.6015 3.50776 23.2507 3.85862 22.8173 3.85862C22.384 3.85862 22.0331 3.50776 22.0331 3.07442C22.0331 2.64109 22.384 2.29022 22.8173 2.29022ZM16.7895 2.29022C17.2228 2.29022 17.5737 2.64109 17.5737 3.07442C17.5737 3.50776 17.2228 3.85862 16.7895 3.85862C16.3561 3.85862 16.0053 3.50776 16.0053 3.07442C16.0053 2.64109 16.3561 2.29022 16.7895 2.29022ZM12.7709 2.29022C13.2042 2.29022 13.5551 2.64109 13.5551 3.07442C13.5551 3.50776 13.2042 3.85862 12.7709 3.85862C12.3376 3.85862 11.9867 3.50776 11.9867 3.07442C11.9867 2.64109 12.3376 2.29022 12.7709 2.29022ZM16.7895 13.0939C17.2228 13.0939 17.5737 13.4448 17.5737 13.8781C17.5737 14.3114 17.2228 14.6623 16.7895 14.6623C16.3561 14.6623 16.0053 14.3114 16.0053 13.8781C16.0053 13.4448 16.3561 13.0939 16.7895 13.0939ZM20.808 10.3721C21.2414 10.3721 21.5922 10.723 21.5922 11.1563C21.5922 11.5896 21.2414 11.9405 20.808 11.9405C20.3747 11.9405 20.0238 11.5896 20.0238 11.1563C20.0238 10.723 20.3747 10.3721 20.808 10.3721ZM16.7895 7.65028C17.2228 7.65028 17.5737 8.00115 17.5737 8.43448C17.5737 8.86782 17.2228 9.21869 16.7895 9.21869C16.3561 9.21869 16.0053 8.86782 16.0053 8.43448C16.0053 8.00115 16.3561 7.65028 16.7895 7.65028ZM18.7988 4.92848C19.2321 4.92848 19.583 5.27935 19.583 5.71268C19.583 6.14602 19.2321 6.49689 18.7988 6.49689C18.3654 6.49689 18.0146 6.14602 18.0146 5.71268C18.0146 5.27935 18.3654 4.92848 18.7988 4.92848ZM14.7802 4.92848C15.2135 4.92848 15.5644 5.27935 15.5644 5.71268C15.5644 6.14602 15.2135 6.49689 14.7802 6.49689C14.3469 6.49689 13.996 6.14602 13.996 5.71268C13.996 5.27935 14.3469 4.92848 14.7802 4.92848ZM20.808 4.92848C21.2414 4.92848 21.5922 5.27935 21.5922 5.71268C21.5922 6.14602 21.2414 6.49689 20.808 6.49689C20.3747 6.49689 20.0238 6.14602 20.0238 5.71268C20.0238 5.27935 20.3747 4.92848 20.808 4.92848ZM20.808 13.0939C21.2414 13.0939 21.5922 13.4448 21.5922 13.8781C21.5922 14.3114 21.2414 14.6623 20.808 14.6623C20.3747 14.6623 20.0238 14.3114 20.0238 13.8781C20.0238 13.4448 20.3747 13.0939 20.808 13.0939ZM18.7988 10.3721C19.2321 10.3721 19.583 10.723 19.583 11.1563C19.583 11.5896 19.2321 11.9405 18.7988 11.9405C18.3654 11.9405 18.0146 11.5896 18.0146 11.1563C18.0146 10.723 18.3654 10.3721 18.7988 10.3721ZM20.808 7.65028C21.2414 7.65028 21.5922 8.00115 21.5922 8.43448C21.5922 8.86782 21.2414 9.21869 20.808 9.21869C20.3747 9.21869 20.0238 8.86782 20.0238 8.43448C20.0238 8.00115 20.3747 7.65028 20.808 7.65028ZM22.8173 4.92848C23.2507 4.92848 23.6015 5.27935 23.6015 5.71268C23.6015 6.14602 23.2507 6.49689 22.8173 6.49689C22.384 6.49689 22.0331 6.14602 22.0331 5.71268C22.0331 5.27935 22.384 4.92848 22.8173 4.92848ZM18.7988 13.0939C19.2321 13.0939 19.583 13.4448 19.583 13.8781C19.583 14.3114 19.2321 14.6623 18.7988 14.6623C18.3654 14.6623 18.0146 14.3114 18.0146 13.8781C18.0146 13.4448 18.3654 13.0939 18.7988 13.0939ZM16.7895 10.3721C17.2228 10.3721 17.5737 10.723 17.5737 11.1563C17.5737 11.5896 17.2228 11.9405 16.7895 11.9405C16.3561 11.9405 16.0053 11.5896 16.0053 11.1563C16.0053 10.723 16.3561 10.3721 16.7895 10.3721ZM18.7988 7.65028C19.2321 7.65028 19.583 8.00115 19.583 8.43448C19.583 8.86782 19.2321 9.21869 18.7988 9.21869C18.3654 9.21869 18.0146 8.86782 18.0146 8.43448C18.0146 8.00115 18.3654 7.65028 18.7988 7.65028ZM16.7895 4.92848C17.2228 4.92848 17.5737 5.27935 17.5737 5.71268C17.5737 6.14602 17.2228 6.49689 16.7895 6.49689C16.3561 6.49689 16.0053 6.14602 16.0053 5.71268C16.0053 5.27935 16.3561 4.92848 16.7895 4.92848ZM14.7802 13.0939C15.2135 13.0939 15.5644 13.4448 15.5644 13.8781C15.5644 14.3114 15.2135 14.6623 14.7802 14.6623C14.3469 14.6623 13.996 14.3114 13.996 13.8781C13.996 13.4448 14.3469 13.0939 14.7802 13.0939ZM14.7802 10.3721C15.2135 10.3721 15.5644 10.723 15.5644 11.1563C15.5644 11.5896 15.2135 11.9405 14.7802 11.9405C14.3469 11.9405 13.996 11.5896 13.996 11.1563C13.996 10.723 14.3469 10.3721 14.7802 10.3721ZM14.7802 7.65028C15.2135 7.65028 15.5644 8.00115 15.5644 8.43448C15.5644 8.86782 15.2135 9.21869 14.7802 9.21869C14.3469 9.21869 13.996 8.86782 13.996 8.43448C13.996 8.00115 14.3469 7.65028 14.7802 7.65028ZM12.7709 4.92848C13.2042 4.92848 13.5551 5.27935 13.5551 5.71268C13.5551 6.14602 13.2042 6.49689 12.7709 6.49689C12.3376 6.49689 11.9867 6.14602 11.9867 5.71268C11.9867 5.27935 12.3376 4.92848 12.7709 4.92848ZM25.1193 10.1452L24.7312 15.3047H28.3892C28.6409 14.4101 28.8894 13.5245 29.0855 12.6142C29.576 10.3317 29.0629 8.87051 26.3222 9.65202C25.9315 9.76359 25.5305 9.93121 25.1193 10.1452ZM23.3816 15.3047C23.6382 11.892 23.8963 8.47976 24.154 5.067C24.3173 3.40535 24.3178 1.54375 22.1943 1.44188C19.4444 1.31037 16.1449 1.31037 13.395 1.44188C11.2532 1.54482 11.271 3.44146 11.4397 5.11011L12.2077 15.3047H23.3816ZM7.20011 15.3047H10.8581L10.47 10.1452C10.0588 9.93121 9.65835 9.76359 9.26706 9.65202C6.52747 8.87051 6.01222 10.3317 6.50376 12.6142C6.69994 13.5245 6.94841 14.4101 7.20011 15.3047ZM32.7274 18.7908H3.27263V31.9174H32.7274V18.7908ZM34.6526 16.6522C23.5509 16.6522 12.4491 16.6522 1.34743 16.6522V17.4434H34.6526V16.6522Z" fill="#083ABB"/>
</svg>
