<svg width="38" height="38" viewBox="0 0 38 38" fill="none" xmlns="http://www.w3.org/2000/svg">
<path fill-rule="evenodd" clip-rule="evenodd" d="M1.32976 1.00251C1.14265 1.04443 0.998186 1.22935 1.00279 1.42109C0.996512 13.1455 1.00279 24.868 1.00279 36.5814C1.00279 36.8006 1.20221 37 1.42131 37H36.5796C36.7987 37 36.9981 36.8006 36.9981 36.5814C37.0023 24.8604 36.9981 13.1467 36.9981 1.42109C36.9981 1.20193 36.7987 1.00253 36.5796 1.00251H1.42131C1.39075 0.999163 1.36011 0.999163 1.32976 1.00251ZM1.83992 1.83967H36.161V18.3734L31.3346 14.5146C31.2577 14.4531 31.1584 14.42 31.0599 14.4231C30.9701 14.426 30.8816 14.4585 30.8115 14.5146C27.3234 17.3083 23.8157 20.0774 20.3085 22.8469L15.6651 19.6291C15.5969 19.5802 15.5137 19.5524 15.4297 19.5506C15.3356 19.5506 15.2417 19.5833 15.1681 19.6422C11.5019 22.5106 7.8417 25.3866 4.18117 28.2622H1.83992V1.83967ZM31.073 15.378L36.161 19.446V28.2622H5.54147C8.83635 25.6653 12.14 23.0795 15.4428 20.4924L25.0041 27.1373C25.1856 27.264 25.4659 27.2142 25.5926 27.0326C25.7193 26.8511 25.6695 26.5708 25.488 26.4441L21.0279 23.344C24.3895 20.7053 27.7303 18.0405 31.073 15.378ZM1.83992 29.0994C13.2751 29.0994 24.7208 29.0994 36.161 29.0994V36.1628H1.83992V29.0994Z" fill="#083ABB"/>
<path fill-rule="evenodd" clip-rule="evenodd" d="M10.4334 12.6327C8.73416 12.6327 7.34448 14.0182 7.34448 15.7218C7.34448 17.4219 8.73336 18.8109 10.4334 18.8109C12.1334 18.8109 13.5223 17.4219 13.5223 15.7218C13.5223 14.0182 12.1326 12.6327 10.4334 12.6327ZM10.4334 13.4699C11.6808 13.4699 12.6852 14.4703 12.6852 15.7218C12.6852 16.9685 11.68 17.9737 10.4334 17.9737C9.1868 17.9737 8.1816 16.9685 8.1816 15.7218C8.1816 14.4703 9.186 13.4699 10.4334 13.4699Z" fill="#083ABB"/>
<path fill-rule="evenodd" clip-rule="evenodd" d="M1.32976 1.00251C1.14265 1.04443 0.998186 1.22935 1.00279 1.42109C0.996512 13.1455 1.00279 24.868 1.00279 36.5814C1.00279 36.8006 1.20221 37 1.42131 37H36.5796C36.7987 37 36.9981 36.8006 36.9981 36.5814C37.0023 24.8604 36.9981 13.1467 36.9981 1.42109C36.9981 1.20193 36.7987 1.00253 36.5796 1.00251H1.42131C1.39075 0.999163 1.36011 0.999163 1.32976 1.00251ZM1.83992 1.83967H36.161V18.3734L31.3346 14.5146C31.2577 14.4531 31.1584 14.42 31.0599 14.4231C30.9701 14.426 30.8816 14.4585 30.8115 14.5146C27.3234 17.3083 23.8157 20.0774 20.3085 22.8469L15.6651 19.6291C15.5969 19.5802 15.5137 19.5524 15.4297 19.5506C15.3356 19.5506 15.2417 19.5833 15.1681 19.6422C11.5019 22.5106 7.8417 25.3866 4.18117 28.2622H1.83992V1.83967ZM31.073 15.378L36.161 19.446V28.2622H5.54147C8.83635 25.6653 12.14 23.0795 15.4428 20.4924L25.0041 27.1373C25.1856 27.264 25.4659 27.2142 25.5926 27.0326C25.7193 26.8511 25.6695 26.5708 25.488 26.4441L21.0279 23.344C24.3895 20.7053 27.7303 18.0405 31.073 15.378ZM1.83992 29.0994C13.2751 29.0994 24.7208 29.0994 36.161 29.0994V36.1628H1.83992V29.0994Z" stroke="#083ABB" stroke-width="0.6"/>
<path fill-rule="evenodd" clip-rule="evenodd" d="M10.4334 12.6327C8.73416 12.6327 7.34448 14.0182 7.34448 15.7218C7.34448 17.4219 8.73336 18.8109 10.4334 18.8109C12.1334 18.8109 13.5223 17.4219 13.5223 15.7218C13.5223 14.0182 12.1326 12.6327 10.4334 12.6327ZM10.4334 13.4699C11.6808 13.4699 12.6852 14.4703 12.6852 15.7218C12.6852 16.9685 11.68 17.9737 10.4334 17.9737C9.1868 17.9737 8.1816 16.9685 8.1816 15.7218C8.1816 14.4703 9.186 13.4699 10.4334 13.4699Z" stroke="#083ABB" stroke-width="0.6"/>
</svg>
