<svg width="36" height="36" viewBox="0 0 36 36" fill="none" xmlns="http://www.w3.org/2000/svg">
<path d="M0.75 0.75H35.25V35.25H0.75V0.75Z" stroke="#083ABB" stroke-width="1.5"/>
<path d="M12.1875 19.7617C12.1875 19.4297 12.0703 19.1758 11.8359 19C11.6016 18.8203 11.1797 18.6328 10.5703 18.4375C9.96094 18.2383 9.47852 18.043 9.12305 17.8516C8.1543 17.3281 7.66992 16.623 7.66992 15.7363C7.66992 15.2754 7.79883 14.8652 8.05664 14.5059C8.31836 14.1426 8.69141 13.8594 9.17578 13.6562C9.66406 13.4531 10.2109 13.3516 10.8164 13.3516C11.4258 13.3516 11.9688 13.4629 12.4453 13.6855C12.9219 13.9043 13.291 14.2148 13.5527 14.6172C13.8184 15.0195 13.9512 15.4766 13.9512 15.9883H12.1934C12.1934 15.5977 12.0703 15.2949 11.8242 15.0801C11.5781 14.8613 11.2324 14.752 10.7871 14.752C10.3574 14.752 10.0234 14.8438 9.78516 15.0273C9.54688 15.207 9.42773 15.4453 9.42773 15.7422C9.42773 16.0195 9.56641 16.252 9.84375 16.4395C10.125 16.627 10.5371 16.8027 11.0801 16.9668C12.0801 17.2676 12.8086 17.6406 13.2656 18.0859C13.7227 18.5312 13.9512 19.0859 13.9512 19.75C13.9512 20.4883 13.6719 21.0684 13.1133 21.4902C12.5547 21.9082 11.8027 22.1172 10.8574 22.1172C10.2012 22.1172 9.60352 21.998 9.06445 21.7598C8.52539 21.5176 8.11328 21.1875 7.82812 20.7695C7.54688 20.3516 7.40625 19.8672 7.40625 19.3164H9.16992C9.16992 20.2578 9.73242 20.7285 10.8574 20.7285C11.2754 20.7285 11.6016 20.6445 11.8359 20.4766C12.0703 20.3047 12.1875 20.0664 12.1875 19.7617Z" fill="#083ABB"/>
<path d="M20.2793 18.3027H16.9043V20.5879H20.8652V22H15.1465V13.4688H20.8535V14.8926H16.9043V16.9258H20.2793V18.3027Z" fill="#083ABB"/>
<path d="M28.9043 17.9277C28.9043 18.7676 28.7559 19.5039 28.459 20.1367C28.1621 20.7695 27.7363 21.2578 27.1816 21.6016C26.6309 21.9453 25.998 22.1172 25.2832 22.1172C24.5762 22.1172 23.9453 21.9473 23.3906 21.6074C22.8359 21.2676 22.4062 20.7832 22.1016 20.1543C21.7969 19.5215 21.6426 18.7949 21.6387 17.9746V17.5527C21.6387 16.7129 21.7891 15.9746 22.0898 15.3379C22.3945 14.6973 22.8223 14.207 23.373 13.8672C23.9277 13.5234 24.5605 13.3516 25.2715 13.3516C25.9824 13.3516 26.6133 13.5234 27.1641 13.8672C27.7188 14.207 28.1465 14.6973 28.4473 15.3379C28.752 15.9746 28.9043 16.7109 28.9043 17.5469V17.9277ZM27.123 17.541C27.123 16.6465 26.9629 15.9668 26.6426 15.502C26.3223 15.0371 25.8652 14.8047 25.2715 14.8047C24.6816 14.8047 24.2266 15.0352 23.9062 15.4961C23.5859 15.9531 23.4238 16.625 23.4199 17.5117V17.9277C23.4199 18.7988 23.5801 19.4746 23.9004 19.9551C24.2207 20.4355 24.6816 20.6758 25.2832 20.6758C25.873 20.6758 26.3262 20.4453 26.6426 19.9844C26.959 19.5195 27.1191 18.8438 27.123 17.957V17.541Z" fill="#083ABB"/>
</svg>
