<svg width="38" height="38" viewBox="0 0 38 38" fill="none" xmlns="http://www.w3.org/2000/svg">
<path d="M1 1V0.25C0.585786 0.25 0.25 0.585786 0.25 1L1 1ZM37 1H37.75C37.75 0.585786 37.4142 0.25 37 0.25V1ZM37 37V37.75C37.4142 37.75 37.75 37.4142 37.75 37H37ZM1 37H0.25C0.25 37.4142 0.585786 37.75 1 37.75L1 37ZM4.65716 20.6386C4.45754 20.2756 4.0015 20.1432 3.63856 20.3428C3.27562 20.5425 3.14322 20.9985 3.34284 21.3614L4.65716 20.6386ZM9.5 31L8.84284 31.3614C8.96359 31.581 9.18599 31.7257 9.43562 31.7472C9.68525 31.7687 9.92913 31.6642 10.0857 31.4685L9.5 31ZM17.5 21L18.0303 20.4697C17.8795 20.3188 17.6715 20.2393 17.4585 20.2511C17.2455 20.2629 17.0476 20.3649 16.9143 20.5315L17.5 21ZM22.5 26L21.9697 26.5303C22.1466 26.7073 22.4001 26.7843 22.6455 26.7357C22.891 26.6872 23.0961 26.5194 23.1923 26.2885L22.5 26ZM30.6935 7.71444C30.5358 7.33142 30.0975 7.14878 29.7144 7.30649L23.4729 9.87655C23.0898 10.0343 22.9072 10.4726 23.0649 10.8556C23.2226 11.2386 23.661 11.4213 24.044 11.2636L29.5921 8.97907L31.8766 14.5271C32.0343 14.9102 32.4726 15.0928 32.8556 14.9351C33.2386 14.7774 33.4213 14.339 33.2636 13.956L30.6935 7.71444ZM1 1.75H37V0.25H1V1.75ZM36.25 1V37H37.75V1H36.25ZM37 36.25H1V37.75H37V36.25ZM1.75 37V1H0.25V37H1.75ZM3.34284 21.3614L8.84284 31.3614L10.1572 30.6386L4.65716 20.6386L3.34284 21.3614ZM10.0857 31.4685L18.0857 21.4685L16.9143 20.5315L8.91435 30.5315L10.0857 31.4685ZM16.9697 21.5303L21.9697 26.5303L23.0303 25.4697L18.0303 20.4697L16.9697 21.5303ZM23.1923 26.2885L30.6923 8.28846L29.3077 7.71154L21.8077 25.7115L23.1923 26.2885Z" fill="#083ABB"/>
</svg>
