<svg width="40" height="38" viewBox="0 0 40 38" fill="none" xmlns="http://www.w3.org/2000/svg">
<path d="M11.2069 14.8127C11.2069 14.5912 11.0273 14.4116 10.8057 14.4116C10.5842 14.4116 10.4046 14.5912 10.4046 14.8127V15.9718C8.9268 15.5418 7.62203 15.6831 6.53332 16.0903C4.56525 16.8264 3.30477 18.4622 3.01062 19.1321C2.89769 19.3621 3.02889 19.6416 3.28188 19.6985C3.28801 19.6999 5.42883 20.1734 6.10823 21.041C6.18614 21.1406 6.3065 21.1985 6.43249 21.196C6.6382 21.2083 8.03799 21.3122 10.3922 21.9664V29.7952C10.3922 29.8999 10.3806 29.9913 10.3596 30.0672C10.2697 30.3917 10.1368 30.295 9.99226 30.0293C9.90112 29.8619 9.84474 29.646 9.84474 29.4213C9.84474 29.3442 9.85161 29.273 9.86434 29.209C9.87719 29.1445 9.89392 29.0909 9.91358 29.0489C10.007 28.849 9.92075 28.6112 9.72085 28.5177C9.52095 28.4243 9.28312 28.5106 9.18967 28.7105C9.13993 28.8165 9.10185 28.9316 9.07778 29.0523C9.05483 29.1675 9.04248 29.2913 9.04248 29.4213C9.04248 29.778 9.1372 30.1304 9.29032 30.4116C9.46253 30.728 9.71676 30.9647 10.0119 31.0464C10.3152 31.1304 10.6059 31.0473 10.8296 30.8233C10.9646 30.6881 11.0691 30.5018 11.1305 30.2802C11.1718 30.1312 11.1945 29.9675 11.1945 29.7952V22.2C12.305 22.5382 13.5906 22.9896 15.0315 23.5915C15.131 23.633 15.2402 23.6349 15.3421 23.5922C16.3955 23.1786 17.1617 23.4639 17.7121 23.6689C17.8523 23.7211 17.9807 23.7689 18.1082 23.8055C18.4186 23.9158 18.7293 23.6191 18.6211 23.2997C18.3554 22.5221 17.1345 20.2463 15.2113 18.4615C14.3636 17.6749 13.3773 16.9783 12.2708 16.5348C11.9121 16.3911 11.5785 16.296 11.2069 16.1973L11.2069 14.8127ZM3.97076 19.0534C4.42235 18.386 5.40522 17.3655 6.81224 16.8392C7.2879 16.6613 7.81221 16.5424 8.38084 16.5163C7.25412 17.4227 6.54605 19.1472 6.2301 20.0709C5.5377 19.5629 4.56116 19.2254 3.97076 19.0534ZM6.94904 20.4416C7.3282 19.2774 8.48513 16.3216 10.3375 16.7881C10.6478 16.8869 10.8141 16.9274 11.1321 17.0063C12.9769 17.6074 14.1494 21.0045 14.5943 22.5488C10.7157 21.0086 8.01419 20.5652 6.94904 20.4416ZM15.4684 22.7052C15.2272 21.8146 14.5819 19.7067 13.508 18.113C13.9189 18.3964 14.3056 18.713 14.6661 19.0475C16.0075 20.2924 16.9797 21.7712 17.494 22.7466C16.9627 22.5835 16.3008 22.4742 15.4684 22.7052Z" fill="#083ABB"/>
<path d="M1.51937 5.61747L20.2539 10.6993L38.9883 5.61747C39.2438 5.53885 39.5076 5.7293 39.5076 6.00089V31.4787C39.5105 31.6586 39.3893 31.8293 39.2114 31.8719L20.3731 36.9819L20.372 36.9822L20.3702 36.9828L20.3685 36.9833L20.3667 36.9838L20.365 36.9843L20.3636 36.9847L20.3614 36.9853L20.3596 36.9858L20.3543 36.9872L20.3507 36.9881L20.3489 36.9886L20.3471 36.989L20.3454 36.9894L20.3435 36.9898L20.3417 36.9903L20.3399 36.9906L20.3381 36.9911L20.3363 36.9914L20.333 36.9921L20.3308 36.9925L20.329 36.9929L20.3272 36.9932L20.3254 36.9936L20.3235 36.9939L20.3217 36.9942L20.3199 36.9945L20.318 36.9948L20.3162 36.9951L20.3149 36.9953L20.3106 36.9959L20.3069 36.9965L20.3051 36.9967L20.3032 36.9969L20.2994 36.9974L20.2976 36.9976L20.2957 36.9978L20.29 36.9983L20.2863 36.9986L20.2847 36.9988L20.2749 36.9994L20.273 36.9995L20.2642 36.9998L20.2615 36.9999L20.2577 36.9999L20.2558 36.9999H20.2519L20.25 36.9999L20.2461 36.9999L20.2442 36.9998L20.2423 36.9998L20.2347 36.9995L20.2332 36.9994L20.2233 36.9988L20.2214 36.9986L20.2176 36.9983L20.2139 36.998L20.2128 36.9979L20.2082 36.9974L20.2045 36.9969L20.2027 36.9967L20.2008 36.9965L20.197 36.9959L20.1952 36.9957L20.1933 36.9954L20.1915 36.9951L20.1896 36.9948L20.1878 36.9945L20.186 36.9942L20.1841 36.9939L20.1828 36.9937L20.1805 36.9932L20.1786 36.9929L20.1768 36.9925L20.175 36.9922L20.1716 36.9915L20.1695 36.9911L20.1677 36.9906L20.1659 36.9903L20.1641 36.9898L20.1623 36.9894L20.1605 36.989L20.1587 36.9886L20.1569 36.9881L20.1536 36.9873L20.1516 36.9868L20.148 36.9858L20.1463 36.9853L20.1445 36.9848L20.1427 36.9843L20.141 36.9838L20.1392 36.9833L20.1374 36.9828L20.1357 36.9822L20.1346 36.9819L1.29622 31.8719C1.1177 31.8198 0.997036 31.6665 1.00006 31.4787V6.00089C1.00006 5.7293 1.26387 5.53885 1.51937 5.61747ZM20.655 11.4215V36.0746L38.7054 31.1782V6.52517L20.655 11.4215ZM19.8528 11.4215L1.8024 6.52517V31.1782L19.8528 36.0746V11.4215Z" fill="#083ABB"/>
<path d="M1.30604 5.6126C1.09145 5.66451 0.959571 5.88061 1.01148 6.09519C1.06338 6.30978 1.27948 6.44166 1.49406 6.38975L20.2527 1.8127L39.0113 6.38975C39.2259 6.44166 39.442 6.30978 39.4939 6.09519C39.5458 5.88061 39.4139 5.66451 39.1993 5.6126L20.3792 1.02054C20.31 0.997473 20.2336 0.992943 20.1576 1.01151L20.1579 1.01278L1.30604 5.6126Z" fill="#083ABB"/>
<path d="M30.701 26.5933L35.9027 25.0091C36.1647 24.9309 36.4252 25.1237 36.4202 25.3987V28.5334C36.4202 28.7271 36.2829 28.8887 36.1004 28.9263L30.8987 30.5104C30.639 30.5969 30.3763 30.3878 30.3811 30.1208V26.9862C30.3811 26.7925 30.5184 26.6308 30.701 26.5933ZM35.618 25.9311L31.1834 27.2816V29.5885L35.618 28.2379V25.9311Z" fill="#083ABB"/>
<path d="M29.7615 4.08364C29.9752 4.02913 30.1043 3.81164 30.0498 3.59791C29.9952 3.38419 29.7778 3.25512 29.564 3.30963L10.7289 8.17088C10.5151 8.22539 10.3861 8.44288 10.4406 8.6566C10.4951 8.87033 10.7126 8.9994 10.9263 8.94489L29.7615 4.08364Z" fill="#083ABB"/>
<path d="M11.2069 14.8127C11.2069 14.5912 11.0273 14.4116 10.8057 14.4116C10.5842 14.4116 10.4046 14.5912 10.4046 14.8127V15.9718C8.9268 15.5418 7.62203 15.6831 6.53332 16.0903C4.56525 16.8264 3.30477 18.4622 3.01062 19.1321C2.89769 19.3621 3.02889 19.6416 3.28188 19.6985C3.28801 19.6999 5.42883 20.1734 6.10823 21.041C6.18614 21.1406 6.3065 21.1985 6.43249 21.196C6.6382 21.2083 8.03799 21.3122 10.3922 21.9664V29.7952C10.3922 29.8999 10.3806 29.9913 10.3596 30.0672C10.2697 30.3917 10.1368 30.295 9.99226 30.0293C9.90112 29.8619 9.84474 29.646 9.84474 29.4213C9.84474 29.3442 9.85161 29.273 9.86434 29.209C9.87719 29.1445 9.89392 29.0909 9.91358 29.0489C10.007 28.849 9.92075 28.6112 9.72085 28.5177C9.52095 28.4243 9.28312 28.5106 9.18967 28.7105C9.13993 28.8165 9.10185 28.9316 9.07778 29.0523C9.05483 29.1675 9.04248 29.2913 9.04248 29.4213C9.04248 29.778 9.1372 30.1304 9.29032 30.4116C9.46253 30.728 9.71676 30.9647 10.0119 31.0464C10.3152 31.1304 10.6059 31.0473 10.8296 30.8233C10.9646 30.6881 11.0691 30.5018 11.1305 30.2802C11.1718 30.1312 11.1945 29.9675 11.1945 29.7952V22.2C12.305 22.5382 13.5906 22.9896 15.0315 23.5915C15.131 23.633 15.2402 23.6349 15.3421 23.5922C16.3955 23.1786 17.1617 23.4639 17.7121 23.6689C17.8523 23.7211 17.9807 23.7689 18.1082 23.8055C18.4186 23.9158 18.7293 23.6191 18.6211 23.2997C18.3554 22.5221 17.1345 20.2463 15.2113 18.4615C14.3636 17.6749 13.3773 16.9783 12.2708 16.5348C11.9121 16.3911 11.5785 16.296 11.2069 16.1973L11.2069 14.8127ZM3.97076 19.0534C4.42235 18.386 5.40522 17.3655 6.81224 16.8392C7.2879 16.6613 7.81221 16.5424 8.38084 16.5163C7.25412 17.4227 6.54605 19.1472 6.2301 20.0709C5.5377 19.5629 4.56116 19.2254 3.97076 19.0534ZM6.94904 20.4416C7.3282 19.2774 8.48513 16.3216 10.3375 16.7881C10.6478 16.8869 10.8141 16.9274 11.1321 17.0063C12.9769 17.6074 14.1494 21.0045 14.5943 22.5488C10.7157 21.0086 8.01419 20.5652 6.94904 20.4416ZM15.4684 22.7052C15.2272 21.8146 14.5819 19.7067 13.508 18.113C13.9189 18.3964 14.3056 18.713 14.6661 19.0475C16.0075 20.2924 16.9797 21.7712 17.494 22.7466C16.9627 22.5835 16.3008 22.4742 15.4684 22.7052Z" stroke="#083ABB" stroke-width="0.4"/>
<path d="M1.51937 5.61747L20.2539 10.6993L38.9883 5.61747C39.2438 5.53885 39.5076 5.7293 39.5076 6.00089V31.4787C39.5105 31.6586 39.3893 31.8293 39.2114 31.8719L20.3731 36.9819L20.372 36.9822L20.3702 36.9828L20.3685 36.9833L20.3667 36.9838L20.365 36.9843L20.3636 36.9847L20.3614 36.9853L20.3596 36.9858L20.3543 36.9872L20.3507 36.9881L20.3489 36.9886L20.3471 36.989L20.3454 36.9894L20.3435 36.9898L20.3417 36.9903L20.3399 36.9906L20.3381 36.9911L20.3363 36.9914L20.333 36.9921L20.3308 36.9925L20.329 36.9929L20.3272 36.9932L20.3254 36.9936L20.3235 36.9939L20.3217 36.9942L20.3199 36.9945L20.318 36.9948L20.3162 36.9951L20.3149 36.9953L20.3106 36.9959L20.3069 36.9965L20.3051 36.9967L20.3032 36.9969L20.2994 36.9974L20.2976 36.9976L20.2957 36.9978L20.29 36.9983L20.2863 36.9986L20.2847 36.9988L20.2749 36.9994L20.273 36.9995L20.2642 36.9998L20.2615 36.9999L20.2577 36.9999L20.2558 36.9999H20.2519L20.25 36.9999L20.2461 36.9999L20.2442 36.9998L20.2423 36.9998L20.2347 36.9995L20.2332 36.9994L20.2233 36.9988L20.2214 36.9986L20.2176 36.9983L20.2139 36.998L20.2128 36.9979L20.2082 36.9974L20.2045 36.9969L20.2027 36.9967L20.2008 36.9965L20.197 36.9959L20.1952 36.9957L20.1933 36.9954L20.1915 36.9951L20.1896 36.9948L20.1878 36.9945L20.186 36.9942L20.1841 36.9939L20.1828 36.9937L20.1805 36.9932L20.1786 36.9929L20.1768 36.9925L20.175 36.9922L20.1716 36.9915L20.1695 36.9911L20.1677 36.9906L20.1659 36.9903L20.1641 36.9898L20.1623 36.9894L20.1605 36.989L20.1587 36.9886L20.1569 36.9881L20.1536 36.9873L20.1516 36.9868L20.148 36.9858L20.1463 36.9853L20.1445 36.9848L20.1427 36.9843L20.141 36.9838L20.1392 36.9833L20.1374 36.9828L20.1357 36.9822L20.1346 36.9819L1.29622 31.8719C1.1177 31.8198 0.997036 31.6665 1.00006 31.4787V6.00089C1.00006 5.7293 1.26387 5.53885 1.51937 5.61747ZM20.655 11.4215V36.0746L38.7054 31.1782V6.52517L20.655 11.4215ZM19.8528 11.4215L1.8024 6.52517V31.1782L19.8528 36.0746V11.4215Z" stroke="#083ABB" stroke-width="0.4"/>
<path d="M1.30604 5.6126C1.09145 5.66451 0.959571 5.88061 1.01148 6.09519C1.06338 6.30978 1.27948 6.44166 1.49406 6.38975L20.2527 1.8127L39.0113 6.38975C39.2259 6.44166 39.442 6.30978 39.4939 6.09519C39.5458 5.88061 39.4139 5.66451 39.1993 5.6126L20.3792 1.02054C20.31 0.997473 20.2336 0.992943 20.1576 1.01151L20.1579 1.01278L1.30604 5.6126Z" stroke="#083ABB" stroke-width="0.4"/>
<path d="M30.701 26.5933L35.9027 25.0091C36.1647 24.9309 36.4252 25.1237 36.4202 25.3987V28.5334C36.4202 28.7271 36.2829 28.8887 36.1004 28.9263L30.8987 30.5104C30.639 30.5969 30.3763 30.3878 30.3811 30.1208V26.9862C30.3811 26.7925 30.5184 26.6308 30.701 26.5933ZM35.618 25.9311L31.1834 27.2816V29.5885L35.618 28.2379V25.9311Z" stroke="#083ABB" stroke-width="0.4"/>
<path d="M29.7615 4.08364C29.9752 4.02913 30.1043 3.81164 30.0498 3.59791C29.9952 3.38419 29.7778 3.25512 29.564 3.30963L10.7289 8.17088C10.5151 8.22539 10.3861 8.44288 10.4406 8.6566C10.4951 8.87033 10.7126 8.9994 10.9263 8.94489L29.7615 4.08364Z" stroke="#083ABB" stroke-width="0.4"/>
</svg>
