<svg width="40" height="36" viewBox="0 0 40 36" fill="none" xmlns="http://www.w3.org/2000/svg">
<path d="M38.6394 6.7184C38.3767 6.39716 38.0459 6.13827 37.671 5.96043C37.296 5.78259 36.8863 5.69025 36.4713 5.69007H8.56082L8.14092 3.59057C7.93727 2.57879 7.39002 1.66855 6.59194 1.01415C5.79385 0.359754 4.79403 0.00145784 3.76196 0H0.856939C0.629665 0 0.411698 0.0902837 0.250991 0.250991C0.0902837 0.411698 0 0.629664 0 0.856939C0 1.08421 0.0902837 1.30218 0.250991 1.46289C0.411698 1.62359 0.629665 1.71388 0.856939 1.71388H3.76196C4.39893 1.71541 5.01576 1.93728 5.50778 2.34183C5.99979 2.74637 6.33669 3.30868 6.46132 3.93335L10.5061 24.1228C10.7018 25.082 11.2201 25.9453 11.9747 26.5689C12.7293 27.1926 13.6748 27.539 14.6537 27.5506H34.4489C34.6762 27.5506 34.8942 27.4603 35.0549 27.2996C35.2156 27.1389 35.3059 26.9209 35.3059 26.6936C35.3059 26.4664 35.2156 26.2484 35.0549 26.0877C34.8942 25.927 34.6762 25.8367 34.4489 25.8367H14.6537C14.0734 25.8264 13.5138 25.6201 13.0657 25.2514C12.6176 24.8826 12.3074 24.3731 12.1857 23.8058L12.0314 23.0517H34.1233C34.7732 23.049 35.4023 22.8227 35.9048 22.4106C36.4074 21.9986 36.7527 21.4261 36.8826 20.7893L39.2221 9.07498C39.3091 8.66367 39.3019 8.23799 39.201 7.82986C39.1001 7.42173 38.9081 7.04175 38.6394 6.7184ZM37.5425 8.71507L35.203 20.4294C35.1482 20.6742 35.0111 20.8928 34.8146 21.0487C34.6181 21.2046 34.3741 21.2885 34.1233 21.2864H11.7144L8.9293 7.40395H36.4713C36.6351 7.40342 36.7969 7.43928 36.9451 7.50894C37.0933 7.57859 37.2242 7.6803 37.3283 7.80671C37.4291 7.93276 37.5006 8.07965 37.5377 8.23676C37.5747 8.39387 37.5764 8.55725 37.5425 8.71507Z" fill="#083ABB"/>
<path d="M16.6443 28.9217C15.9439 28.9217 15.2593 29.1295 14.6771 29.5187C14.095 29.908 13.6413 30.4613 13.3737 31.1084C13.1061 31.7556 13.0365 32.4677 13.1738 33.1545C13.311 33.8412 13.649 34.4718 14.1448 34.9664C14.6406 35.4611 15.272 35.7975 15.9591 35.933C16.6462 36.0686 17.3581 35.9973 18.0046 35.7281C18.6512 35.4589 19.2033 35.004 19.5912 34.4208C19.979 33.8377 20.1851 33.1526 20.1834 32.4523C20.1812 31.5151 19.8073 30.6171 19.1438 29.9552C18.4803 29.2934 17.5814 28.9217 16.6443 28.9217ZM16.6443 34.2775C16.2833 34.2775 15.9304 34.1705 15.6302 33.9699C15.33 33.7694 15.0961 33.4843 14.9579 33.1508C14.8198 32.8172 14.7836 32.4502 14.8541 32.0962C14.9245 31.7421 15.0983 31.4169 15.3536 31.1616C15.6089 30.9063 15.9341 30.7325 16.2882 30.6621C16.6423 30.5916 17.0093 30.6278 17.3428 30.7659C17.6763 30.9041 17.9614 31.138 18.162 31.4382C18.3625 31.7384 18.4696 32.0913 18.4696 32.4523C18.4707 32.6923 18.4243 32.9302 18.3329 33.1521C18.2416 33.3741 18.1072 33.5757 17.9375 33.7455C17.7678 33.9152 17.5661 34.0496 17.3441 34.1409C17.1222 34.2323 16.8843 34.2787 16.6443 34.2775Z" fill="#083ABB"/>
<path d="M31.7765 28.9217C31.0758 28.92 30.3903 29.1263 29.807 29.5146C29.2237 29.9028 28.7687 30.4555 28.4998 31.1025C28.2309 31.7496 28.1601 32.4619 28.2964 33.1492C28.4326 33.8365 28.7699 34.4679 29.2654 34.9634C29.7608 35.4589 30.3922 35.7961 31.0796 35.9324C31.7669 36.0687 32.4792 35.9979 33.1263 35.729C33.7733 35.46 34.326 35.0051 34.7142 34.4217C35.1024 33.8384 35.3088 33.153 35.3071 32.4523C35.3048 31.5166 34.9321 30.6199 34.2705 29.9583C33.6089 29.2967 32.7122 28.924 31.7765 28.9217ZM31.7765 34.2776C31.4151 34.2793 31.0614 34.1737 30.7601 33.9741C30.4588 33.7746 30.2235 33.4901 30.0841 33.1567C29.9446 32.8234 29.9072 32.4561 29.9767 32.1015C30.0461 31.7468 30.2193 31.4208 30.4742 31.1647C30.7291 30.9085 31.0544 30.7339 31.4087 30.6627C31.763 30.5916 32.1304 30.6272 32.4644 30.7651C32.7985 30.903 33.084 31.137 33.285 31.4373C33.4859 31.7377 33.5932 32.0909 33.5932 32.4523C33.5932 32.9349 33.4021 33.3979 33.0616 33.7399C32.7212 34.082 32.2591 34.2753 31.7765 34.2776Z" fill="#083ABB"/>
</svg>
