<svg width="34" height="38" viewBox="0 0 34 38" fill="none" xmlns="http://www.w3.org/2000/svg">
<path d="M1 29.9307L1.00014 35.7325C1.00014 36.4313 1.56872 37 2.26752 37H23.5462C24.245 37 24.8136 36.4313 24.8136 35.7325V2.26725C24.8136 1.56845 24.245 1 23.5462 1H2.26752C1.56872 1 1.00014 1.56845 1.00014 2.26725V7.51852V7.51988L1 29.9307ZM1.55398 2.26725C1.55398 1.87377 1.87404 1.55385 2.26752 1.55385H23.5462C23.9397 1.55385 24.2598 1.87377 24.2598 2.26725V7.24228H1.55398V2.26725ZM1.55398 7.79612H24.2598V29.6538H1.55398V7.79612ZM1.55398 30.2077H24.2598V35.7325C24.2598 36.126 23.9397 36.4462 23.5462 36.4462H2.26752C1.87404 36.4462 1.55398 36.126 1.55398 35.7325V30.2077Z" fill="#083ABB" stroke="#083ABB" stroke-width="0.6"/>
<path d="M15.6161 4.12109H10.1988C10.0459 4.12109 9.92188 4.24495 9.92188 4.39802C9.92188 4.55108 10.0459 4.67494 10.1988 4.67494H15.6161C15.769 4.67494 15.893 4.55108 15.893 4.39802C15.893 4.24495 15.769 4.12109 15.6161 4.12109Z" fill="#083ABB" stroke="#083ABB" stroke-width="0.6"/>
<path d="M10.9332 33.6037H14.8772C15.0301 33.6037 15.1541 33.4798 15.1541 33.3267C15.1541 33.1737 15.0301 33.0498 14.8772 33.0498H10.9332C10.7802 33.0498 10.6562 33.1737 10.6562 33.3267C10.6562 33.4798 10.7802 33.6037 10.9332 33.6037Z" fill="#083ABB" stroke="#083ABB" stroke-width="0.6"/>
<path d="M14.6 14C14.6 13.2268 15.2268 12.6 16 12.6H32C32.7732 12.6 33.4 13.2268 33.4 14V24C33.4 24.7732 32.7732 25.4 32 25.4H16C15.2268 25.4 14.6 24.7732 14.6 24V14Z" fill="white" stroke="#083ABB" stroke-width="1.2"/>
</svg>
