<svg width="36" height="36" viewBox="0 0 36 36" fill="none" xmlns="http://www.w3.org/2000/svg">
<path d="M35.4545 0H0.545455C0.218182 0 0 0.218182 0 0.545455V30.3818C0 30.7091 0.218182 30.9273 0.545455 30.9273H10.2545V33.4909C10.2545 34.9091 11.4 36 12.7636 36H23.2364C24.6 36 25.7455 34.8545 25.7455 33.4909V30.9273H35.4545C35.7818 30.9273 36 30.7091 36 30.3818V0.545455C36 0.218182 35.7818 0 35.4545 0ZM10.2545 20.2364H8.89091V18H10.2545V20.2364ZM11.3455 33.4909C11.3455 29.5091 11.3455 25.0909 11.3455 20.7818V18H18V34.9091H12.7636C12 34.9091 11.3455 34.2545 11.3455 33.4909ZM21.2182 18V34.9091H19.0909V18H21.2182ZM24.6545 33.4909C24.6545 34.2545 24 34.9091 23.2364 34.9091H22.3091V18H24.6545V20.7818C24.6545 25.0909 24.6545 29.5091 24.6545 33.4909ZM27.1091 18V20.2364H25.7455V18H27.1091ZM34.9091 29.8364H25.7455V21.3273H27.6545C27.9818 21.3273 28.2 21.1091 28.2 20.7818V17.4545C28.2 17.1273 27.9818 16.9091 27.6545 16.9091C22.8 16.9091 13.1455 16.9091 8.34546 16.9091C8.01818 16.9091 7.8 17.1273 7.8 17.4545V20.7818C7.8 21.1091 8.01818 21.3273 8.34546 21.3273H10.2545V29.8364H1.09091V1.09091H34.9091V29.8364Z" fill="#083ABB"/>
<path d="M5.18217 11.8363H30.8185C31.1458 11.8363 31.364 11.6181 31.364 11.2909V4.09086C31.364 3.76359 31.1458 3.54541 30.8185 3.54541H5.18217C4.8549 3.54541 4.63672 3.76359 4.63672 4.09086V11.2909C4.63672 11.5636 4.8549 11.8363 5.18217 11.8363ZM5.72763 4.63632H30.2731V10.7454H5.72763V4.63632Z" fill="#083ABB"/>
<path d="M16.7462 27.9815C16.7462 26.7269 15.7643 25.7451 14.5098 25.7451C13.3098 25.7451 12.2734 26.7269 12.2734 27.9815C12.2734 28.3633 12.3825 28.6906 12.5462 29.0178C11.7825 30.4906 12.8189 32.2906 14.5098 32.2906C16.2007 32.2906 17.2371 30.4906 16.4734 29.0178C16.6371 28.6906 16.7462 28.3633 16.7462 27.9815ZM14.5098 26.836C15.1098 26.836 15.6553 27.3269 15.6553 27.9815C15.6553 28.2542 15.5462 28.4724 15.3825 28.6906C15.0553 29.0724 14.4553 29.1815 14.0189 29.0178C13.6371 28.8542 13.3643 28.4724 13.3643 27.9815C13.3643 27.3269 13.9098 26.836 14.5098 26.836ZM14.5098 31.1997C13.8007 31.1997 13.3098 30.5997 13.4189 29.8906C14.0734 30.2724 15.0007 30.2724 15.6553 29.8906C15.7098 30.5997 15.2189 31.1997 14.5098 31.1997Z" fill="#083ABB"/>
</svg>
