<svg width="38" height="38" viewBox="0 0 38 38" fill="none" xmlns="http://www.w3.org/2000/svg">
<path d="M36.9352 23.3765L20.7481 7.19679C20.6964 7.14508 20.6225 7.10814 20.5413 7.10814L12.5844 7.04164C12.0451 6.2659 11.4023 5.49755 10.6635 4.76614C9.08248 3.18511 7.30197 1.98825 5.64705 1.39721C3.91826 0.776616 2.52193 0.887436 1.70186 1.70012C1.23642 2.16556 1 2.81571 1 3.62839C1 5.64531 2.44066 8.33454 4.76788 10.6544C5.47713 11.3636 6.24548 12.0064 7.05078 12.5753L7.11727 20.5247C7.11727 20.5986 7.14682 20.6799 7.20592 20.7316L23.393 36.9113C23.4521 36.9704 23.526 37 23.5999 37C23.6738 37 23.7477 36.9704 23.8068 36.9113L36.9352 23.7902C36.9944 23.7311 37.0239 23.6573 37.0239 23.5834C37.0165 23.5095 36.987 23.4356 36.9352 23.3765ZM7.08772 7.08597C7.036 7.13769 7.00645 7.21896 7.00645 7.29284L7.04339 11.8365C6.39324 11.3562 5.77265 10.8169 5.189 10.2333C3.00954 8.0538 1.59843 5.46061 1.59843 3.621C1.59843 2.97085 1.77574 2.46108 2.13036 2.11384C3.50453 0.747064 7.2207 2.15078 10.2572 5.17987C10.8482 5.77091 11.3875 6.39889 11.853 7.02687L7.30197 6.99732C7.22809 6.99732 7.14682 7.02687 7.08772 7.08597ZM23.5999 36.2908L7.70831 20.3992L7.59749 7.58836L12.2593 7.6253C12.843 8.50447 13.2863 9.38364 13.5522 10.1963C13.4488 10.1889 13.338 10.1815 13.2271 10.1815C12.4145 10.1815 11.6535 10.4992 11.0772 11.0755C9.89516 12.2576 9.89516 14.1932 11.0772 15.3753C11.6535 15.9442 12.4145 16.2619 13.2271 16.2619C14.0398 16.2619 14.8008 15.9442 15.3771 15.3753C16.5591 14.1932 16.5591 12.2576 15.3771 11.0755C15.0446 10.743 14.6456 10.4918 14.2098 10.3441C13.9733 9.48707 13.5522 8.56357 12.9686 7.63268L20.4083 7.69179L36.2999 23.5834L23.5999 36.2908ZM13.3084 13.7204C13.3675 13.7795 13.4414 13.8091 13.5153 13.8091C13.5892 13.8091 13.663 13.7795 13.7221 13.7204C14.1876 13.255 14.424 12.6048 14.424 11.7921C14.424 11.5557 14.4018 11.3045 14.3649 11.0533C14.5792 11.1641 14.7786 11.3119 14.9559 11.4892C15.909 12.4423 15.909 14.0011 14.9559 14.9542C14.4905 15.4123 13.8773 15.6708 13.2198 15.6708C12.5622 15.6708 11.949 15.4196 11.4836 14.9542C10.5305 14.0011 10.5305 12.4423 11.4836 11.4892C11.949 11.0238 12.5622 10.7726 13.2198 10.7726C13.3897 10.7726 13.5522 10.7874 13.7148 10.8243C13.7886 11.1641 13.8256 11.4892 13.8256 11.7921C13.8256 12.4423 13.6483 12.952 13.2936 13.2993C13.1976 13.4175 13.1976 13.6096 13.3084 13.7204Z" fill="#083ABB" stroke="#083ABB" stroke-width="0.4"/>
<path d="M13.9141 23.6574C13.9141 23.7387 13.9436 23.8126 14.0027 23.8643L23.8879 33.7421C23.947 33.8012 24.0209 33.8307 24.0947 33.8307C24.1686 33.8307 24.2425 33.8012 24.3016 33.7421L33.773 24.2854C33.8321 24.2263 33.8617 24.1524 33.8617 24.0786C33.8617 23.9973 33.8321 23.9234 33.773 23.8717L23.8805 13.9939C23.7623 13.8757 23.5776 13.8757 23.4594 13.9939L13.9879 23.4506C13.9436 23.5097 13.9141 23.5836 13.9141 23.6574ZM23.6736 14.6219L33.1376 24.0859L24.0873 33.1215L14.6233 23.6648L23.6736 14.6219Z" fill="#083ABB" stroke="#083ABB" stroke-width="0.4"/>
<path d="M24.4132 17.7469C24.295 17.6287 24.1103 17.6287 23.9921 17.7469L17.7566 23.9749C17.6384 24.0932 17.6384 24.2779 17.7566 24.3961C17.8157 24.4552 17.8896 24.4847 17.9635 24.4847C18.0374 24.4847 18.1112 24.4552 18.1704 24.3961L24.4058 18.168C24.524 18.0498 24.524 17.8651 24.4132 17.7469Z" fill="#083ABB" stroke="#083ABB" stroke-width="0.4"/>
<path d="M27.2062 20.5467C27.088 20.4285 26.9033 20.4285 26.7851 20.5467L20.5496 26.7748C20.4314 26.893 20.4314 27.0777 20.5496 27.1959C20.6087 27.255 20.6826 27.2845 20.7565 27.2845C20.8303 27.2845 20.9042 27.255 20.9633 27.1959L27.1988 20.9678C27.3244 20.8496 27.3244 20.6575 27.2062 20.5467Z" fill="#083ABB" stroke="#083ABB" stroke-width="0.4"/>
<path d="M30.007 23.3396C29.8888 23.2214 29.7041 23.2214 29.5858 23.3396L23.3504 29.5677C23.2322 29.6859 23.2322 29.8706 23.3504 29.9888C23.4095 30.0479 23.4834 30.0775 23.5572 30.0775C23.6311 30.0775 23.705 30.0479 23.7641 29.9888L29.9996 23.7607C30.1252 23.6425 30.1252 23.4578 30.007 23.3396Z" fill="#083ABB" stroke="#083ABB" stroke-width="0.4"/>
</svg>
