<svg width="147" height="54" viewBox="0 0 147 54" fill="none" xmlns="http://www.w3.org/2000/svg">
<path fill-rule="evenodd" clip-rule="evenodd" d="M139.451 0C140.306 0 141.03 2.36797 141.297 5.67043C144.267 4.6856 146.598 4.51709 146.956 5.33559C147.262 6.03373 145.952 7.28118 143.824 8.57459C145.948 9.89645 147.229 11.1833 146.966 11.8924C146.656 12.7262 144.296 12.5073 141.281 11.4744C141.001 14.6696 140.287 16.9413 139.451 16.9413C138.615 16.9413 137.901 14.6696 137.622 11.4744C134.606 12.5073 132.247 12.7262 131.936 11.8924C131.671 11.1833 132.954 9.89645 135.078 8.57459C132.95 7.28118 131.64 6.03373 131.947 5.33559C132.307 4.51709 134.637 4.68779 137.605 5.67043C137.872 2.36797 138.598 0 139.451 0V0ZM143.479 8.78031C142.837 9.15673 142.131 9.53534 141.38 9.90301C141.372 10.135 141.359 10.3626 141.347 10.588C143.45 11.2227 144.853 11.2314 145.128 10.7062C145.335 10.3123 144.656 9.59225 143.481 8.7825L143.479 8.78031ZM135.751 8.16752C136.299 7.85019 136.889 7.53504 137.516 7.22865C137.533 6.75375 137.557 6.29416 137.59 5.8477C134.819 4.88038 132.565 4.69655 132.259 5.2568C131.975 5.77329 133.319 6.86755 135.751 8.16971V8.16752ZM135.424 8.78031C136.065 9.15673 136.771 9.53534 137.522 9.90083C137.53 10.1328 137.543 10.3604 137.555 10.5858C135.453 11.2205 134.049 11.2293 133.774 10.704C133.567 10.3101 134.246 9.59006 135.421 8.78031H135.424ZM137.872 10.0715C138.044 10.1525 138.218 10.2335 138.393 10.3145C138.232 10.3714 138.073 10.4239 137.917 10.4742C137.901 10.3429 137.886 10.2072 137.874 10.0715H137.872ZM139.451 10.7762C139.933 10.9776 140.407 11.1614 140.867 11.3277C140.56 13.2186 140.041 14.4639 139.451 14.4639C138.861 14.4639 138.342 13.2208 138.035 11.3277C138.495 11.1614 138.969 10.9776 139.453 10.7762H139.451ZM143.152 8.16752C142.603 7.85019 142.013 7.53504 141.386 7.22865C141.37 6.75375 141.345 6.29416 141.312 5.8477C144.083 4.88038 146.337 4.69655 146.643 5.2568C146.927 5.77329 145.583 6.86755 143.152 8.16971V8.16752ZM141.156 7.11704C140.85 6.96822 140.536 6.82378 140.213 6.68153C140.049 6.6093 139.886 6.53927 139.722 6.46924L139.745 6.46049C140.213 6.25914 140.674 6.0775 141.123 5.91555C141.142 6.3051 141.154 6.70779 141.159 7.11704H141.156ZM139.451 6.35544C138.882 6.12127 138.325 5.91336 137.789 5.73171C137.967 2.59776 138.644 0.26481 139.451 0.26481C140.258 0.26481 140.935 2.59776 141.113 5.73171C140.577 5.91336 140.02 6.12345 139.451 6.35544ZM136.088 8.34698C136.527 8.57678 136.999 8.81095 137.499 9.04949C137.497 8.85691 137.495 8.66432 137.495 8.46954C137.495 8.15439 137.499 7.84144 137.508 7.53504C136.999 7.80642 136.523 8.0778 136.09 8.34698H136.088ZM137.802 9.19175C137.891 9.23333 137.98 9.27491 138.071 9.31649C138.549 9.53753 139.01 9.73669 139.451 9.91396C139.894 9.73669 140.356 9.53753 140.832 9.31649C140.923 9.27491 141.012 9.23333 141.101 9.19175C141.138 8.62273 141.156 8.02527 141.159 7.4103C140.616 7.13017 140.043 6.85223 139.451 6.58961C138.859 6.85223 138.286 7.12798 137.744 7.4103C137.744 8.02527 137.764 8.62273 137.802 9.19175V9.19175ZM140.511 10.3123C140.672 10.3692 140.832 10.4217 140.987 10.472C141.003 10.3407 141.018 10.205 141.03 10.0693C140.858 10.1503 140.685 10.2313 140.511 10.3123V10.3123ZM142.814 8.34479C142.382 8.07561 141.906 7.80204 141.397 7.53286C141.405 7.83925 141.409 8.1522 141.409 8.46735C141.409 8.66213 141.407 8.85691 141.405 9.04731C141.906 8.80876 142.375 8.57459 142.816 8.34479H142.814ZM139.18 6.46705L139.159 6.4583C138.692 6.25695 138.23 6.07531 137.781 5.91336C137.762 6.30291 137.75 6.70341 137.746 7.11485C138.052 6.96822 138.367 6.82159 138.689 6.67934C138.853 6.60712 139.016 6.53489 139.18 6.46705V6.46705Z" fill="white"/>
<path d="M0 37.3361H5.40801L6.69947 32.5717H13.3989L14.7215 37.3361H20.1295L12.8298 14.6237H7.30174L0.00206965 37.3361H0ZM7.93092 28.1246L9.16236 23.7082C9.55353 22.2791 10.0337 19.8017 10.0337 19.8017H10.0937C10.0937 19.8017 10.5739 22.2791 10.965 23.7082L12.1675 28.1246H7.93092V28.1246ZM19.968 25.9317C19.968 33.3661 25.0159 37.7169 30.5129 37.7169C32.6157 37.7169 34.8695 36.9553 36.161 35.7472H36.221C36.221 35.7472 36.192 36.2243 36.192 36.6992V37.3339H40.5776V24.5005H32.8868V29.2342H35.9209V30.9806C34.6895 31.9961 33.1269 32.633 31.5643 32.633C28.2301 32.633 25.405 30.0593 25.405 25.7392C25.405 22.371 27.2367 19.3224 31.7444 19.3224C33.576 19.3224 35.7409 20.2438 36.9723 21.419L39.4952 17.2565C37.2124 15.1292 34.1472 14.2385 31.2332 14.2385C24.6848 14.2385 19.968 19.3224 19.968 25.9296V25.9317ZM41.2875 37.3361H46.6955L47.987 32.5717H54.6865L56.009 37.3361H61.417L54.1173 14.6237H48.5893L41.2896 37.3361H41.2875ZM49.2185 28.1246L50.4499 23.7082C50.8411 22.2791 51.3212 19.8017 51.3212 19.8017H51.3812C51.3812 19.8017 51.8614 22.2791 52.2526 23.7082L53.455 28.1246H49.2185V28.1246ZM65.8212 37.3361H71.0781V19.3881H77.5976V14.6237H59.3018V19.3881H65.8212V37.3361ZM79.5099 37.3361H93.389V32.5717H84.7668V28.2822H91.3152V23.5178H84.7668V19.3881H92.9689V14.6237H79.5099V37.3361ZM94.5211 25.9317C94.5211 32.6658 98.8777 37.7169 105.786 37.7169C109.721 37.7169 112.546 35.9704 114.437 33.9045L111.734 29.8382C110.263 31.3943 108.16 32.633 106.026 32.633C101.881 32.633 99.9581 29.1707 99.9581 25.8026C99.9581 22.5308 101.73 19.3224 106.026 19.3224C107.949 19.3224 110.023 20.3707 111.403 21.6423L113.837 17.4491C111.734 15.2584 108.669 14.2407 105.786 14.2407C99.1468 14.2407 94.5211 19.3246 94.5211 25.9317V25.9317ZM116.412 37.3361H121.669V28.442H129.48V37.3361H134.737V14.6237H129.48V23.7082H121.669V14.6237H116.412V37.3361V37.3361Z" fill="white"/>
<path fill-rule="evenodd" clip-rule="evenodd" d="M65.9186 39.728H134.728V53.0276H65.9186V39.728Z" fill="white"/>
<path d="M69.4599 49.3862H71.393C73.1605 49.3862 74.3278 48.2569 74.3278 46.3091C74.3278 44.3701 73.1605 43.2496 71.393 43.2496H69.4599V49.3883V49.3862ZM70.2733 48.6377V43.9959H71.333C72.6244 43.9959 73.4875 44.8034 73.4875 46.3091C73.4875 47.8301 72.6327 48.6399 71.333 48.6399H70.2733V48.6377ZM75.3274 49.3862H76.1408V43.2474H75.3274V49.3862ZM77.1342 46.3091C77.1342 48.1869 78.4257 49.4912 79.9883 49.4912C80.7044 49.4912 81.377 49.1783 81.7723 48.7427H81.7889C81.7889 48.7427 81.7806 48.874 81.7806 49.0032V49.3862H82.4967V46.3004H80.812V47.0488H81.7495V47.9352C81.3294 48.397 80.7292 48.7012 80.1042 48.7012C78.8955 48.7012 77.9745 47.7098 77.9745 46.2938C77.9745 44.9894 78.7961 43.928 80.1538 43.928C80.7458 43.928 81.4122 44.1797 81.7992 44.5277L82.2111 43.893C81.6274 43.3721 80.8472 43.1445 80.098 43.1445C78.405 43.1445 77.1384 44.5364 77.1384 46.3091H77.1342ZM83.5605 49.3862H84.3739V43.2474H83.5605V49.3862ZM87.0768 49.3862H87.8819V43.9959H89.8791V43.2474H85.0776V43.9959H87.0748V49.3862H87.0768ZM89.459 49.3862H90.2889L90.8726 47.6222H93.0602L93.6438 49.3862H94.4821L92.4021 43.2474H91.539L89.459 49.3862V49.3862ZM91.0878 46.9088L91.7377 44.9697C91.837 44.648 91.9592 44.0921 91.9592 44.0921H91.9757C91.9757 44.0921 92.1082 44.648 92.2054 44.9697L92.847 46.9088H91.0878V46.9088ZM95.1795 49.3862H98.6007V48.6377H95.995V43.2474H95.1816V49.3862H95.1795ZM100.25 49.3862H101.08L101.664 47.6222H103.851L104.435 49.3862H105.273L103.193 43.2474H102.33L100.25 49.3862V49.3862ZM101.879 46.9088L102.529 44.9697C102.628 44.648 102.75 44.0921 102.75 44.0921H102.767C102.767 44.0921 102.899 44.648 102.997 44.9697L103.638 46.9088H101.879V46.9088ZM105.478 46.3091C105.478 48.1869 106.77 49.4912 108.332 49.4912C109.048 49.4912 109.721 49.1783 110.116 48.7427H110.133C110.133 48.7427 110.125 48.874 110.125 49.0032V49.3862H110.841V46.3004H109.156V47.0488H110.093V47.9352C109.673 48.397 109.073 48.7012 108.448 48.7012C107.239 48.7012 106.318 47.7098 106.318 46.2938C106.318 44.9894 107.14 43.928 108.498 43.928C109.09 43.928 109.756 44.1797 110.141 44.5277L110.553 43.893C109.969 43.3721 109.189 43.1445 108.44 43.1445C106.747 43.1445 105.48 44.5364 105.48 46.3091H105.478ZM111.904 49.3862H115.423V48.6377H112.718V46.6636H114.798V45.9152H112.718V43.9937H115.284V43.2452H111.904V49.384V49.3862ZM116.35 49.3862H117.163V45.4031C117.163 45.0551 117.114 44.508 117.114 44.508H117.13C117.13 44.508 117.401 45.0638 117.606 45.4031L120.195 49.3862H120.992V43.2474H120.187V47.2305C120.187 47.5784 120.237 48.1256 120.237 48.1256H120.22C120.22 48.1256 119.949 47.5697 119.744 47.2305L117.155 43.2474H116.35V49.3862ZM121.988 46.2828C121.988 48.0818 123.163 49.4912 124.964 49.4912C125.993 49.4912 126.715 49.0382 127.21 48.5173L126.773 47.9002C126.305 48.3948 125.639 48.699 124.989 48.699C123.639 48.699 122.826 47.5763 122.826 46.2741C122.826 44.9785 123.623 43.9258 124.972 43.9258C125.572 43.9258 126.222 44.195 126.649 44.5955L127.06 43.9521C126.502 43.3874 125.688 43.1423 124.939 43.1423C123.213 43.1423 121.988 44.4992 121.988 46.2807V46.2828ZM129.312 49.3862H130.117V46.7862L132.067 43.2474H131.146L130.076 45.2652C129.896 45.6219 129.722 46.0399 129.722 46.0399H129.706C129.706 46.0399 129.525 45.6219 129.352 45.2652L128.284 43.2474H127.363L129.312 46.7862V49.3862V49.3862Z" fill="#2B2A29"/>
<path fill-rule="evenodd" clip-rule="evenodd" d="M10.1415 42.293L11.0667 45.4182L14.1649 45.3831L11.6399 47.2806L12.6292 50.3839L10.1415 48.4295L7.65586 50.3839L8.64516 47.2806L6.12018 45.3831L9.21638 45.4182L10.1415 42.293Z" fill="white"/>
<path fill-rule="evenodd" clip-rule="evenodd" d="M20.4585 42.293L21.3837 45.4182L24.4819 45.3831L21.9569 47.2806L22.9462 50.3839L20.4585 48.4295L17.9729 50.3839L18.9622 47.2806L16.4372 45.3831L19.5334 45.4182L20.4585 42.293Z" fill="white"/>
<path fill-rule="evenodd" clip-rule="evenodd" d="M30.7759 42.293L31.701 45.4182L34.7993 45.3831L32.2722 47.2806L33.2615 50.3839L30.7759 48.4295L28.2902 50.3839L29.2795 47.2806L26.7545 45.3831L29.8507 45.4182L30.7759 42.293Z" fill="white"/>
<path fill-rule="evenodd" clip-rule="evenodd" d="M41.0932 42.293L42.0184 45.4182L45.1167 45.3831L42.5896 47.2806L43.5789 50.3839L41.0932 48.4295L38.6076 50.3839L39.5969 47.2806L37.0719 45.3831L40.1681 45.4182L41.0932 42.293Z" fill="white"/>
<path fill-rule="evenodd" clip-rule="evenodd" d="M51.4101 42.293L52.3352 45.4182L55.4335 45.3831L52.9065 47.2806L53.8958 50.3839L51.4101 48.4295L48.9245 50.3839L49.9138 47.2806L47.3867 45.3831L50.485 45.4182L51.4101 42.293Z" fill="white"/>
</svg>
