<svg width="261" height="96" viewBox="0 0 261 96" fill="none" xmlns="http://www.w3.org/2000/svg">
<path fill-rule="evenodd" clip-rule="evenodd" d="M236.552 43.8534C233.064 20.0572 205.984 10.955 188.04 29.0698C170.153 39.9905 173.601 61.1667 173.875 71.0553C163.157 30.2367 198.415 6.9817 226.991 22.2956C225.168 19.582 222.185 17.1912 219.075 15.122C236.131 22.5751 239.308 33.2685 236.552 43.8534ZM229.431 64.0628C249.247 51.7301 243.608 18.5739 216.123 13.4832C192.677 5.45342 179.504 23.1853 174.857 25.4494C206.061 -7.03143 244.718 13.1029 244.515 46.667C246.134 43.9483 246.651 41.5782 247.112 37.9214C246.858 56.4833 239.727 62.392 229.431 64.0628ZM201.447 32.9744C182.623 47.8997 188.391 76.2352 215.212 82.7486C233.594 92.8094 248.458 78.9433 256.295 73.7605C226.242 102.671 189.668 83.9654 188.738 52.2406C187.303 55.1792 186.557 59.2995 186.324 63.0322C183.94 44.9191 190.123 36.2741 201.447 32.9744ZM222.569 28.4753C197.713 17.8057 177.069 41.4332 186.513 66.9123C191.694 88.6504 211.108 93.0392 216.387 95.7112C175.346 86.1715 171.377 43.2665 200.615 25.4931C197.456 25.4479 194.778 26.1126 191.387 27.5411C203.407 19.0762 215.889 20.6087 222.569 28.4753ZM210.713 68.548C233.38 76.4628 253.772 59.2256 247.324 32.2829C245.941 11.3417 226.748 4.06069 215.654 0.288698C257.583 8.95267 262.834 52.6196 234.019 71.0657C235.767 70.895 237.696 70.4972 239.225 69.8818C223.78 77.8844 218.743 74.2635 210.713 68.548H210.713ZM195.622 53.0976C200.48 76.7404 225.678 84.7614 243.768 67.8391C261.871 58.0142 260.79 38.4786 257.569 22.2678C271.52 64.2865 236.3 90.9936 205.192 73.2634C206.903 75.9597 209.686 79.181 212.808 81.2828C198.158 75.6572 191.874 62.9648 195.622 53.0974L195.622 53.0976Z" fill="white"/>
<path d="M110.82 51.6608L116.536 58.5691L130.88 31.1062H141.431L154.874 56.8578V31.1062H165.311L186.152 52.4415V31.1062H196.172V64.8197H185.76L164.943 43.5771V64.8197H147.759L144.728 58.6966H127.574L124.543 64.8197H109.747L99.9707 52.9107H91.4515V64.8197H81.3831V31.1062H103.909C105.955 31.1062 108.107 31.2805 110.077 31.8655C111.615 32.3227 113.106 33.0153 114.324 34.0782C115.427 35.0415 116.249 36.218 116.753 37.5955C117.275 39.0248 117.484 40.5394 117.484 42.0566C117.484 43.3478 117.32 44.66 116.863 45.8732C116.47 46.9128 115.926 47.8807 115.187 48.7127C114.486 49.5019 113.671 50.1659 112.759 50.6969C112.134 51.0613 111.487 51.3834 110.82 51.6606L110.82 51.6608ZM131.378 51.0189H140.976L136.197 41.3231L131.378 51.0189H131.378ZM91.4513 39.2178V44.7992H102.714C103.514 44.7992 104.353 44.7616 105.142 44.6173C105.601 44.5336 106.12 44.3933 106.511 44.1286C106.793 43.9375 106.995 43.6973 107.113 43.3778C107.272 42.9511 107.319 42.4612 107.319 42.0086C107.319 41.5559 107.272 41.0662 107.113 40.6391C106.995 40.3193 106.793 40.0795 106.511 39.8884C106.121 39.6235 105.601 39.4833 105.142 39.3996C104.353 39.2554 103.514 39.2178 102.714 39.2178H91.4513ZM79.599 53.2346C79.599 54.9724 79.1647 56.6162 78.3172 58.1317C77.3988 59.7735 76.0541 61.0723 74.5005 62.11C72.6398 63.3527 70.4751 64.175 68.319 64.7337C65.5558 65.45 62.6161 65.6877 59.7682 65.6877C56.909 65.6877 53.9693 65.4485 51.194 64.734C49.0319 64.1775 46.8512 63.3577 44.9867 62.1096C43.4374 61.0723 42.0873 59.7704 41.1709 58.1317C40.3232 56.6162 39.889 54.9724 39.889 53.2346V31.1062H49.9575V50.1085C49.9575 51.0811 50.0759 52.0555 50.3407 52.9929C50.5861 53.8616 51.0602 54.5953 51.7115 55.2168C52.5049 55.9741 53.6018 56.4579 54.6359 56.7788C56.232 57.2742 58.114 57.3831 59.7761 57.3831C61.4245 57.3831 63.3005 57.2744 64.8825 56.7792C65.9131 56.4566 67.0093 55.9717 67.8003 55.2164C68.45 54.5968 68.9159 53.8655 69.1538 52.9976C69.4114 52.0573 69.5304 51.0833 69.5304 50.1084V31.1061H79.5989V53.2344L79.599 53.2346ZM32.3718 47.1959C32.7657 47.2861 33.154 47.3923 33.5329 47.5174C34.6179 47.8758 35.6542 48.3992 36.5088 49.1682C37.306 49.8854 37.8874 50.7644 38.2499 51.7747C38.6438 52.8718 38.7793 54.0583 38.7793 55.2193C38.7793 56.3945 38.6463 57.6068 38.2508 58.7186C37.9099 59.6764 37.4126 60.5613 36.7415 61.3263C36.0905 62.0678 35.3079 62.6647 34.4272 63.1081C33.5147 63.5675 32.5484 63.9053 31.5575 64.1492C30.4787 64.4153 29.3739 64.5822 28.2668 64.673C27.0824 64.77 25.895 64.8198 24.7068 64.8198H0.609375V31.1063H24.2978C25.245 31.1063 26.192 31.1517 27.136 31.2292C28.0722 31.3061 29.0017 31.4554 29.9137 31.6807C30.7836 31.8955 31.6245 32.2088 32.4209 32.6208C33.2222 33.0355 33.93 33.5754 34.5274 34.2538C35.1569 34.969 35.6091 35.7984 35.9254 36.6952C36.2947 37.7418 36.4215 38.8785 36.4215 39.9837C36.4215 41.9453 35.9923 43.8949 34.7063 45.4277C34.0622 46.1958 33.2564 46.7688 32.3718 47.1959ZM10.6779 38.977V43.6904H22.8541C23.4957 43.6904 24.2173 43.654 24.8384 43.4818C25.2084 43.3792 25.6282 43.2222 25.929 42.976C26.1467 42.7976 26.3063 42.5899 26.3947 42.3359C26.4955 42.0259 26.5457 41.7083 26.5457 41.3819C26.5457 41.0555 26.4955 40.7379 26.3989 40.4402C26.3038 40.1663 26.1372 39.9418 25.9178 39.7541C25.613 39.4932 25.2012 39.3206 24.8213 39.2046C24.2105 39.0178 23.4895 38.9771 22.8543 38.9771H10.678L10.6779 38.977ZM10.6779 51.4645V56.9495H22.5975C23.5864 56.9495 24.5828 56.9205 25.568 56.8315C26.1756 56.7767 26.8544 56.6622 27.4111 56.4023C27.769 56.2353 28.0811 55.9923 28.2758 55.6428C28.5097 55.2237 28.5665 54.6624 28.5665 54.1909C28.5665 53.7217 28.5083 53.1641 28.2758 52.7469C28.0832 52.4014 27.7692 52.1678 27.4151 52.0051C26.8564 51.7484 26.1757 51.6371 25.568 51.5825C24.5828 51.4936 23.5864 51.4645 22.5975 51.4645H10.6779Z" fill="white"/>
</svg>
