<svg width="190" height="156" viewBox="0 0 190 156" fill="none" xmlns="http://www.w3.org/2000/svg">
<path d="M28.9003 82H29.8663L30.4123 75.112C30.4543 74.58 30.4403 73.712 30.4403 73.712H30.4683C30.4683 73.712 30.7763 74.622 31.0003 75.112L33.3103 80.166H34.2063L36.5303 75.112C36.7543 74.608 37.0483 73.74 37.0483 73.74H37.0763C37.0763 73.74 37.0623 74.58 37.1043 75.112L37.6503 82H38.6163L37.8323 72.158H36.8383L34.2483 77.94C34.0243 78.444 33.7723 79.144 33.7723 79.144H33.7443C33.7443 79.144 33.4923 78.444 33.2683 77.94L30.6783 72.158H29.6843L28.9003 82ZM40.2117 78.444C40.2117 80.572 41.8637 82.168 43.9217 82.168C45.9797 82.168 47.6457 80.572 47.6457 78.444C47.6457 76.358 45.9797 74.79 43.9217 74.79C41.8637 74.79 40.2117 76.358 40.2117 78.444ZM41.1917 78.444C41.1917 76.848 42.4097 75.644 43.9217 75.644C45.4337 75.644 46.6657 76.848 46.6657 78.444C46.6657 80.096 45.4337 81.3 43.9217 81.3C42.4097 81.3 41.1917 80.096 41.1917 78.444ZM49.116 78.01C49.116 80.39 50.124 82.168 52.434 82.168C54.324 82.168 55.64 80.81 55.64 78.864C55.64 76.82 54.38 75.616 52.658 75.616C51.608 75.616 50.656 75.966 50.026 77.1H49.998C50.096 75.616 50.656 74.608 52.252 73.852L54.968 72.606L54.618 71.808L52.014 73.026C49.676 74.09 49.116 75.63 49.116 78.01ZM50.152 78.85C50.152 77.478 51.09 76.414 52.462 76.414C53.652 76.414 54.66 77.324 54.66 78.878C54.66 80.418 53.652 81.328 52.406 81.328C51.174 81.328 50.152 80.418 50.152 78.85ZM57.4904 82H58.4004L61.8584 77.366C62.1244 76.974 62.5584 76.414 62.5724 76.344H62.6004C62.6004 76.4 62.5584 76.96 62.5584 77.366V82H63.4964V74.958H62.5864L59.1284 79.578C58.8484 79.97 58.4284 80.572 58.4004 80.628H58.3724C58.3864 80.6 58.4144 80.012 58.4144 79.578V74.958H57.4904V82ZM64.9079 82.056C66.7139 81.916 67.5119 80.418 67.5119 77.086V75.784H69.9479V82H70.8999V74.958H66.5879V77.086C66.5879 79.69 66.0839 81.02 64.9079 81.202V82.056ZM73.1858 82H75.6358C77.3298 82 78.1278 81.118 78.1278 79.844C78.1278 78.178 76.9238 77.646 75.6638 77.646H74.1378V74.958H73.1858V82ZM74.1378 81.244V78.402H75.5658C76.6718 78.402 77.1478 78.976 77.1478 79.83C77.1478 80.67 76.6858 81.244 75.5518 81.244H74.1378ZM79.7346 82H80.6866V78.808H84.8026V82H85.7546V74.958H84.8026V77.968H80.6866V74.958H79.7346V82ZM87.4037 80.11C87.4037 81.468 88.5937 82.168 89.7837 82.168C90.9177 82.168 91.7997 81.44 92.1637 80.586H92.1917C92.1917 80.586 92.1497 80.824 92.1497 81.174V82H93.0597V77.492C93.0597 75.728 92.1217 74.79 90.4277 74.79C89.4897 74.79 88.4957 75.112 87.9357 75.588L88.3697 76.316C88.9437 75.896 89.6577 75.644 90.3717 75.644C91.3657 75.644 92.1077 76.106 92.1077 77.464V77.66H91.6877C90.3437 77.66 87.4037 77.8 87.4037 80.11ZM88.3697 80.026C88.3697 78.458 90.6097 78.416 91.7017 78.416H92.1077V78.738C92.1077 79.97 91.3097 81.37 89.9517 81.37C88.9017 81.37 88.3697 80.684 88.3697 80.026ZM94.5382 82H95.6442L97.4922 79.298H98.9482V82H99.9002V74.958H97.4222C95.9662 74.958 94.9302 75.686 94.9302 77.1C94.9302 78.248 95.7282 78.962 96.5542 79.13V79.158C96.5542 79.158 96.3722 79.354 96.2322 79.578L94.5382 82ZM97.5342 78.556C96.6242 78.556 95.9102 78.052 95.9102 77.1C95.9102 76.092 96.5542 75.686 97.6042 75.686H98.9482V78.556H97.5342ZM105.684 82H108.372C109.954 82 110.92 81.244 110.92 80.026C110.92 79.2 110.402 78.514 109.492 78.332V78.304C110.178 78.052 110.556 77.478 110.556 76.75C110.556 75.588 109.66 74.958 108.232 74.958H105.684V82ZM106.636 78.01V75.686H108.078C109.072 75.686 109.576 76.05 109.576 76.806C109.576 77.562 109.086 78.01 108.134 78.01H106.636ZM106.636 81.258V78.738H108.232C109.324 78.738 109.94 79.186 109.94 80.012C109.94 80.768 109.408 81.258 108.246 81.258H106.636ZM112.249 78.486C112.249 80.656 113.845 82.168 115.945 82.168C116.869 82.168 117.891 81.79 118.549 81.188L118.115 80.46C117.541 80.978 116.743 81.3 115.973 81.3C114.517 81.3 113.285 80.306 113.243 78.514H118.647C118.661 78.36 118.675 78.192 118.675 78.038C118.675 76.288 117.681 74.79 115.735 74.79C113.831 74.79 112.249 76.176 112.249 78.486ZM113.285 77.758C113.509 76.344 114.531 75.574 115.707 75.574C116.757 75.574 117.653 76.288 117.709 77.758H113.285ZM120.463 84.8H121.415V81.384C121.415 81.02 121.373 80.768 121.373 80.768H121.401C121.863 81.65 122.731 82.168 123.725 82.168C125.559 82.168 126.875 80.712 126.875 78.472C126.875 76.302 125.713 74.79 123.809 74.79C122.717 74.79 121.793 75.336 121.359 76.246H121.331C121.331 76.246 121.373 76.008 121.373 75.7V74.958H120.463V84.8ZM121.387 78.5C121.387 76.498 122.493 75.658 123.669 75.658C124.985 75.658 125.909 76.764 125.909 78.486C125.909 80.278 124.873 81.314 123.627 81.314C122.185 81.314 121.387 79.914 121.387 78.5ZM128.231 78.486C128.231 80.67 129.841 82.168 131.927 82.168C133.005 82.168 134.055 81.734 134.671 81.048L134.237 80.334C133.677 80.95 132.795 81.3 131.983 81.3C130.415 81.3 129.211 80.138 129.211 78.486C129.211 76.806 130.415 75.644 131.955 75.644C132.739 75.644 133.523 76.008 134.013 76.512L134.503 75.798C133.873 75.112 132.851 74.79 131.927 74.79C129.855 74.79 128.231 76.316 128.231 78.486ZM136.295 82H137.205L140.663 77.366C140.929 76.974 141.363 76.414 141.377 76.344H141.405C141.405 76.4 141.363 76.96 141.363 77.366V82H142.301V74.958H141.391L137.933 79.578C137.653 79.97 137.233 80.572 137.205 80.628H137.177C137.191 80.6 137.219 80.012 137.219 79.578V74.958H136.295V82ZM143.853 82H144.959L146.807 79.298H148.263V82H149.215V74.958H146.737C145.281 74.958 144.245 75.686 144.245 77.1C144.245 78.248 145.043 78.962 145.869 79.13V79.158C145.869 79.158 145.687 79.354 145.547 79.578L143.853 82ZM146.849 78.556C145.939 78.556 145.225 78.052 145.225 77.1C145.225 76.092 145.869 75.686 146.919 75.686H148.263V78.556H146.849ZM154.998 82H155.908L159.366 77.366C159.632 76.974 160.066 76.414 160.08 76.344H160.108C160.108 76.4 160.066 76.96 160.066 77.366V82H161.004V74.958H160.094L156.636 79.578C156.356 79.97 155.936 80.572 155.908 80.628H155.88C155.894 80.6 155.922 80.012 155.922 79.578V74.958H154.998V82ZM31.3627 98.11C31.3627 99.468 32.5527 100.168 33.7427 100.168C34.8767 100.168 35.7587 99.44 36.1227 98.586H36.1507C36.1507 98.586 36.1087 98.824 36.1087 99.174V100H37.0187V95.492C37.0187 93.728 36.0807 92.79 34.3867 92.79C33.4487 92.79 32.4547 93.112 31.8947 93.588L32.3287 94.316C32.9027 93.896 33.6167 93.644 34.3307 93.644C35.3247 93.644 36.0667 94.106 36.0667 95.464V95.66H35.6467C34.3027 95.66 31.3627 95.8 31.3627 98.11ZM32.3287 98.026C32.3287 96.458 34.5687 96.416 35.6607 96.416H36.0667V96.738C36.0667 97.97 35.2687 99.37 33.9107 99.37C32.8607 99.37 32.3287 98.684 32.3287 98.026ZM40.1211 99.188C41.1711 97.606 41.2691 95.24 41.2691 94.19V93.77H43.7331V99.188H40.1211ZM38.2311 99.188V101.68H39.1411V100H44.7691V101.68H45.6791V99.188H44.6851V92.958H40.3311V94.106C40.3311 95.058 40.2891 97.634 39.0991 99.188H38.2311ZM46.6069 98.11C46.6069 99.468 47.7969 100.168 48.9869 100.168C50.1209 100.168 51.0029 99.44 51.3669 98.586H51.3949C51.3949 98.586 51.3529 98.824 51.3529 99.174V100H52.2629V95.492C52.2629 93.728 51.3249 92.79 49.6309 92.79C48.6929 92.79 47.6989 93.112 47.1389 93.588L47.5729 94.316C48.1469 93.896 48.8609 93.644 49.5749 93.644C50.5689 93.644 51.3109 94.106 51.3109 95.464V95.66H50.8909C49.5469 95.66 46.6069 95.8 46.6069 98.11ZM47.5729 98.026C47.5729 96.458 49.8129 96.416 50.9049 96.416H51.3109V96.738C51.3109 97.97 50.5129 99.37 49.1549 99.37C48.1049 99.37 47.5729 98.684 47.5729 98.026ZM54.4553 100H55.4073V93.798H59.3973V100H60.3493V92.958H54.4553V100ZM64.3674 100H65.3194V93.798H67.8954V92.958H61.8054V93.798H64.3674V100ZM69.3576 100H70.2676L73.7256 95.366C73.9916 94.974 74.4256 94.414 74.4396 94.344H74.4676C74.4676 94.4 74.4256 94.96 74.4256 95.366V100H75.3636V92.958H74.4536L70.9956 97.578C70.7156 97.97 70.2956 98.572 70.2676 98.628H70.2396C70.2536 98.6 70.2816 98.012 70.2816 97.578V92.958H69.3576V100ZM77.6291 100H80.3171C81.8991 100 82.8651 99.244 82.8651 98.026C82.8651 97.2 82.3471 96.514 81.4371 96.332V96.304C82.1231 96.052 82.5011 95.478 82.5011 94.75C82.5011 93.588 81.6051 92.958 80.1771 92.958H77.6291V100ZM78.5811 96.01V93.686H80.0231C81.0171 93.686 81.5211 94.05 81.5211 94.806C81.5211 95.562 81.0311 96.01 80.0791 96.01H78.5811ZM78.5811 99.258V96.738H80.1771C81.2691 96.738 81.8851 97.186 81.8851 98.012C81.8851 98.768 81.3531 99.258 80.1911 99.258H78.5811ZM84.6701 100H85.6221V96.808H89.7381V100H90.6901V92.958H89.7381V95.968H85.6221V92.958H84.6701V100ZM99.0733 100H100.025V92.958H99.0733V100ZM92.9553 100H95.3913C97.0853 100 97.8833 99.118 97.8833 97.844C97.8833 96.178 96.6793 95.646 95.4193 95.646H93.9073V92.958H92.9553V100ZM93.9073 99.244V96.402H95.3213C96.4273 96.402 96.9033 96.976 96.9033 97.83C96.9033 98.67 96.4413 99.244 95.3073 99.244H93.9073ZM105.289 92.034C106.241 92.034 107.137 91.432 107.137 90.382V90.144H106.325V90.34C106.325 90.984 105.807 91.32 105.289 91.32C104.757 91.32 104.267 90.984 104.267 90.354V90.144H103.441V90.382C103.441 91.432 104.337 92.034 105.289 92.034ZM102.293 100H103.203L106.661 95.366C106.927 94.974 107.361 94.414 107.375 94.344H107.403C107.403 94.4 107.361 94.96 107.361 95.366V100H108.299V92.958H107.389L103.931 97.578C103.651 97.97 103.231 98.572 103.203 98.628H103.175C103.189 98.6 103.217 98.012 103.217 97.578V92.958H102.293V100ZM114.975 99.188C116.025 97.606 116.123 95.24 116.123 94.19V93.77H118.587V99.188H114.975ZM113.085 99.188V101.68H113.995V100H119.623V101.68H120.533V99.188H119.539V92.958H115.185V94.106C115.185 95.058 115.143 97.634 113.953 99.188H113.085ZM122.076 100H122.986L126.444 95.366C126.71 94.974 127.144 94.414 127.158 94.344H127.186C127.186 94.4 127.144 94.96 127.144 95.366V100H128.082V92.958H127.172L123.714 97.578C123.434 97.97 123.014 98.572 122.986 98.628H122.958C122.972 98.6 123 98.012 123 97.578V92.958H122.076V100ZM129.634 99.146C130.152 99.65 130.978 100.168 132.084 100.168C133.442 100.168 134.702 99.44 134.702 98.012C134.702 97.074 134.142 96.514 133.372 96.318V96.29C133.974 96.052 134.45 95.562 134.45 94.68C134.45 93.42 133.456 92.79 132.154 92.79C131.132 92.79 130.362 93.154 129.872 93.56L130.292 94.232C130.768 93.854 131.328 93.602 132.014 93.602C132.882 93.602 133.47 93.994 133.47 94.792C133.47 95.604 132.854 95.982 131.902 95.982H131.16V96.738H132.014C133.134 96.738 133.722 97.186 133.722 97.984C133.722 98.922 132.882 99.356 132.028 99.356C131.076 99.356 130.418 98.782 130.138 98.488L129.634 99.146ZM135.884 98.11C135.884 99.468 137.074 100.168 138.264 100.168C139.398 100.168 140.28 99.44 140.644 98.586H140.672C140.672 98.586 140.63 98.824 140.63 99.174V100H141.54V95.492C141.54 93.728 140.602 92.79 138.908 92.79C137.97 92.79 136.976 93.112 136.416 93.588L136.85 94.316C137.424 93.896 138.138 93.644 138.852 93.644C139.846 93.644 140.588 94.106 140.588 95.464V95.66H140.168C138.824 95.66 135.884 95.8 135.884 98.11ZM136.85 98.026C136.85 96.458 139.09 96.416 140.182 96.416H140.588V96.738C140.588 97.97 139.79 99.37 138.432 99.37C137.382 99.37 136.85 98.684 136.85 98.026ZM146.729 92.034C147.681 92.034 148.577 91.432 148.577 90.382V90.144H147.765V90.34C147.765 90.984 147.247 91.32 146.729 91.32C146.197 91.32 145.707 90.984 145.707 90.354V90.144H144.881V90.382C144.881 91.432 145.777 92.034 146.729 92.034ZM143.733 100H144.643L148.101 95.366C148.367 94.974 148.801 94.414 148.815 94.344H148.843C148.843 94.4 148.801 94.96 148.801 95.366V100H149.739V92.958H148.829L145.371 97.578C145.091 97.97 144.671 98.572 144.643 98.628H144.615C144.629 98.6 144.657 98.012 144.657 97.578V92.958H143.733V100ZM152.004 100H152.956V96.808H157.072V100H158.024V92.958H157.072V95.968H152.956V92.958H152.004V100Z" fill="white"/>
<path d="M88.9582 60V55.8117C88.9582 55.6028 88.8971 55.3989 88.782 55.2255L86.566 51.8685H99.4145C100.003 51.8685 100.48 51.391 100.48 50.8027C100.48 50.7899 100.476 50.7779 100.476 50.7651C100.476 50.7523 100.48 50.7402 100.48 50.7274V45.9331C100.48 44.5831 101.17 42.8971 101.955 42.3252L105.981 38.5063C105.982 38.5035 105.984 38.5021 105.985 38.4992C106.083 38.4047 106.161 38.2939 106.218 38.1674C106.22 38.1624 106.222 38.1589 106.224 38.1546C106.274 38.0388 106.301 37.9116 106.307 37.7795C106.307 37.7688 106.31 37.761 106.31 37.7518C106.31 37.7454 106.311 37.7397 106.311 37.7347C106.311 37.6097 106.286 37.4917 106.247 37.3809C106.242 37.3695 106.24 37.3589 106.236 37.3475C106.188 37.2225 106.114 37.1102 106.025 37.0122C106.021 37.0079 106.019 37.0029 106.016 36.9987C106.014 36.9958 106.012 36.9958 106.009 36.9944C105.915 36.8956 105.804 36.8168 105.677 36.7614C105.673 36.7599 105.67 36.7571 105.665 36.7543C105.55 36.7052 105.422 36.6782 105.29 36.6725C105.279 36.6711 105.271 36.6697 105.262 36.6697C105.255 36.6683 105.25 36.6669 105.245 36.6669H97.3022C95.7391 36.6669 94.4667 35.3944 94.4667 33.8306V33.1116C94.4667 31.5478 95.7391 30.2767 97.3022 30.2767H108.789H109.42H109.52C111.712 31.8157 114.547 38.2378 111.984 48.0098C111.983 48.0119 111.983 48.0155 111.982 48.0169C111.982 48.0183 111.982 48.0198 111.982 48.0198C111.786 48.7999 111.386 49.0564 110.423 49.6098L111.487 51.4571C112.484 50.8823 113.613 50.2301 114.043 48.5597C114.045 48.5569 114.046 48.554 114.048 48.5512C117.423 36.9887 113.006 29.1094 109.519 27.8533V27.579V3.90768C109.519 1.75277 107.765 0 105.611 0H84.2967C82.1418 0 80.3891 1.75277 80.3891 3.90768V12.1295H79.037C76.811 12.1295 75 13.9405 75 16.1664C75 18.2219 76.5446 19.9192 78.5333 20.1679C76.5446 20.4173 75 22.1146 75 24.1701C75 26.3953 76.811 28.2064 79.037 28.2064C76.811 28.2064 75 30.0174 75 32.2434C75 34.47 76.811 36.2811 79.037 36.2811C76.811 36.2811 75 38.0921 75 40.3181C75 42.544 76.811 44.3551 79.037 44.3551H80.3891V47.9608C80.3891 50.0162 81.9855 51.7036 84.0033 51.8535L86.8268 56.1314V60H88.9582ZM80.3883 42.4907H79.0363C77.8377 42.4907 76.8622 41.5152 76.8622 40.3166C76.8622 39.118 77.8377 38.1425 79.0363 38.1425H80.3883V42.4907ZM80.3883 34.416H79.0363C77.8377 34.416 76.8622 33.4405 76.8622 32.2412C76.8622 31.0419 77.8377 30.0664 79.0363 30.0664H80.3883V34.416ZM80.3883 26.3406H79.0363C77.8377 26.3406 76.8622 25.3651 76.8622 24.1672C76.8622 22.9679 77.8377 21.9932 79.0363 21.9932H80.3883V26.3406ZM80.3883 18.3398H79.0363C77.8377 18.3398 76.8622 17.3643 76.8622 16.1664C76.8622 14.9686 77.8377 13.9931 79.0363 13.9931H80.3883V18.3398ZM107.387 28.1439H97.3029C94.564 28.1439 92.3359 30.3719 92.3359 33.1116V33.8334C92.3359 36.5724 94.5647 38.8012 97.3036 38.8012H102.581L100.642 40.6492C99.1523 41.781 98.3488 44.203 98.3488 45.9338V49.737H84.296C83.317 49.737 82.5198 48.9405 82.5198 47.9608V3.90768C82.5198 2.92863 83.317 2.13146 84.296 2.13146H105.611C106.59 2.13146 107.387 2.92863 107.387 3.90768V28.1439Z" fill="white"/>
<path d="M105.736 6.82335C105.736 5.33416 104.524 4.12207 103.034 4.12207H86.8751C85.3859 4.12207 84.1738 5.33345 84.1738 6.82335V44.7243C84.1738 46.2142 85.3859 47.427 86.8751 47.427H95.9047L95.9054 45.9535H86.8751C86.1973 45.9535 85.6467 45.4021 85.6467 44.725V6.82335C85.6467 6.14625 86.198 5.59562 86.8751 5.59562H103.034C103.712 5.59562 104.263 6.14625 104.263 6.82335V25.5532H105.736V6.82335Z" fill="white"/>
<path d="M94.9443 8.75446C91.6086 8.75446 88.9023 11.46 88.9023 14.7964C88.9023 18.1315 91.6086 20.837 94.9443 20.837C98.2801 20.837 100.986 18.1308 100.986 14.7964C100.986 11.4593 98.2801 8.75446 94.9443 8.75446ZM94.4172 17.3805L91.8303 14.795L92.9045 13.7201L94.4172 15.2327L97.4438 12.206L98.5181 13.2803L94.4172 17.3805Z" fill="white"/>
</svg>
