<svg width="292" height="297" viewBox="0 0 292 297" fill="none" xmlns="http://www.w3.org/2000/svg">
<path fill-rule="evenodd" clip-rule="evenodd" d="M103.501 99.9331C103.501 99.9331 96.728 95.4899 95.7903 96.5145C95.4571 96.8785 94.6771 98.118 93.9511 99.4703C93.4378 100.424 93.5956 101.599 94.3497 102.377L96.0953 104.182C97.7595 105.902 100.575 105.778 102.043 103.889C102.783 102.936 103.374 101.651 103.501 99.9333V99.9331Z" fill="#FEBBBA"/>
<path fill-rule="evenodd" clip-rule="evenodd" d="M110.408 91.4927C110.408 91.4927 108.083 85.3752 105.368 85.9352C102.654 86.495 99.6821 88.5805 99.6821 88.5805L95.3203 94.4796C95.3203 94.4796 107.564 99.3039 111.87 96.5386C111.87 96.5386 124.377 98.7002 140.17 96.109C137.883 91.2809 136.521 86.4497 135.722 82.6982C127.723 87.2265 119.106 90.6084 110.408 91.4924L110.408 91.4927Z" fill="#FEBBBA"/>
<path fill-rule="evenodd" clip-rule="evenodd" d="M176.65 47.1111C176.65 47.1111 158.745 69.664 135.719 82.698C136.518 86.4495 137.881 91.2804 140.167 96.1087C152.113 94.1482 165.938 89.4692 177.658 79.0752L176.65 47.1111H176.65Z" fill="#109C83"/>
<path fill-rule="evenodd" clip-rule="evenodd" d="M198.982 147.071C195.48 130.438 191.978 120.808 180.255 89.2806C176.564 79.3596 173.213 69.3212 174.833 58.8593L176.65 47.1116C176.65 47.1116 199.438 39.401 224.696 46.7877C224.696 46.7877 259.157 61.7564 235.75 135.69C225.199 147.494 212.852 150.859 198.982 147.071V147.071Z" fill="#109C83"/>
<path fill-rule="evenodd" clip-rule="evenodd" d="M180.532 32.1166L186.439 46.312C186.814 47.2085 187.62 47.8464 188.577 48.0108C191.983 48.5953 200.222 49.5089 205.634 45.95C206.279 45.525 206.442 44.6498 206.002 44.0171L195.086 28.3442L180.531 32.1166H180.532Z" fill="#FEBBBA"/>
<path fill-rule="evenodd" clip-rule="evenodd" d="M186.64 10.3989C186.392 10.6331 176.168 30.7107 176.168 30.7107L187.757 36.3048L200.274 18.715C200.274 18.715 190.794 6.48858 186.64 10.3989Z" fill="#FEBBBA"/>
<path fill-rule="evenodd" clip-rule="evenodd" d="M195.009 20.8264L189.23 30.461C189.141 30.6066 189.037 30.7385 188.912 30.8547C188.224 31.4961 185.87 33.3576 184.05 30.8218C182.498 28.6602 181.044 26.6962 179.484 25.8846C178.574 25.4116 177.452 25.7896 176.991 26.7067C176.039 28.5926 174.193 32.4411 173.035 36.0885C172.744 37.0036 173.217 37.9846 174.106 38.3454C176.452 39.2953 181.09 41.0148 185.206 41.5833C185.882 41.6771 186.551 41.3907 186.953 40.8399C188.723 38.4145 193.714 31.6367 195.418 29.9396C196.999 28.3639 199.92 28.9568 201.235 29.3362C201.735 29.4783 202.267 29.4109 202.713 29.1419C204.047 28.3375 206.377 26.3351 204.246 22.9447C203.716 22.1003 203.986 20.979 204.818 20.4311C206.31 19.4498 207.927 17.6109 206.385 14.6293C204.826 11.6128 202.04 11.3409 200.141 11.5727C199.302 11.6752 198.449 11.2346 198.127 10.4531C197.985 10.1045 197.701 9.80822 197.174 9.70248C196.18 9.49942 195.527 8.59104 195.723 7.59464C196.057 5.88711 195.804 3.66975 193.079 2.17021C188.078 -0.579042 183.699 3.90012 182.584 7.68092C181.471 11.4635 187.062 14.1352 190.577 14.5822C193.161 14.9096 194.577 17.7286 195.147 19.202C195.353 19.7374 195.303 20.3341 195.008 20.8262L195.009 20.8264Z" fill="black"/>
<path fill-rule="evenodd" clip-rule="evenodd" d="M192.984 32.8238C192.984 32.8238 195.472 26.9711 198.318 27.2105C201.164 27.4499 203.404 30.2843 199.877 33.4719C195.49 37.4368 192.985 32.8241 192.985 32.8241L192.984 32.8238Z" fill="#FEBBBA"/>
<path fill-rule="evenodd" clip-rule="evenodd" d="M196.742 293.659C202.246 294.136 211.798 294.908 219.328 295.24C223.855 295.44 226.46 294.996 227.961 294.394C227.958 294.564 227.953 294.724 227.948 294.873C227.911 295.665 227.268 296.299 226.467 296.343C212.238 297.137 200.924 296.618 196.895 296.372C196.061 296.322 195.566 295.417 195.992 294.706C196.205 294.351 196.464 294.004 196.742 293.659L196.742 293.659Z" fill="#69CCFA"/>
<path fill-rule="evenodd" clip-rule="evenodd" d="M219.324 295.24C211.794 294.908 202.243 294.136 196.738 293.659C202.148 287.022 219.324 282.548 219.324 282.548H224.175C227.51 287.356 227.994 291.935 227.957 294.394C226.456 294.996 223.851 295.44 219.324 295.24Z" fill="#104F95"/>
<path fill-rule="evenodd" clip-rule="evenodd" d="M224.99 274.629L224.536 283.611C224.486 284.583 223.758 285.401 222.785 285.54C221.815 285.678 220.518 285.696 219.142 285.238C218.294 284.957 217.666 284.243 217.508 283.373L215.941 274.629H224.99Z" fill="#FEBBBA"/>
<path fill-rule="evenodd" clip-rule="evenodd" d="M287.991 295.173C290.38 294.84 291.458 293.601 291.91 292.275L291.919 292.311C292.269 293.708 291.458 295.157 289.832 295.846C287.864 296.679 285.711 296.821 284.041 296.752C282.252 296.679 280.608 295.938 279.705 294.752L279.688 294.733C281.489 295.624 284.014 295.728 287.991 295.173Z" fill="#69CCFA"/>
<path fill-rule="evenodd" clip-rule="evenodd" d="M276.738 274.572H280.741C286.834 274.447 290.662 287.297 291.911 292.275C291.46 293.601 290.381 294.84 287.992 295.173C284.015 295.728 281.49 295.624 279.689 294.733C276.4 290.403 274.765 284.058 273.985 280.355C273.091 276.144 276.738 274.572 276.738 274.572V274.572Z" fill="#104F95"/>
<path fill-rule="evenodd" clip-rule="evenodd" d="M280.226 266.234L282.444 275.069C282.72 276.151 282.198 277.273 281.199 277.786C279.954 278.424 278.205 279.095 276.6 278.9C275.842 278.809 275.215 278.276 274.965 277.564L271.703 268.269L280.226 266.234Z" fill="#FEBBBA"/>
<path fill-rule="evenodd" clip-rule="evenodd" d="M282.877 268.787C280.115 271.24 271.124 271.562 271.124 271.562C238.746 193.851 225.247 172.457 225.247 172.457C229.923 201.79 226.256 277.08 226.256 277.08C220.912 279.438 214.024 277.08 214.024 277.08C213.59 229.06 206.829 177.461 198.109 144.444C219.993 143.952 231.887 139.181 235.687 136.177C253.928 165.586 282.877 268.787 282.877 268.787Z" fill="#084282"/>
<path fill-rule="evenodd" clip-rule="evenodd" d="M192.598 166.16L196.625 191.206C197.327 195.575 201.373 198.603 205.783 198.066L266.052 190.714C268.999 190.355 271.239 187.892 271.296 184.936C271.427 178.465 271.173 166.948 268.455 156.455L192.598 166.16V166.16Z" fill="#14ABB5"/>
<path d="M262.29 157.44C262.191 157.44 262.106 157.367 262.094 157.268C262.08 157.159 262.156 157.061 262.265 157.045L263.836 156.844C263.959 156.83 264.047 156.908 264.06 157.015C264.073 157.125 263.999 157.223 263.889 157.237L262.316 157.439L262.29 157.44H262.29ZM257.046 158.111C256.949 158.111 256.862 158.038 256.85 157.938C256.836 157.83 256.912 157.73 257.021 157.716L258.593 157.515C258.717 157.499 258.802 157.579 258.816 157.686C258.831 157.796 258.753 157.895 258.646 157.908L257.072 158.11L257.046 158.111V158.111ZM251.802 158.784C251.705 158.784 251.618 158.709 251.606 158.61C251.592 158.501 251.669 158.402 251.778 158.388L253.35 158.187C253.475 158.168 253.558 158.249 253.572 158.357C253.588 158.466 253.51 158.565 253.402 158.579L251.828 158.782L251.802 158.784H251.802ZM267.212 159.31C267.124 159.31 267.041 159.248 267.019 159.155C266.905 158.64 266.787 158.125 266.664 157.613C266.638 157.508 266.704 157.4 266.809 157.374C266.918 157.346 267.024 157.414 267.05 157.52C267.173 158.035 267.291 158.551 267.405 159.07C267.431 159.177 267.361 159.283 267.256 159.307L267.212 159.31ZM246.558 159.454C246.461 159.454 246.374 159.38 246.362 159.281C246.348 159.172 246.424 159.073 246.533 159.059L248.106 158.856C248.231 158.846 248.314 158.921 248.328 159.028C248.344 159.137 248.265 159.236 248.158 159.25L246.584 159.453L246.558 159.454ZM241.314 160.125C241.215 160.125 241.131 160.051 241.118 159.952C241.104 159.842 241.181 159.744 241.29 159.73L242.862 159.529C242.989 159.515 243.07 159.591 243.084 159.7C243.098 159.808 243.022 159.908 242.912 159.922L241.34 160.124L241.314 160.125ZM236.07 160.796C235.971 160.796 235.887 160.721 235.874 160.623C235.86 160.513 235.937 160.415 236.046 160.401L237.618 160.2C237.738 160.186 237.826 160.262 237.84 160.371C237.854 160.479 237.778 160.58 237.669 160.593L236.096 160.795L236.07 160.796V160.796ZM230.827 161.467C230.728 161.467 230.642 161.394 230.631 161.294C230.617 161.184 230.693 161.085 230.802 161.072L232.374 160.87C232.487 160.855 232.584 160.933 232.596 161.04C232.61 161.149 232.534 161.248 232.426 161.263L230.852 161.465L230.826 161.467L230.827 161.467ZM225.583 162.138C225.486 162.138 225.399 162.065 225.387 161.964C225.373 161.855 225.449 161.756 225.558 161.743L227.131 161.541C227.252 161.524 227.341 161.606 227.353 161.713C227.368 161.822 227.29 161.921 227.183 161.935L225.609 162.136L225.583 162.138ZM220.339 162.809C220.24 162.809 220.155 162.736 220.143 162.635C220.127 162.526 220.205 162.427 220.314 162.413L221.887 162.212C222.01 162.202 222.094 162.276 222.109 162.384C222.122 162.491 222.046 162.591 221.937 162.606L220.365 162.807L220.339 162.809ZM215.095 163.479C214.996 163.479 214.911 163.406 214.899 163.306C214.885 163.198 214.961 163.098 215.07 163.084L216.643 162.883C216.766 162.871 216.851 162.947 216.865 163.055C216.878 163.164 216.802 163.263 216.693 163.277L215.121 163.478L215.095 163.48L215.095 163.479ZM209.851 164.15C209.752 164.15 209.667 164.077 209.655 163.977C209.641 163.868 209.718 163.769 209.826 163.755L211.399 163.554C211.524 163.54 211.607 163.618 211.621 163.726C211.635 163.834 211.559 163.933 211.449 163.948L209.877 164.148L209.851 164.15ZM268.168 164.509C268.076 164.509 267.988 164.438 267.975 164.341C267.896 163.821 267.813 163.299 267.725 162.778C267.703 162.67 267.778 162.568 267.887 162.549C268.001 162.531 268.098 162.604 268.115 162.711C268.203 163.235 268.286 163.759 268.369 164.28C268.383 164.39 268.308 164.49 268.203 164.507L268.168 164.509ZM204.607 164.821C204.509 164.821 204.423 164.748 204.412 164.648C204.398 164.54 204.474 164.44 204.583 164.426L206.155 164.225C206.28 164.209 206.363 164.288 206.377 164.396C206.391 164.506 206.315 164.604 206.205 164.618L204.633 164.82L204.607 164.821H204.607ZM199.363 165.492C199.265 165.492 199.18 165.419 199.165 165.319C199.152 165.211 199.23 165.111 199.337 165.097L200.911 164.895C201.038 164.88 201.12 164.96 201.133 165.067C201.147 165.176 201.071 165.275 200.962 165.289L199.39 165.491L199.364 165.492L199.363 165.492ZM194.695 167.688C194.6 167.688 194.516 167.619 194.499 167.522L194.215 165.752L195.668 165.567C195.78 165.549 195.875 165.631 195.89 165.738C195.903 165.848 195.827 165.947 195.718 165.961L194.673 166.094L194.891 167.458C194.909 167.566 194.836 167.667 194.728 167.685L194.695 167.689L194.695 167.688ZM268.817 169.756C268.716 169.756 268.628 169.68 268.619 169.576C268.567 169.056 268.514 168.531 268.457 168.002C268.444 167.893 268.523 167.796 268.628 167.784C268.738 167.77 268.834 167.85 268.848 167.957C268.909 168.488 268.966 169.015 269.014 169.538C269.023 169.648 268.944 169.745 268.834 169.755L268.817 169.757L268.817 169.756ZM195.534 172.908C195.439 172.908 195.354 172.839 195.338 172.74L195.087 171.174C195.069 171.067 195.144 170.964 195.251 170.947C195.364 170.93 195.461 171.004 195.479 171.112L195.73 172.677C195.747 172.785 195.675 172.887 195.565 172.904L195.534 172.908V172.908ZM269.202 175.03C269.097 175.03 269.009 174.948 269.005 174.842C268.979 174.323 268.948 173.795 268.913 173.262C268.904 173.151 268.987 173.057 269.097 173.05C269.229 173.059 269.303 173.126 269.307 173.235C269.343 173.771 269.373 174.302 269.4 174.822C269.404 174.931 269.321 175.025 269.211 175.03H269.202ZM196.373 178.128C196.278 178.128 196.195 178.058 196.179 177.959L195.926 176.394C195.908 176.286 195.981 176.184 196.09 176.167C196.2 176.151 196.3 176.222 196.317 176.331L196.569 177.897C196.586 178.004 196.513 178.106 196.406 178.124L196.373 178.127V178.128ZM269.36 180.315C269.251 180.315 269.163 180.227 269.159 180.119C269.154 179.606 269.146 179.079 269.137 178.535C269.133 178.426 269.22 178.334 269.33 178.332C269.448 178.313 269.531 178.417 269.531 178.526C269.545 179.072 269.553 179.603 269.558 180.116C269.558 180.225 269.47 180.315 269.361 180.315H269.36ZM197.214 183.347C197.117 183.347 197.034 183.278 197.018 183.181L196.765 181.614C196.747 181.506 196.822 181.404 196.93 181.387C197.042 181.368 197.139 181.444 197.157 181.551L197.408 183.117C197.425 183.226 197.352 183.326 197.245 183.344L197.214 183.347ZM269.08 185.575C269.058 185.575 269.036 185.571 269.018 185.566C268.913 185.533 268.856 185.421 268.891 185.317C269.04 184.831 269.128 184.325 269.137 183.813C269.141 183.705 269.229 183.619 269.338 183.619H269.343C269.452 183.623 269.535 183.713 269.535 183.822C269.522 184.372 269.43 184.916 269.264 185.436C269.237 185.521 269.163 185.575 269.079 185.575H269.08ZM198.051 188.567C197.956 188.567 197.87 188.498 197.857 188.4L197.605 186.834C197.586 186.726 197.661 186.624 197.768 186.606C197.877 186.589 197.978 186.662 197.995 186.771L198.247 188.336C198.264 188.445 198.191 188.546 198.084 188.563L198.051 188.567ZM265.516 189.221C265.432 189.221 265.358 189.169 265.327 189.085C265.292 188.983 265.349 188.87 265.45 188.834C265.932 188.667 266.388 188.435 266.809 188.142C266.901 188.08 267.024 188.102 267.085 188.192C267.151 188.28 267.129 188.405 267.037 188.468C266.586 188.782 266.099 189.031 265.582 189.21C265.56 189.217 265.538 189.22 265.516 189.22L265.516 189.221ZM260.291 189.983C260.192 189.983 260.107 189.908 260.095 189.81C260.081 189.7 260.159 189.601 260.267 189.588L261.841 189.395C261.957 189.381 262.049 189.459 262.063 189.568C262.077 189.676 261.998 189.777 261.889 189.788L260.315 189.981L260.291 189.983H260.291ZM255.044 190.622C254.945 190.622 254.86 190.548 254.848 190.449C254.834 190.34 254.912 190.241 255.02 190.227L256.594 190.037C256.71 190.023 256.802 190.101 256.815 190.208C256.829 190.318 256.751 190.417 256.642 190.43L255.068 190.621L255.044 190.622ZM249.797 191.262C249.698 191.262 249.613 191.189 249.599 191.089C249.587 190.98 249.663 190.881 249.772 190.867L251.346 190.677C251.461 190.659 251.555 190.741 251.568 190.848C251.581 190.957 251.503 191.056 251.395 191.07L249.821 191.262H249.797H249.797ZM244.549 191.904C244.449 191.904 244.364 191.829 244.352 191.728C244.338 191.621 244.415 191.521 244.525 191.508L246.099 191.316C246.214 191.302 246.305 191.38 246.319 191.487C246.333 191.597 246.255 191.697 246.147 191.71L244.573 191.902L244.549 191.904V191.904ZM239.3 192.544C239.201 192.544 239.117 192.469 239.104 192.368C239.09 192.261 239.168 192.16 239.276 192.148L240.851 191.956C240.957 191.944 241.058 192.02 241.072 192.129C241.085 192.238 241.008 192.337 240.898 192.349L239.324 192.542L239.3 192.544H239.3ZM234.053 193.183C233.954 193.183 233.869 193.11 233.857 193.009C233.843 192.9 233.921 192.802 234.028 192.788L235.602 192.595C235.719 192.578 235.811 192.661 235.825 192.769C235.838 192.878 235.76 192.976 235.651 192.989L234.077 193.181L234.052 193.183H234.053ZM199.797 193.481C199.738 193.481 199.679 193.455 199.639 193.403C199.31 192.975 199.02 192.512 198.784 192.023C198.736 191.926 198.776 191.806 198.875 191.76C198.975 191.713 199.093 191.751 199.14 191.85C199.365 192.315 199.639 192.755 199.953 193.162C200.021 193.249 200.005 193.372 199.918 193.439C199.882 193.467 199.839 193.481 199.797 193.481L199.797 193.481ZM228.805 193.825C228.707 193.825 228.622 193.75 228.608 193.649C228.595 193.54 228.673 193.441 228.781 193.429L230.355 193.237C230.47 193.221 230.563 193.301 230.577 193.409C230.589 193.518 230.513 193.616 230.404 193.631L228.83 193.823L228.806 193.825L228.805 193.825ZM223.558 194.464C223.459 194.464 223.373 194.39 223.361 194.289C223.348 194.182 223.425 194.081 223.534 194.069L225.108 193.877C225.222 193.865 225.316 193.941 225.328 194.05C225.342 194.158 225.264 194.258 225.156 194.27L223.582 194.463L223.558 194.465L223.558 194.464ZM218.311 195.104C218.21 195.104 218.125 195.029 218.113 194.931C218.099 194.821 218.177 194.723 218.287 194.709L219.86 194.516C219.975 194.499 220.067 194.58 220.081 194.689C220.095 194.799 220.017 194.898 219.909 194.91L218.335 195.102L218.311 195.104V195.104ZM213.062 195.744C212.963 195.744 212.878 195.669 212.866 195.569C212.852 195.461 212.929 195.362 213.038 195.349L214.613 195.158C214.719 195.142 214.82 195.22 214.833 195.329C214.847 195.439 214.769 195.538 214.66 195.551L213.086 195.742L213.062 195.744H213.062ZM204.141 196.316C204.125 196.316 204.11 196.312 204.092 196.309C203.569 196.179 203.054 195.995 202.565 195.763C202.466 195.716 202.425 195.598 202.472 195.499C202.52 195.399 202.64 195.359 202.735 195.404C203.202 195.626 203.688 195.801 204.188 195.924C204.294 195.95 204.36 196.057 204.334 196.165C204.311 196.255 204.229 196.316 204.141 196.316H204.141ZM207.814 196.385C207.715 196.385 207.629 196.31 207.617 196.21C207.603 196.101 207.68 196.002 207.79 195.99L209.364 195.798C209.48 195.785 209.572 195.862 209.586 195.969C209.6 196.078 209.522 196.177 209.412 196.191L207.838 196.383L207.814 196.385H207.814Z" fill="white"/>
<path fill-rule="evenodd" clip-rule="evenodd" d="M207.911 145.646L207.844 143.683C207.989 143.193 208.372 142.811 208.863 142.667C210.702 142.128 215.287 141.008 217.742 142.395L218.365 144.607L207.911 145.646H207.911Z" fill="black"/>
<path fill-rule="evenodd" clip-rule="evenodd" d="M213.533 143.03C213.114 143.189 212.682 143.245 212.235 143.194C211.694 143.132 211.264 142.711 211.194 142.171L210.418 136.099L213.509 135.704L214.286 141.773C214.353 142.312 214.043 142.834 213.533 143.03Z" fill="black"/>
<path fill-rule="evenodd" clip-rule="evenodd" d="M237.845 141.815L237.777 139.852C237.923 139.363 238.306 138.98 238.797 138.836C240.636 138.297 245.221 137.177 247.676 138.566L248.3 140.776L237.845 141.815H237.845Z" fill="black"/>
<path fill-rule="evenodd" clip-rule="evenodd" d="M243.466 139.199C243.048 139.36 242.615 139.414 242.168 139.363C241.627 139.301 241.196 138.88 241.127 138.342L240.27 131.629L243.358 131.233L244.219 137.942C244.288 138.481 243.977 139.003 243.466 139.199Z" fill="black"/>
<path fill-rule="evenodd" clip-rule="evenodd" d="M210.289 137.628L243.389 132.273C244.143 132.152 244.715 131.523 244.751 130.764C244.8 129.699 244.762 128.121 244.314 126.537C243.808 124.734 242.054 123.573 240.183 123.767C233.963 124.414 218.178 126.438 209.918 130.992C209.044 131.474 208.463 132.348 208.352 133.336C208.247 134.277 208.256 135.516 208.705 136.721C208.944 137.361 209.613 137.737 210.289 137.628Z" fill="black"/>
<path fill-rule="evenodd" clip-rule="evenodd" d="M209.475 136.356C209.234 136.356 209.017 136.191 208.96 135.947C208.948 135.893 208.651 134.593 208.831 133.278C208.981 132.202 209.695 131.261 210.698 130.822C212.498 130.033 215.954 128.643 218.875 128.185C219.169 128.149 219.436 128.338 219.48 128.627C219.526 128.915 219.328 129.186 219.04 129.231C216.13 129.686 212.534 131.172 211.123 131.79C210.454 132.082 209.977 132.708 209.879 133.423C209.726 134.539 209.988 135.697 209.991 135.709C210.056 135.993 209.879 136.277 209.595 136.342C209.555 136.352 209.515 136.356 209.475 136.356H209.475Z" fill="#819EAF"/>
<path fill-rule="evenodd" clip-rule="evenodd" d="M192.391 146.862C203.111 145.353 249.503 138.919 263.205 138.821C264.385 138.812 265.441 139.54 265.84 140.646C267.098 144.15 269.772 152.318 270.645 160.642C270.763 161.776 270.057 162.835 268.97 163.188L238.913 172.957L227.971 174.356L194.317 172.033C193.131 171.95 192.152 171.08 191.942 169.915C191.195 165.767 189.607 156.01 189.929 149.56C189.999 148.189 191.025 147.055 192.391 146.862Z" fill="#29C9D3"/>
<path fill-rule="evenodd" clip-rule="evenodd" d="M260.427 141.78C260.322 141.78 260.235 141.697 260.23 141.591C260.224 141.481 260.308 141.39 260.417 141.384C260.984 141.357 261.514 141.336 262.006 141.321H262.012C262.119 141.321 262.208 141.406 262.209 141.513C262.213 141.622 262.128 141.714 262.019 141.717C261.528 141.731 261.001 141.752 260.438 141.78H260.427V141.78ZM255.152 142.13C255.05 142.13 254.963 142.052 254.955 141.948C254.946 141.839 255.028 141.744 255.137 141.735C255.683 141.69 256.21 141.65 256.72 141.614C256.846 141.621 256.924 141.687 256.931 141.796C256.94 141.905 256.856 142 256.749 142.008C256.24 142.045 255.713 142.087 255.168 142.13H255.153H255.152ZM249.886 142.598C249.784 142.598 249.699 142.52 249.688 142.418C249.678 142.309 249.758 142.213 249.867 142.203C250.406 142.151 250.933 142.101 251.448 142.054C251.562 142.04 251.652 142.125 251.663 142.234C251.673 142.343 251.591 142.44 251.483 142.449C250.97 142.496 250.443 142.546 249.905 142.596L249.886 142.598ZM244.625 143.129C244.524 143.129 244.44 143.052 244.427 142.95C244.417 142.841 244.495 142.744 244.604 142.732L246.181 142.569C246.291 142.558 246.388 142.636 246.4 142.745C246.41 142.855 246.333 142.952 246.223 142.962L244.645 143.127L244.625 143.129H244.625ZM239.369 143.702C239.27 143.702 239.184 143.628 239.173 143.526C239.161 143.416 239.239 143.319 239.348 143.307L240.924 143.13C241.033 143.122 241.132 143.198 241.143 143.305C241.155 143.414 241.076 143.514 240.968 143.526L239.392 143.701L239.369 143.702H239.369ZM234.117 144.307C234.018 144.307 233.933 144.233 233.921 144.133C233.907 144.023 233.985 143.924 234.094 143.912L235.67 143.728C235.786 143.715 235.876 143.794 235.89 143.902C235.901 144.011 235.823 144.11 235.714 144.122L234.14 144.306L234.116 144.307H234.117ZM228.869 144.938C228.771 144.938 228.684 144.864 228.671 144.765C228.658 144.656 228.736 144.557 228.845 144.543L230.419 144.351C230.524 144.34 230.627 144.416 230.639 144.524C230.653 144.633 230.575 144.732 230.467 144.744L228.894 144.937L228.869 144.938H228.869ZM223.622 145.389H223.627H223.622ZM264.579 145.502C264.496 145.502 264.417 145.448 264.39 145.363C264.224 144.826 264.062 144.321 263.904 143.855C263.869 143.751 263.926 143.64 264.031 143.605C264.136 143.571 264.25 143.628 264.281 143.73C264.439 144.199 264.601 144.704 264.767 145.245C264.803 145.349 264.741 145.46 264.64 145.493C264.618 145.5 264.596 145.502 264.579 145.502V145.502ZM223.657 145.585L223.606 145.192L225.17 144.996C225.282 144.982 225.379 145.06 225.392 145.167C225.406 145.276 225.328 145.375 225.22 145.389L223.657 145.585ZM218.378 146.258C218.279 146.258 218.195 146.183 218.18 146.084C218.166 145.975 218.243 145.876 218.352 145.862L219.926 145.659C220.04 145.644 220.132 145.723 220.148 145.831C220.16 145.941 220.084 146.039 219.974 146.053L218.402 146.256L218.378 146.258H218.378ZM213.132 146.939C213.034 146.939 212.949 146.866 212.935 146.766C212.921 146.658 212.999 146.559 213.107 146.544L214.68 146.337C214.79 146.32 214.889 146.399 214.903 146.509C214.916 146.617 214.84 146.717 214.733 146.731L213.159 146.937L213.133 146.939H213.132ZM207.89 147.636C207.791 147.636 207.707 147.563 207.694 147.462C207.679 147.354 207.755 147.254 207.864 147.24L209.436 147.031C209.54 147.017 209.644 147.093 209.66 147.2C209.674 147.31 209.598 147.408 209.488 147.424L207.916 147.634L207.89 147.635L207.89 147.636ZM202.648 148.343C202.551 148.343 202.466 148.27 202.452 148.171C202.437 148.062 202.513 147.961 202.622 147.948L204.194 147.732C204.307 147.719 204.402 147.795 204.418 147.904C204.432 148.012 204.355 148.112 204.248 148.126L202.676 148.339L202.648 148.343H202.648ZM197.41 149.062C197.313 149.062 197.228 148.989 197.214 148.89C197.198 148.783 197.274 148.682 197.381 148.667L198.954 148.45C199.072 148.431 199.162 148.511 199.178 148.62C199.193 148.728 199.117 148.828 199.008 148.842L197.437 149.061L197.41 149.062V149.062ZM192.589 150.229L192.582 150.227C192.472 150.223 192.388 150.132 192.391 150.023L192.406 149.685C192.415 149.497 192.554 149.343 192.737 149.317L193.714 149.18C193.823 149.156 193.923 149.239 193.937 149.349C193.953 149.458 193.878 149.556 193.769 149.572L192.793 149.709L192.786 150.038C192.783 150.144 192.695 150.229 192.588 150.229L192.589 150.229ZM266.026 150.589C265.938 150.589 265.859 150.528 265.833 150.44C265.701 149.916 265.565 149.405 265.43 148.909C265.399 148.804 265.46 148.695 265.57 148.665C265.675 148.634 265.785 148.7 265.811 148.804C265.947 149.303 266.083 149.816 266.219 150.341C266.245 150.447 266.179 150.555 266.074 150.582C266.056 150.586 266.043 150.589 266.026 150.589ZM192.713 155.514C192.609 155.514 192.523 155.433 192.516 155.329C192.478 154.793 192.446 154.263 192.424 153.739C192.419 153.63 192.503 153.538 192.613 153.533C192.733 153.512 192.814 153.613 192.819 153.722C192.843 154.24 192.874 154.768 192.911 155.301C192.918 155.41 192.836 155.505 192.727 155.512L192.713 155.514ZM267.183 155.75C267.087 155.75 267.003 155.682 266.986 155.589C266.885 155.065 266.784 154.547 266.674 154.037C266.653 153.93 266.718 153.824 266.828 153.801C266.942 153.781 267.038 153.848 267.064 153.954C267.17 154.469 267.275 154.989 267.376 155.514C267.398 155.621 267.328 155.725 267.218 155.745L267.183 155.749V155.75ZM193.229 160.777C193.129 160.777 193.044 160.703 193.032 160.602C192.968 160.082 192.908 159.555 192.848 159.025C192.836 158.915 192.916 158.816 193.025 158.806C193.141 158.799 193.231 158.874 193.244 158.981C193.301 159.51 193.362 160.035 193.424 160.555C193.438 160.663 193.362 160.762 193.253 160.776L193.229 160.777ZM267.889 160.924C267.806 160.924 267.727 160.871 267.7 160.786C267.679 160.713 267.7 160.635 267.749 160.584C267.7 160.132 267.643 159.681 267.582 159.231C267.569 159.121 267.643 159.021 267.753 159.007C267.862 158.99 267.963 159.07 267.977 159.177C268.042 159.678 268.104 160.178 268.161 160.68L268.178 160.841L267.95 160.914C267.928 160.921 267.911 160.924 267.889 160.924V160.924ZM262.862 162.557C262.778 162.557 262.7 162.506 262.673 162.42C262.638 162.316 262.695 162.205 262.799 162.171L264.307 161.682C264.412 161.649 264.522 161.704 264.557 161.808C264.592 161.912 264.535 162.025 264.43 162.058L262.922 162.549C262.903 162.554 262.88 162.557 262.862 162.557H262.862ZM257.833 164.192C257.75 164.192 257.672 164.139 257.644 164.055C257.611 163.951 257.668 163.838 257.772 163.806L259.281 163.315C259.385 163.286 259.497 163.339 259.53 163.443C259.565 163.547 259.508 163.658 259.404 163.693L257.896 164.183C257.875 164.189 257.854 164.192 257.833 164.192H257.833ZM252.805 165.827C252.723 165.827 252.645 165.774 252.617 165.69C252.582 165.586 252.641 165.473 252.743 165.439L254.253 164.95C254.357 164.919 254.468 164.972 254.503 165.076C254.538 165.18 254.478 165.293 254.374 165.328L252.866 165.817C252.847 165.824 252.826 165.827 252.805 165.827H252.805ZM193.967 166.016C193.87 166.016 193.787 165.945 193.771 165.848C193.691 165.347 193.61 164.821 193.53 164.277C193.514 164.168 193.589 164.068 193.698 164.052C193.802 164.034 193.908 164.111 193.924 164.218C194.004 164.762 194.083 165.286 194.161 165.785C194.18 165.894 194.106 165.995 193.998 166.012L193.967 166.016H193.967ZM247.778 167.46C247.693 167.46 247.617 167.406 247.589 167.323C247.555 167.219 247.612 167.106 247.716 167.073L249.224 166.583C249.328 166.552 249.44 166.607 249.475 166.711C249.508 166.815 249.451 166.927 249.347 166.961L247.839 167.451C247.819 167.456 247.798 167.46 247.778 167.46H247.778ZM242.75 169.095C242.667 169.095 242.589 169.041 242.561 168.958C242.528 168.854 242.586 168.741 242.689 168.708L244.197 168.218C244.302 168.186 244.412 168.242 244.447 168.346C244.482 168.45 244.423 168.561 244.321 168.596L242.812 169.084C242.791 169.091 242.771 169.095 242.75 169.095ZM196.25 169.682H196.236L194.655 169.573C194.546 169.564 194.463 169.471 194.47 169.361C194.479 169.253 194.585 169.183 194.682 169.176L196.264 169.287C196.373 169.294 196.456 169.388 196.448 169.497C196.441 169.603 196.355 169.682 196.25 169.682ZM201.525 170.046H201.511L199.929 169.937C199.819 169.929 199.738 169.835 199.745 169.726C199.752 169.617 199.845 169.549 199.957 169.542L201.538 169.651C201.649 169.658 201.73 169.752 201.723 169.863C201.716 169.967 201.629 170.046 201.525 170.046ZM206.799 170.411H206.785L205.204 170.301C205.095 170.293 205.011 170.199 205.019 170.09C205.027 169.98 205.123 169.915 205.23 169.906L206.812 170.015C206.922 170.022 207.005 170.116 206.996 170.227C206.989 170.331 206.902 170.411 206.799 170.411ZM237.697 170.613C237.598 170.613 237.513 170.54 237.499 170.44C237.485 170.331 237.563 170.232 237.671 170.218L238.302 170.136L239.169 169.852C239.274 169.819 239.385 169.875 239.42 169.979C239.453 170.083 239.396 170.196 239.292 170.23L238.389 170.523L237.721 170.612L237.697 170.613L237.697 170.613ZM212.074 170.774H212.06L210.477 170.665C210.368 170.656 210.286 170.563 210.293 170.454C210.3 170.345 210.398 170.267 210.505 170.27L212.088 170.379C212.197 170.386 212.278 170.481 212.271 170.591C212.264 170.695 212.176 170.774 212.074 170.774ZM217.347 171.138H217.333L215.751 171.029C215.641 171.021 215.56 170.927 215.567 170.818C215.576 170.709 215.675 170.631 215.778 170.634L217.361 170.743C217.47 170.75 217.551 170.846 217.545 170.955C217.538 171.059 217.451 171.138 217.347 171.138H217.347ZM232.453 171.284C232.354 171.284 232.269 171.211 232.255 171.111C232.241 171.001 232.319 170.903 232.427 170.889L234 170.687C234.125 170.67 234.209 170.752 234.223 170.859C234.236 170.967 234.159 171.067 234.051 171.081L232.477 171.283L232.453 171.284H232.453ZM222.62 171.503H222.608L221.025 171.394C220.916 171.385 220.833 171.291 220.841 171.182C220.848 171.073 220.949 170.996 221.053 170.998L222.634 171.107C222.743 171.114 222.826 171.21 222.819 171.319C222.811 171.423 222.724 171.503 222.62 171.503H222.62ZM227.921 171.865L226.299 171.758C226.19 171.749 226.108 171.655 226.115 171.546C226.124 171.437 226.226 171.363 226.327 171.363L227.91 171.472L228.757 171.359C228.884 171.349 228.965 171.423 228.979 171.531C228.993 171.64 228.915 171.739 228.808 171.753L227.922 171.866L227.921 171.865Z" fill="#E0FFD5"/>
<path fill-rule="evenodd" clip-rule="evenodd" d="M238.472 177.682L228.886 178.908C227.629 179.069 226.452 178.27 226.145 177.048L223.857 167.966C223.493 166.519 224.479 165.078 225.967 164.889L237.483 163.416C238.939 163.229 240.241 164.326 240.296 165.785L240.655 175.116C240.703 176.403 239.757 177.518 238.472 177.682V177.682Z" fill="#048891"/>
<path fill-rule="evenodd" clip-rule="evenodd" d="M237.072 176.136L229.777 177.071C228.82 177.192 227.924 176.584 227.69 175.654L225.948 168.741C225.672 167.64 226.423 166.545 227.555 166.399L236.319 165.277C237.427 165.135 238.419 165.971 238.46 167.082L238.734 174.182C238.77 175.164 238.049 176.011 237.071 176.136L237.072 176.136Z" fill="#29C9D3"/>
<path fill-rule="evenodd" clip-rule="evenodd" d="M231.37 102.632C233.632 111.976 233.691 121.115 233.348 124.443C233.217 125.696 232.209 126.676 230.95 126.764C229.521 126.865 227.576 126.996 225.838 127.095C223.928 127.206 221.806 125.998 220.387 124.989C219.663 124.474 218.727 125.277 219.13 126.067C219.827 127.431 221.038 128.505 222.239 129.416C222.962 129.966 225.363 130.942 225.196 132.021C225.143 132.363 224.938 132.66 224.716 132.925C223.382 134.526 221.362 135.383 219.37 135.993C219.119 136.071 218.855 136.153 218.68 136.345C218.63 137.635 222.595 139.067 223.617 139.406C225.152 139.914 226.776 140.131 228.386 139.961C232.375 139.54 236.058 136.787 238.208 133.467C243.951 124.593 246.921 113.875 248.006 105.679C242.664 100.338 234.598 101.692 231.37 102.632V102.632Z" fill="#FEBBBA"/>
<path fill-rule="evenodd" clip-rule="evenodd" d="M248.006 106.524C252.268 74.3358 227.462 49.585 227.462 49.585L212.703 66.7899C223.909 80.7569 229.234 93.555 231.668 103.606C234.894 102.667 242.664 101.183 248.006 106.524V106.524Z" fill="#109C83"/>
<path fill-rule="evenodd" clip-rule="evenodd" d="M231.32 103.448C230.907 103.448 230.532 103.169 230.432 102.749C227.433 90.3586 221.111 78.0921 211.643 66.2922C211.327 65.8971 211.389 65.3216 211.783 65.0059C212.177 64.6901 212.754 64.7529 213.069 65.1462C222.706 77.1596 229.146 89.6667 232.209 102.32C232.327 102.81 232.025 103.305 231.535 103.424C231.464 103.441 231.391 103.448 231.32 103.448Z" fill="#027762"/>
<path fill-rule="evenodd" clip-rule="evenodd" d="M31.441 294.268C31.4445 294.11 31.4322 293.95 31.3922 293.791C29.0191 284.382 17.238 278.519 17.238 278.519L12.5701 278.885C9.88646 287.18 10.2313 292.266 10.6612 294.532C10.6734 294.596 10.6923 294.657 10.7097 294.717C14.5614 295.062 22.4873 295.286 31.4407 294.268L31.441 294.268Z" fill="#104F95"/>
<path fill-rule="evenodd" clip-rule="evenodd" d="M10.7109 294.717C10.9186 295.475 11.4767 296.064 12.193 296.213C17.6709 297.366 26.3765 296.439 30.0324 295.96C30.8385 295.856 31.4277 295.109 31.4419 294.268C22.4885 295.286 14.5626 295.062 10.7109 294.717Z" fill="#69CCFA"/>
<path fill-rule="evenodd" clip-rule="evenodd" d="M10.6917 271.932L12.6697 281.451C12.8135 282.147 13.3509 282.671 13.9993 282.732C14.7932 282.806 15.9253 282.85 17.0623 282.683C18.0816 282.532 18.7922 281.496 18.6121 280.385L17.2372 271.932H10.6914L10.6917 271.932Z" fill="#FED4BA"/>
<path fill-rule="evenodd" clip-rule="evenodd" d="M51.6597 294.597C46.5043 294.453 43.8361 293.845 42.4582 293.281C42.4548 293.795 42.4582 294.317 42.4754 294.857C42.4928 295.435 42.9207 295.896 43.4459 295.892L71.7542 295.709C72.6576 295.703 73.186 294.656 72.7945 293.828C69.0831 294.135 59.6303 294.821 51.6597 294.597Z" fill="#69CCFA"/>
<path fill-rule="evenodd" clip-rule="evenodd" d="M72.7935 293.828C72.759 293.754 72.7296 293.681 72.6808 293.614C70.1811 290.121 63.8137 283.164 51.232 280.148L45.1958 279.958C45.1958 279.958 42.5073 284.628 42.457 293.281C43.8349 293.845 46.5031 294.453 51.6585 294.597C59.6291 294.821 69.0819 294.135 72.7932 293.828L72.7935 293.828Z" fill="#104F95"/>
<path fill-rule="evenodd" clip-rule="evenodd" d="M43.8086 271.091C43.9042 271.535 45.1606 278.308 45.646 280.934C45.7622 281.558 46.2473 282.015 46.8266 282.049C47.8599 282.106 49.5276 282.113 50.9612 281.724C51.7345 281.513 52.2545 280.726 52.1987 279.85L51.5227 269.137L43.8086 271.091Z" fill="#FED4BA"/>
<path fill-rule="evenodd" clip-rule="evenodd" d="M39.2336 146.043C39.2336 146.043 47.5369 203.097 53.528 270.992C53.6408 272.258 52.6319 273.358 51.3909 273.62C49.5602 274.004 46.8696 274.462 44.6421 274.4C43.4528 274.367 42.4575 273.485 42.2585 272.313C40.2164 260.341 25.6515 196.094 21.8274 181.954C21.8274 181.954 17.4363 242.018 18.8405 273.18C18.8751 273.955 18.3083 274.627 17.5368 274.716C16.3684 274.851 14.4982 274.953 12.1199 274.7C11.2164 274.604 10.4867 273.922 10.3583 273.022C8.90409 262.891 0.534616 202.586 0.889892 159.144C0.910808 156.693 3.7658 136.565 3.7658 136.565L39.2336 146.043V146.043Z" fill="#084282"/>
<path fill-rule="evenodd" clip-rule="evenodd" d="M2.51724 149.331C1.66289 149.028 1.06824 148.253 0.974413 147.351C-0.130053 136.64 -5.47518 70.2187 28.2775 42.8952C28.2775 42.8952 30.2117 37.8316 46.1221 50.2799C62.032 62.7282 53.5135 75.7764 49.7051 93.7738C45.0958 115.552 37.009 133.353 40.5867 146.755C40.8328 147.681 40.3474 148.651 39.4477 148.982C27.0897 153.536 14.7782 153.687 2.51695 149.331H2.51724Z" fill="#656FCA"/>
<path fill-rule="evenodd" clip-rule="evenodd" d="M41.4397 22.9949C41.4295 23.9396 27.9531 43.0827 27.9531 43.0827C27.9531 43.0827 30.3712 47.848 41.9202 51.7151L51.8894 31.2183L41.4397 22.9946V22.9949Z" fill="#FFCFBA"/>
<path fill-rule="evenodd" clip-rule="evenodd" d="M52.0545 12.0249C52.0545 12.0249 56.8491 23.0414 57.1719 28.8225C57.494 34.606 58.7388 38.3569 52.0545 39.5221C45.3684 40.687 39.7363 37.355 36.6852 31.5962C36.6852 31.5962 31.904 22.7207 32.9773 19.0874C34.0504 15.4522 52.0548 12.0249 52.0548 12.0249H52.0545Z" fill="#FFCFBA"/>
<path fill-rule="evenodd" clip-rule="evenodd" d="M38.9686 27.4551L39.3483 27.2866C39.8337 27.0736 40.0414 26.4961 39.7971 26.0267C38.8541 24.2047 37.0165 20.0303 39.391 19.0574C42.4511 17.8028 54.57 15.3306 57.1856 11.0298C59.6992 6.89696 57.4717 1.56142 54.1261 0.0427084C53.9007 -0.0578032 53.6372 0.0220832 53.5227 0.240536L53.2438 0.767496C53.0527 1.12974 52.5191 1.07426 52.4066 0.68238C52.2974 0.304445 51.7963 0.231821 51.588 0.564439C50.7839 1.85075 48.6136 3.93797 42.8095 5.00757C34.5615 6.52977 29.11 9.86844 28.9747 15.5683C28.9659 15.9285 28.5793 16.1315 28.2705 15.9427C27.6625 15.5717 26.6861 15.3966 25.3844 16.4926C23.1206 18.3974 24.0461 23.3379 29.0127 27.4013C29.2486 27.5957 29.2468 27.9629 28.99 28.1296C28.091 28.7152 26.7489 30.109 30.2264 31.9691C33.8219 33.8916 36.5087 33.7341 37.542 33.5622C37.8002 33.5206 37.9649 33.2711 37.9094 33.0163L36.805 28.0064C36.7428 27.7241 36.9592 27.4554 37.2486 27.4554H38.9683L38.9686 27.4551Z" fill="black"/>
<path fill-rule="evenodd" clip-rule="evenodd" d="M39.1778 28.5122C39.1778 28.5122 37.3474 21.4747 34.1923 23.4486C31.0372 25.4214 35.8307 31.3327 38.3667 31.5961L39.1778 28.5119V28.5122Z" fill="#FFCFBA"/>
<path fill-rule="evenodd" clip-rule="evenodd" d="M51.2383 56.0564L52.1673 81.0135C54.8073 81.9219 57.3192 82.6272 59.7135 83.1559C61.2093 78.3369 64.5046 72.4221 67.2036 68.026C57.2884 64.5209 51.2386 56.0564 51.2386 56.0564H51.2383Z" fill="#656FCA"/>
<path fill-rule="evenodd" clip-rule="evenodd" d="M100.742 55.6331C87.1406 70.3174 76.1331 71.181 67.205 68.0257C64.5063 72.422 61.2109 78.3368 59.7148 83.1556C96.0353 91.1628 104.588 57.7717 104.588 57.7717L100.742 55.6328V55.6331Z" fill="#FFCFBA"/>
<path fill-rule="evenodd" clip-rule="evenodd" d="M101.816 55.6419C101.816 55.6419 102.358 53.4065 105.145 52.4467C107.93 51.4872 110.674 51.1006 111.498 48.876C112.32 46.6516 113.883 48.1378 113.883 48.1378L111.182 54.3748L101.816 55.6422V55.6419Z" fill="#FFCFBA"/>
<path fill-rule="evenodd" clip-rule="evenodd" d="M100.406 59.7336C100.406 59.7336 99.1416 55.2954 102.262 54.2452C105.383 53.1968 113.743 53.0798 115.033 51.5114C116.323 49.943 117.57 47.2219 118.957 47.1563L118.383 50.5972C118.383 50.5972 121.694 45.015 123.516 46.2781L117.939 55.4525C117.939 55.4525 105.336 60.9656 100.406 59.7336Z" fill="#FFCFBA"/>
<path fill-rule="evenodd" clip-rule="evenodd" d="M36.1406 88.7188C36.1406 88.7188 61.7104 110.135 89.3232 100.791C91.0359 100.21 92.9079 100.337 94.5062 101.181L102.444 105.373C105.776 107.132 109.902 105.978 111.836 102.745C112.939 100.898 113.88 98.7923 114.067 96.7725L98.5348 90.4853L99.6791 88.5799C99.6791 88.5799 92.0951 87.9385 90.1101 93.3728C90.1101 93.3728 75.6667 99.3811 51.3057 72.5867C51.3057 72.5867 40.2511 81.9854 36.1406 88.7185V88.7188Z" fill="#FFCFBA"/>
<path fill-rule="evenodd" clip-rule="evenodd" d="M34.7631 88.4987C34.678 88.4987 34.5932 88.474 34.5188 88.4223C23.7516 81.1483 18.6865 69.4076 18.6359 69.2896C18.5424 69.066 18.6464 68.8097 18.8683 68.7159C19.092 68.6203 19.3482 68.7246 19.442 68.9466C19.4926 69.0628 24.4621 80.5716 35.0071 87.6978C35.2084 87.8332 35.2604 88.1051 35.1253 88.3064C35.042 88.4313 34.9031 88.499 34.7628 88.499L34.7631 88.4987Z" fill="#104F95"/>
<path fill-rule="evenodd" clip-rule="evenodd" d="M50.8003 72.2246C50.6565 72.2246 50.5162 72.1537 50.4329 72.0233C50.4 71.9733 47.1099 66.8524 40.8445 55.6349C38.9185 52.185 36.3877 50.0011 33.3195 49.1426C28.2419 47.723 23.3467 50.4464 23.2982 50.474C23.0888 50.5902 22.8218 50.519 22.7021 50.309C22.5824 50.0995 22.6551 49.8326 22.8665 49.7129C23.0766 49.5935 28.1123 46.7765 33.5487 48.2987C36.851 49.219 39.564 51.5439 41.6096 55.2064C47.8591 66.3961 51.1353 71.4995 51.1681 71.55C51.3 71.7531 51.241 72.023 51.0383 72.1534C50.9639 72.2019 50.8823 72.2243 50.8006 72.2243L50.8003 72.2246Z" fill="#104F95"/>
</svg>
