<svg width="74" height="76" fill="none" xmlns="http://www.w3.org/2000/svg"><path d="M8.001 8.632c3.29-3.31 9.563-2.766 17.045.791 7.01 3.333 15.258 9.33 23.079 17.2 7.822 7.871 13.782 16.17 17.094 23.226 3.534 7.53 4.076 13.842.786 17.152-3.289 3.31-9.562 2.766-17.044-.79-7.011-3.333-15.258-9.33-23.08-17.2l-.002-.003c-7.82-7.87-13.78-16.17-17.091-23.224-3.534-7.53-4.076-13.842-.786-17.152zm15.674 3.715c-6.215-2.955-11.173-3.663-13.397-1.424-2.225 2.238-1.521 7.227 1.415 13.481 3.159 6.73 8.896 14.7 16.463 22.314l.002.002c7.567 7.614 15.487 13.388 22.174 16.567 6.215 2.954 11.172 3.662 13.397 1.423 2.224-2.238 1.52-7.227-1.416-13.481-3.159-6.73-8.897-14.7-16.463-22.315-7.568-7.615-15.488-13.389-22.175-16.567z" fill="#107A67"/><path d="M66.005 8.632c3.29 3.31 2.748 9.623-.786 17.152-3.312 7.055-9.272 15.355-17.093 23.226-7.821 7.87-16.069 13.867-23.08 17.2-7.482 3.557-13.755 4.101-17.045.791-3.289-3.31-2.747-9.622.787-17.152 3.312-7.055 9.271-15.354 17.093-23.225 7.822-7.871 16.069-13.868 23.08-17.2 7.482-3.558 13.755-4.102 17.044-.792zm-3.692 15.772c2.936-6.254 3.64-11.243 1.416-13.482-2.225-2.238-7.182-1.53-13.397 1.425-6.687 3.178-14.607 8.952-22.174 16.566C20.59 36.53 14.852 44.5 11.693 51.23c-2.936 6.255-3.64 11.243-1.415 13.482 2.224 2.238 7.182 1.53 13.397-1.425 6.687-3.178 14.608-8.952 22.175-16.567s13.305-15.585 16.463-22.315z" fill="#107A67"/><path fill-rule="evenodd" clip-rule="evenodd" d="M2.715 31.192L30.418 3.315c3.62-3.643 9.544-3.643 13.164 0l27.703 27.877c3.62 3.643 3.62 9.605 0 13.248L43.582 72.317c-3.62 3.643-9.544 3.643-13.164 0L2.715 44.44c-3.62-3.643-3.62-9.605 0-13.248z" fill="url(#paint0_linear_2_1337)"/><path d="M42.566 6.907h0l25.537 25.698c2.95 2.968 2.95 7.833 0 10.801L42.566 69.104l.71.705-.71-.705c-2.946 2.965-7.77 2.965-10.716 0L6.313 43.406c-2.95-2.968-2.95-7.833 0-10.801L31.85 6.907c2.946-2.965 7.77-2.965 10.716 0z" fill="url(#paint1_linear_2_1337)" stroke="#E5FFDC" stroke-width="2"/><path d="M22.42 50.193h6.549l.818-11.981c.15-2.01 0-4.465 0-4.465h.075s.893 2.79 1.488 4.465l2.79 7.702h5.582l2.79-7.702c.596-1.674 1.489-4.465 1.489-4.465h.074s-.149 2.456 0 4.465l.819 11.981h6.511l-2.158-26.604h-7.07l-3.87 11.237c-.594 1.712-1.339 4.39-1.339 4.39h-.074s-.744-2.678-1.34-4.39l-3.87-11.237h-7.069L22.42 50.193z" fill="#E0FFD5"/><defs><linearGradient id="paint0_linear_2_1337" x1="16.567" y1="58.378" x2="57.69" y2="17.512" gradientUnits="userSpaceOnUse"><stop stop-color="#0CA488"/><stop offset=".844" stop-color="#0B6B5A"/></linearGradient><linearGradient id="paint1_linear_2_1337" x1="18.372" y1="56.96" x2="56.281" y2="19.289" gradientUnits="userSpaceOnUse"><stop stop-color="#0CA488"/><stop offset=".844" stop-color="#0B6B5A"/></linearGradient></defs></svg>