<svg width="20" height="16" fill="none" xmlns="http://www.w3.org/2000/svg"><path d="M8 5v3.5H4" stroke="#000" stroke-linecap="round"/><path fill-rule="evenodd" clip-rule="evenodd" d="M8 14c1.792 0 3.4-.786 4.5-2.031A5.977 5.977 0 0014 8 6.001 6.001 0 002 8a6 6 0 006 6zm0 2a7.98 7.98 0 006-2.708A7.97 7.97 0 0016 8a8 8 0 00-8-8 8 8 0 100 16z" fill="#000"/><circle cx="14.5" cy="10.5" r="5.5" fill="#F5F7FC"/><path d="M11.977 15v-1.757H11v-.997h.977v-.803H11v-1.275h.977V7h2.786c1.124 0 1.942.192 2.455.576.521.384.782.912.782 1.584 0 .398-.106.771-.318 1.121-.211.35-.566.631-1.063.844-.488.212-1.156.318-2.003.318h-.794v.803h1.881v.997h-1.881V15h-1.845zm2.456-4.832c.521 0 .932-.075 1.234-.226.31-.151.464-.395.464-.73 0-.625-.489-.937-1.466-.937h-.843v1.893h.61z" fill="#000"/></svg>