<svg width="82" height="94" viewBox="0 0 82 94" fill="none" xmlns="http://www.w3.org/2000/svg">
<path d="M52.1876 20.2886C52.1876 22.7467 50.1945 24.7398 47.7364 24.7398C45.2783 24.7398 43.2852 22.7467 43.2852 20.2886C43.2852 17.8305 45.2783 15.8374 47.7364 15.8374C50.1945 15.8374 52.1876 17.8305 52.1876 20.2886Z" stroke="#104F95" stroke-width="2" stroke-miterlimit="10"/>
<path d="M24.741 48.3315V55.1567L20.2898 59.608L24.741 64.0592L20.2898 68.5104L24.741 72.9616L20.2898 77.4128L24.741 81.8641V86.3153L18.8061 92.2502L12.8711 86.3153V48.3315" stroke="#104F95" stroke-width="2" stroke-miterlimit="10" stroke-linecap="round"/>
<path d="M47.1441 15.0955C47.1441 7.23171 40.764 1 33.0486 1C25.3331 1 18.8047 7.38008 18.8047 15.0955" stroke="#104F95" stroke-width="2" stroke-miterlimit="10"/>
<path d="M20.5872 20.4372H17.1746C15.6909 20.4372 14.5039 19.2502 14.5039 17.7664C14.5039 16.2827 15.6909 15.0957 17.1746 15.0957H20.5872C22.071 15.0957 23.258 16.2827 23.258 17.7664C23.258 19.1018 22.071 20.4372 20.5872 20.4372Z" stroke="#104F95" stroke-width="2" stroke-miterlimit="10"/>
<path d="M13.315 9.90234H24.1463C36.6098 9.90234 36.6098 27.1137 36.6098 34.6808C36.6098 45.067 28.8943 48.628 21.1789 48.628H16.5793C8.71545 48.4796 1 44.9186 1 34.6808C1 27.1137 1 9.90234 13.315 9.90234H24.1463" stroke="#104F95" stroke-width="2" stroke-miterlimit="10" stroke-linecap="round" stroke-linejoin="round"/>
<path d="M36.6087 35.7197L58.123 57.2339C60.4969 59.6079 64.2063 59.6079 66.5803 57.2339L79.1921 44.6221C81.5661 42.2482 81.5661 38.5388 79.1921 36.1648L52.9299 10.051C50.5559 7.67701 46.8465 7.67701 44.4726 10.051L35.125 19.3986" stroke="#104F95" stroke-width="2" stroke-miterlimit="10" stroke-linecap="round" stroke-linejoin="round"/>
</svg>
