<svg width="20" height="16" viewBox="0 0 20 16" fill="none" xmlns="http://www.w3.org/2000/svg">
<path d="M8 5V8.5H4" stroke="black" stroke-linecap="round"/>
<path fill-rule="evenodd" clip-rule="evenodd" d="M8 14C9.79204 14 11.4006 13.2144 12.5 11.9687C13.4335 10.911 14 9.52167 14 8C14 7.14601 13.8216 6.3337 13.5 5.59829C12.5737 3.48012 10.4597 2 8 2C4.68629 2 2 4.68629 2 8C2 11.3137 4.68629 14 8 14ZM8 16C10.3894 16 12.5341 14.9525 14 13.2916C15.2447 11.8814 16 10.0289 16 8C16 6.74484 15.7109 5.5572 15.1958 4.5C13.8975 1.83576 11.1631 0 8 0C3.58172 0 0 3.58172 0 8C0 12.4183 3.58172 16 8 16Z" fill="black"/>
<circle cx="14.5" cy="10.5" r="5.5" fill="#F5F7FC"/>
<path d="M11.9773 15V13.2434H11V12.2457H11.9773V11.4434H11V10.168H11.9773V7H14.7627C15.8866 7 16.7051 7.192 17.2182 7.576C17.7394 7.96 18 8.488 18 9.16C18 9.55771 17.8941 9.93143 17.6824 10.2811C17.4706 10.6309 17.1163 10.912 16.6195 11.1246C16.1309 11.3371 15.4631 11.4434 14.6161 11.4434H13.822V12.2457H15.7033V13.2434H13.822V15H11.9773ZM14.4328 10.168C14.954 10.168 15.3653 10.0926 15.6667 9.94171C15.9761 9.79086 16.1309 9.54743 16.1309 9.21143C16.1309 8.58743 15.6422 8.27543 14.6649 8.27543H13.822V10.168H14.4328Z" fill="black"/>
</svg>
